<mxfile host="drawio-plugin" modified="2022-01-21T09:55:10.973Z" agent="5.0 (Windows NT 6.2; Win64; x64) AppleWebKit/537.36 (KHTML, like Gecko) Chrome/89.0.4389.114 Safari/537.36" etag="l1nfSSFfAN7InuuVh0z5" version="15.5.4" type="embed"><diagram id="FK52EOADnNmLaAAOMYU-" name="‫עמוד-1‬"><mxGraphModel dx="1727" dy="985" grid="1" gridSize="10" guides="1" tooltips="1" connect="1" arrows="1" fold="1" page="1" pageScale="1" pageWidth="827" pageHeight="1169" math="0" shadow="0"><root><mxCell id="0"/><mxCell id="1" parent="0"/><mxCell id="68" value="" style="ellipse;whiteSpace=wrap;html=1;shadow=0;fillColor=#FFFFFF;" parent="1" vertex="1"><mxGeometry x="469.13" y="6228.5" width="321.49" height="291.5" as="geometry"/></mxCell><mxCell id="61" value="" style="rounded=1;whiteSpace=wrap;html=1;fontSize=10;" parent="1" vertex="1"><mxGeometry x="476.11" y="6333.5" width="49.76" height="30" as="geometry"/></mxCell><mxCell id="hQnSltmCeuLVOE9HSqg4-95" value="" style="rounded=1;whiteSpace=wrap;html=1;" parent="1" vertex="1"><mxGeometry x="415.16" y="5161.71" width="270" height="40" as="geometry"/></mxCell><mxCell id="hQnSltmCeuLVOE9HSqg4-60" value="" style="rounded=1;whiteSpace=wrap;html=1;" parent="1" vertex="1"><mxGeometry x="416" y="5209.29" width="270" height="40" as="geometry"/></mxCell><mxCell id="hQnSltmCeuLVOE9HSqg4-22" value="" style="rounded=1;whiteSpace=wrap;html=1;" parent="1" vertex="1"><mxGeometry x="357.33" y="4755.29" width="392.67" height="60" as="geometry"/></mxCell><mxCell id="Xlb7uxuFtpM8GHsKnaJM-29" value="" style="ellipse;whiteSpace=wrap;html=1;shadow=0;fillColor=#FFFFFF;" parent="1" vertex="1"><mxGeometry x="126.31" y="3852.35" width="184" height="70" as="geometry"/></mxCell><mxCell id="ew9f5I8vs3_mxuw4Yqn4-35" value="" style="ellipse;whiteSpace=wrap;html=1;shadow=0;fillColor=#FFFFFF;" parent="1" vertex="1"><mxGeometry x="325" y="2480" width="216.51" height="164.7" as="geometry"/></mxCell><mxCell id="_8uzG4MN05V8oXmXqjsC-7" value="" style="shape=ext;double=1;rounded=0;whiteSpace=wrap;html=1;" parent="1" vertex="1"><mxGeometry x="575" y="2780" width="240" height="121.92" as="geometry"/></mxCell><mxCell id="XkMyMpnlgj1yEU59YpiB-62" value="" style="ellipse;whiteSpace=wrap;html=1;shadow=0;fillColor=#FFFFFF;" parent="1" vertex="1"><mxGeometry x="321.49" y="2984.7" width="184" height="120" as="geometry"/></mxCell><mxCell id="XkMyMpnlgj1yEU59YpiB-56" value="" style="ellipse;whiteSpace=wrap;html=1;shadow=0;fillColor=#FFFFFF;" parent="1" vertex="1"><mxGeometry x="105.49000000000001" y="2984.7" width="184" height="120" as="geometry"/></mxCell><mxCell id="cPSNG-HBHzvpX-sI5KWz-83" value="" style="shape=ext;double=1;rounded=0;whiteSpace=wrap;html=1;" parent="1" vertex="1"><mxGeometry x="565.33" y="1284" width="250" height="172.5" as="geometry"/></mxCell><mxCell id="cPSNG-HBHzvpX-sI5KWz-2" value="" style="fontColor=#0066CC;verticalAlign=top;verticalLabelPosition=bottom;labelPosition=center;align=center;html=1;outlineConnect=0;fillColor=#CCCCCC;strokeColor=#6881B3;gradientColor=none;gradientDirection=north;strokeWidth=2;shape=mxgraph.networks.pc;" parent="1" vertex="1"><mxGeometry x="353" y="140" width="100" height="70" as="geometry"/></mxCell><mxCell id="cPSNG-HBHzvpX-sI5KWz-3" value="" style="fontColor=#0066CC;verticalAlign=top;verticalLabelPosition=bottom;labelPosition=center;align=center;html=1;outlineConnect=0;fillColor=#CCCCCC;strokeColor=#6881B3;gradientColor=none;gradientDirection=north;strokeWidth=2;shape=mxgraph.networks.laptop;" parent="1" vertex="1"><mxGeometry x="550" y="230" width="100" height="55" as="geometry"/></mxCell><mxCell id="cPSNG-HBHzvpX-sI5KWz-5" value="" style="aspect=fixed;perimeter=ellipsePerimeter;html=1;align=center;shadow=0;dashed=0;spacingTop=3;image;image=img/lib/active_directory/tunnel.svg;rotation=35;" parent="1" vertex="1"><mxGeometry x="470.24" y="212.6" width="87.34" height="17.47" as="geometry"/></mxCell><mxCell id="cPSNG-HBHzvpX-sI5KWz-11" value="" style="fontColor=#0066CC;verticalAlign=top;verticalLabelPosition=bottom;labelPosition=center;align=center;html=1;outlineConnect=0;fillColor=#CCCCCC;strokeColor=#6881B3;gradientColor=none;gradientDirection=north;strokeWidth=2;shape=mxgraph.networks.laptop;" parent="1" vertex="1"><mxGeometry x="180" y="230" width="100" height="55" as="geometry"/></mxCell><mxCell id="cPSNG-HBHzvpX-sI5KWz-12" value="" style="aspect=fixed;perimeter=ellipsePerimeter;html=1;align=center;shadow=0;dashed=0;spacingTop=3;image;image=img/lib/active_directory/tunnel.svg;rotation=-225;" parent="1" vertex="1"><mxGeometry x="280" y="210" width="62" height="12.4" as="geometry"/></mxCell><mxCell id="cPSNG-HBHzvpX-sI5KWz-14" value="הקשת עכבר~&lt;br&gt;גלילת עכבר~&lt;br&gt;הקשות מקלדת~&lt;br&gt;שיתוף לוח העתקה~" style="ellipse;shape=cloud;whiteSpace=wrap;html=1;" parent="1" vertex="1"><mxGeometry x="490" y="110" width="200" height="100" as="geometry"/></mxCell><mxCell id="cPSNG-HBHzvpX-sI5KWz-15" value="...." style="ellipse;shape=cloud;whiteSpace=wrap;html=1;" parent="1" vertex="1"><mxGeometry x="230" y="150" width="70" height="40" as="geometry"/></mxCell><mxCell id="cPSNG-HBHzvpX-sI5KWz-16" value="" style="html=1;dashed=0;whitespace=wrap;fillColor=#2875E2;strokeColor=#ffffff;points=[[0.005,0.63,0],[0.1,0.2,0],[0.9,0.2,0],[0.5,0,0],[0.995,0.63,0],[0.72,0.99,0],[0.5,1,0],[0.28,0.99,0]];shape=mxgraph.kubernetes.icon;prIcon=role" parent="1" vertex="1"><mxGeometry x="481.90999999999997" y="203.73999999999998" width="64" height="35.2" as="geometry"/></mxCell><mxCell id="cPSNG-HBHzvpX-sI5KWz-19" value="&lt;h1&gt;מחשב מרכזי&lt;/h1&gt;&lt;p&gt;ממנו השליטה נעשית והוא שולח המידע העיקרי, המקלדת והעכבר המופיעים על מצג(י) ה&lt;b&gt;מחשב&lt;/b&gt;(ים) ה&lt;b&gt;משני&lt;/b&gt;(ים) מחוברים אליו&lt;/p&gt;" style="text;html=1;strokeColor=none;fillColor=none;spacing=5;spacingTop=-20;whiteSpace=wrap;overflow=hidden;rounded=0;align=right;" parent="1" vertex="1"><mxGeometry x="319.91" y="20" width="162" height="110" as="geometry"/></mxCell><mxCell id="cPSNG-HBHzvpX-sI5KWz-20" value="&lt;h1&gt;מחשב משני&lt;/h1&gt;&lt;p&gt;ה/מחשב בו שולטים אשר מהווה מסך נוסף למשתמש ה&lt;b&gt;מחשב המרכזי&lt;/b&gt;&lt;/p&gt;" style="text;html=1;strokeColor=none;fillColor=none;spacing=5;spacingTop=-20;whiteSpace=wrap;overflow=hidden;rounded=0;align=right;" parent="1" vertex="1"><mxGeometry x="570" y="300" width="150" height="100" as="geometry"/></mxCell><mxCell id="cPSNG-HBHzvpX-sI5KWz-21" value="&lt;b&gt;.....&lt;/b&gt;" style="text;html=1;align=center;verticalAlign=middle;resizable=0;points=[];autosize=1;strokeColor=none;" parent="1" vertex="1"><mxGeometry x="160" y="300" width="30" height="20" as="geometry"/></mxCell><mxCell id="cPSNG-HBHzvpX-sI5KWz-22" value="&lt;h1&gt;יתרונות&lt;/h1&gt;&lt;p&gt;&lt;/p&gt;&lt;blockquote style=&quot;margin: 0 0 0 40px ; border: none ; padding: 0px&quot;&gt;&lt;p&gt;כוח חישוב מוגבר. כל פעילות, בין אם רשתית או חישובית תתבצע על הזיכרון, המעבד וכוח הרשת של המחשב המשני ולכן תגביר את יכולת החישוב של סביבת העבודה בתמונה הגדולה&lt;/p&gt;&lt;/blockquote&gt;&lt;p&gt;&lt;/p&gt;" style="text;html=1;strokeColor=none;fillColor=none;spacing=5;spacingTop=-20;whiteSpace=wrap;overflow=hidden;rounded=0;align=right;" parent="1" vertex="1"><mxGeometry x="480" y="530" width="250" height="140" as="geometry"/></mxCell><mxCell id="cPSNG-HBHzvpX-sI5KWz-23" value="&lt;h1&gt;&lt;span&gt;חסרונות&lt;br&gt;&lt;/span&gt;&lt;/h1&gt;&lt;div&gt;הצפנת המידע, שליחתו, קבלתו ופענוחו דורשים כוח חישוב, רוחב פס וזמן&lt;/div&gt;&lt;p&gt;&lt;/p&gt;" style="text;html=1;strokeColor=none;fillColor=none;spacing=5;spacingTop=-20;whiteSpace=wrap;overflow=hidden;rounded=0;align=right;" parent="1" vertex="1"><mxGeometry x="530" y="660" width="190" height="140" as="geometry"/></mxCell><mxCell id="cPSNG-HBHzvpX-sI5KWz-24" value="&lt;font style=&quot;font-size: 18px&quot;&gt;היתרונות והחסרונות של שימוש במחשב משני כמסך נוסף למחשב מרכזי&lt;/font&gt;" style="text;html=1;strokeColor=none;fillColor=none;align=center;verticalAlign=middle;whiteSpace=wrap;rounded=0;" parent="1" vertex="1"><mxGeometry x="464.04" y="480" width="281.91" height="40" as="geometry"/></mxCell><mxCell id="cPSNG-HBHzvpX-sI5KWz-37" value="מנוע משתמש" style="shape=ext;margin=3;double=1;whiteSpace=wrap;html=1;align=center;" parent="1" vertex="1"><mxGeometry x="354.33" y="1644" width="126" height="80" as="geometry"/></mxCell><mxCell id="cPSNG-HBHzvpX-sI5KWz-39" value="גרפיקת ממשק משתמש בסיסית" style="whiteSpace=wrap;html=1;align=center;" parent="1" vertex="1"><mxGeometry x="217.32999999999998" y="1544" width="100" height="40" as="geometry"/></mxCell><mxCell id="cPSNG-HBHzvpX-sI5KWz-41" value="גרפיקה טכנית" style="whiteSpace=wrap;html=1;align=center;" parent="1" vertex="1"><mxGeometry x="500.33" y="1534" width="100" height="40" as="geometry"/></mxCell><mxCell id="cPSNG-HBHzvpX-sI5KWz-42" value="טיפול בחיבורים \ שרת" style="whiteSpace=wrap;html=1;align=center;" parent="1" vertex="1"><mxGeometry x="660.95" y="1669" width="120" height="30" as="geometry"/></mxCell><mxCell id="cPSNG-HBHzvpX-sI5KWz-46" value="מקלדת \ עכבר" style="swimlane;fontStyle=0;childLayout=stackLayout;horizontal=1;startSize=20;fillColor=#ffffff;horizontalStack=0;resizeParent=1;resizeParentMax=0;resizeLast=0;collapsible=0;marginBottom=0;swimlaneFillColor=#ffffff;" parent="1" vertex="1"><mxGeometry x="45.33" y="1659" width="100" height="50" as="geometry"/></mxCell><mxCell id="cPSNG-HBHzvpX-sI5KWz-55" value="תור פעולות" style="shape=process;whiteSpace=wrap;html=1;backgroundOutline=1;size=0.0970873786407767;" parent="1" vertex="1"><mxGeometry x="212.32999999999998" y="1669" width="73" height="30" as="geometry"/></mxCell><mxCell id="cPSNG-HBHzvpX-sI5KWz-57" value="&lt;font style=&quot;font-size: 14px&quot;&gt;&lt;i&gt;הכנסה&lt;/i&gt;&lt;/font&gt;" style="endArrow=classic;html=1;entryX=0;entryY=0.5;entryDx=0;entryDy=0;" parent="1" target="cPSNG-HBHzvpX-sI5KWz-55" edge="1"><mxGeometry width="50" height="50" relative="1" as="geometry"><mxPoint x="145.32999999999998" y="1684" as="sourcePoint"/><mxPoint x="155.32999999999998" y="1744" as="targetPoint"/><Array as="points"/></mxGeometry></mxCell><mxCell id="cPSNG-HBHzvpX-sI5KWz-59" value="&lt;font style=&quot;font-size: 14px&quot;&gt;&lt;i&gt;שליפה&lt;/i&gt;&lt;/font&gt;" style="endArrow=classic;html=1;exitX=1;exitY=0.5;exitDx=0;exitDy=0;entryX=0;entryY=0.5;entryDx=0;entryDy=0;" parent="1" source="cPSNG-HBHzvpX-sI5KWz-55" target="cPSNG-HBHzvpX-sI5KWz-37" edge="1"><mxGeometry width="50" height="50" relative="1" as="geometry"><mxPoint x="670.33" y="1874" as="sourcePoint"/><mxPoint x="720.33" y="1824" as="targetPoint"/><Array as="points"/></mxGeometry></mxCell><mxCell id="cPSNG-HBHzvpX-sI5KWz-60" value="&lt;font style=&quot;font-size: 14px&quot; face=&quot;Garamond&quot;&gt;פקודות הפעלה\כיבוי&lt;/font&gt;" style="endArrow=classic;html=1;exitX=1;exitY=1;exitDx=0;exitDy=0;entryX=0;entryY=0;entryDx=0;entryDy=0;" parent="1" source="cPSNG-HBHzvpX-sI5KWz-39" target="cPSNG-HBHzvpX-sI5KWz-37" edge="1"><mxGeometry width="50" height="50" relative="1" as="geometry"><mxPoint x="670.33" y="1864" as="sourcePoint"/><mxPoint x="720.33" y="1814" as="targetPoint"/></mxGeometry></mxCell><mxCell id="cPSNG-HBHzvpX-sI5KWz-62" value="" style="endArrow=classic;startArrow=classic;html=1;exitX=0.892;exitY=-0.065;exitDx=0;exitDy=0;exitPerimeter=0;entryX=0.25;entryY=1;entryDx=0;entryDy=0;" parent="1" source="cPSNG-HBHzvpX-sI5KWz-37" target="cPSNG-HBHzvpX-sI5KWz-41" edge="1"><mxGeometry width="50" height="50" relative="1" as="geometry"><mxPoint x="410.57" y="1634" as="sourcePoint"/><mxPoint x="460.57" y="1584" as="targetPoint"/></mxGeometry></mxCell><mxCell id="cPSNG-HBHzvpX-sI5KWz-63" value="sample" style="swimlane;fontStyle=0;childLayout=stackLayout;horizontal=1;startSize=20;fillColor=#ffffff;horizontalStack=0;resizeParent=1;resizeParentMax=0;resizeLast=0;collapsible=0;marginBottom=0;swimlaneFillColor=#ffffff;" parent="1" vertex="1"><mxGeometry x="730.95" y="1330" width="50" height="30" as="geometry"/></mxCell><mxCell id="cPSNG-HBHzvpX-sI5KWz-64" value="משאב" style="text;html=1;strokeColor=none;fillColor=none;align=center;verticalAlign=middle;whiteSpace=wrap;rounded=0;" parent="1" vertex="1"><mxGeometry x="734.95" y="1314" width="40" height="20" as="geometry"/></mxCell><mxCell id="cPSNG-HBHzvpX-sI5KWz-65" value="רשת" style="swimlane;fontStyle=0;childLayout=stackLayout;horizontal=1;startSize=20;fillColor=#ffffff;horizontalStack=0;resizeParent=1;resizeParentMax=0;resizeLast=0;collapsible=0;marginBottom=0;swimlaneFillColor=#ffffff;" parent="1" vertex="1"><mxGeometry x="670.95" y="1714" width="100" height="40" as="geometry"/></mxCell><mxCell id="cPSNG-HBHzvpX-sI5KWz-66" value="sample" style="shape=ext;margin=3;double=1;whiteSpace=wrap;html=1;align=center;" parent="1" vertex="1"><mxGeometry x="578.33" y="1329" width="86" height="40" as="geometry"/></mxCell><mxCell id="cPSNG-HBHzvpX-sI5KWz-67" value="מנגנון מרכזי" style="text;html=1;strokeColor=none;fillColor=none;align=center;verticalAlign=middle;whiteSpace=wrap;rounded=0;" parent="1" vertex="1"><mxGeometry x="603.33" y="1304" width="40" height="20" as="geometry"/></mxCell><mxCell id="cPSNG-HBHzvpX-sI5KWz-69" value="sample" style="shape=process;whiteSpace=wrap;html=1;backgroundOutline=1;size=0.0970873786407767;" parent="1" vertex="1"><mxGeometry x="722.46" y="1400" width="73" height="30" as="geometry"/></mxCell><mxCell id="cPSNG-HBHzvpX-sI5KWz-70" value="&lt;div&gt;&lt;span&gt;&lt;font face=&quot;helvetica&quot;&gt;מבנה נתונים תור&lt;/font&gt;&lt;/span&gt;&lt;/div&gt;" style="text;whiteSpace=wrap;html=1;align=center;" parent="1" vertex="1"><mxGeometry x="713.25" y="1379" width="95.41" height="30" as="geometry"/></mxCell><mxCell id="cPSNG-HBHzvpX-sI5KWz-71" value="sample" style="rounded=0;whiteSpace=wrap;html=1;" parent="1" vertex="1"><mxGeometry x="583.33" y="1394" width="74" height="40" as="geometry"/></mxCell><mxCell id="cPSNG-HBHzvpX-sI5KWz-72" value="&lt;div&gt;&lt;span&gt;&lt;font face=&quot;helvetica&quot;&gt;מנגנון&lt;/font&gt;&lt;/span&gt;&lt;/div&gt;" style="text;whiteSpace=wrap;html=1;align=center;" parent="1" vertex="1"><mxGeometry x="603.33" y="1374" width="34" height="30" as="geometry"/></mxCell><mxCell id="cPSNG-HBHzvpX-sI5KWz-76" value="תור פעולות" style="shape=process;whiteSpace=wrap;html=1;backgroundOutline=1;size=0.0970873786407767;" parent="1" vertex="1"><mxGeometry x="558.33" y="1629" width="73" height="30" as="geometry"/></mxCell><mxCell id="cPSNG-HBHzvpX-sI5KWz-77" value="&lt;font style=&quot;font-size: 14px&quot;&gt;&lt;i&gt;הכנסה&lt;/i&gt;&lt;/font&gt;" style="endArrow=classic;html=1;entryX=0;entryY=0.5;entryDx=0;entryDy=0;" parent="1" target="cPSNG-HBHzvpX-sI5KWz-76" edge="1"><mxGeometry width="50" height="50" relative="1" as="geometry"><mxPoint x="480.3300000000001" y="1669" as="sourcePoint"/><mxPoint x="535.33" y="1644" as="targetPoint"/><Array as="points"/></mxGeometry></mxCell><mxCell id="cPSNG-HBHzvpX-sI5KWz-78" value="&lt;font style=&quot;font-size: 14px&quot;&gt;&lt;i&gt;שליפה&lt;/i&gt;&lt;/font&gt;" style="endArrow=classic;html=1;exitX=1;exitY=0.5;exitDx=0;exitDy=0;entryX=0.5;entryY=0;entryDx=0;entryDy=0;" parent="1" source="cPSNG-HBHzvpX-sI5KWz-76" target="cPSNG-HBHzvpX-sI5KWz-42" edge="1"><mxGeometry width="50" height="50" relative="1" as="geometry"><mxPoint x="662.46" y="1654" as="sourcePoint"/><mxPoint x="722.46" y="1654" as="targetPoint"/><Array as="points"/></mxGeometry></mxCell><mxCell id="cPSNG-HBHzvpX-sI5KWz-82" value="&lt;font style=&quot;font-size: 14px&quot;&gt;תקשורת שוטפת&lt;/font&gt;" style="endArrow=classic;startArrow=classic;html=1;exitX=1;exitY=0.5;exitDx=0;exitDy=0;" parent="1" source="cPSNG-HBHzvpX-sI5KWz-37" edge="1"><mxGeometry width="50" height="50" relative="1" as="geometry"><mxPoint x="485.33" y="1684" as="sourcePoint"/><mxPoint x="655.33" y="1684" as="targetPoint"/></mxGeometry></mxCell><mxCell id="cPSNG-HBHzvpX-sI5KWz-85" value="&lt;b&gt;&lt;font style=&quot;font-size: 18px&quot; face=&quot;Lucida Console&quot;&gt;:מחוון&lt;/font&gt;&lt;/b&gt;" style="text;html=1;strokeColor=none;fillColor=none;align=center;verticalAlign=middle;whiteSpace=wrap;rounded=0;" parent="1" vertex="1"><mxGeometry x="760.46" y="1291" width="40" height="20" as="geometry"/></mxCell><mxCell id="cPSNG-HBHzvpX-sI5KWz-86" value="" style="endArrow=classic;html=1;exitX=0.5;exitY=1;exitDx=0;exitDy=0;entryX=0.5;entryY=0;entryDx=0;entryDy=0;" parent="1" source="cPSNG-HBHzvpX-sI5KWz-42" target="cPSNG-HBHzvpX-sI5KWz-65" edge="1"><mxGeometry width="50" height="50" relative="1" as="geometry"><mxPoint x="675.33" y="1624" as="sourcePoint"/><mxPoint x="725.33" y="1574" as="targetPoint"/></mxGeometry></mxCell><mxCell id="XkMyMpnlgj1yEU59YpiB-44" value="" style="shape=image;verticalLabelPosition=bottom;labelBackgroundColor=#ffffff;verticalAlign=top;aspect=fixed;imageAspect=0;image=data:image/png,iVBORw0KGgoAAAANSUhEUgAAAKIAAABTCAYAAAAcPNynAAAFS0lEQVR4Ae2Zz2tdRRTH73/kqqv+Ad25KEJAs7GbFkRpQFpEXaRQLdlEKbaiEQvRhmh/pGK1loaIpoRibQm8FhrQCJF2FQqti1IXR85gaOfHy53HvHu4ZT4DIcw08+6Zz/meuef72sj/48+/t+Xdj6/IK1Pz8tL+2aKfl984I299cEl+G2ztfPxIv9fv3Xf79x2cK4pD92scq7c2R3p+3/64Lzy6jKNR6EvLA9l/eF4+O39Lrq79JRtbj4t+Vm5uydc/DGTynUX5/NsbI+V1/rvfZeLts27/9fUHRXHofo3jwPvn5NjpayPFoX/cJfjcYPrCo+s4Gr0JVYSDzYdFSR8mXhVB7o2kN6iKd9hnlaxPzVyWpeU7ufmXrsHnBNIXHhZxNPrq0lujJMm77dUbVl/3OePQ9AVZvHq3k1hGicMC/IvEwyIvjfZRpa/A3YSoN+2eiZM53GXv5Cm5vbHdiRA1Ru19c4YF+Jw4+sLDIo5Gk7ObkMbxb7kC6DqW3DgswOcIsS88LOJAiAlFWIBPPDZaqikOhBilX9wrfBxvgmGfoQLLGQix8OubMAGA978Og0fMgxsxcTXVdBMljh8tWfBAiBF2Xs0hEoRIi9DpNxp9ahG4EcPyF27EEAk3IjciN2LofEvmfXoFhNWemlvcAKnnhms1xcGrOcw+r+aIiEVBIMQIOz1iiAQh0iPSI5b0hOFeraicYVF5xPHsfzX6lBdezQllUhA+FAseCNFn7mYW4BOPjZZqigMhRunHrIRILAoCIYbU+fomIoIQcc245tD5lsy1onKGReURB665VQMI0UdUEw96RD/3blaTABLHj5YseCDECDuuOUSCEDErmJUScxLu1YrKGRaVRxyYlVYNIEQfUU086BH93LtZTQJIHD9asuCBECPsmJUQCULErGBWQsNRMteKyhkWlUccmJVWDSBEH1FNPOgR/dy7WU0CSBw/WrLggRAj7JiVEAlCxKxgVkrMSbhXKypnWFQecWBWWjWAEH1ENfGgR/Rz72Y1CSBx/GjJggdCjLBjVkIkCBGzglkJDUfJXCsqZ1hUHnFgVlo1gBB9RDXxoEf0c+9mNQkgcfxoyYIHQoywY1ZCJAgRs4JZKTEn4V6tqJxhUXnEgVlp1QBC9BHVxIMe0c+9m9UkgMTxoyULHggxwo5ZCZEgRMwKZiU0HCVzraicYVF5xIFZadUAQvQR1cSDHtHPvZvVJIDE8aMlCx4IMcKOWQmRIETMCmalxJyEe7WicoZF5REHZqVVAwjRR1QTD3pEP/duVpMAEsePlix4IMQIO2YlRIIQMSuYldBwlMy1onKGReURB2alVQMI0UdUEw96RD/3blaTABLHj5YseCDECDtmJUSCEDErmJUScxLu1YrKGRaVRxyYlVYNIEQfUU086BH93LtZTQJIHD9asuCBECPsmJUQCULErGBWQsNRMteKyhkWlUccmJVWDSBEH1FNPOgR/dy7WU0CSBw/WrLggRAj7JiVEImJEPdOnpLbG9u9aIr3TJyUwebDzmJRoDmDOHxKFjya19/7Ri6ubHSW/OvrD2TfwTn/ZENmrx1ZkO9//aOTWIjjmUlR49k3Hs3S8h2ZmrncSfL1wB/O/SKfLKwNkZ6/vPjjuhyd/amTWD76ak1OfPGz/8AhM+LwwVjwaPSRx05fc2LUKin5mub5vfq6n/lyVd48fkmePP3XP9kus0PTF2T605WxtQsah4rw1SMLxLH12HHtIw8nRNWF3oz6CtU+ahw/2nvOzq+OlPwdfc6duyG6f1xx6E346J8nOx+f/Zs4fFRd8vgPcvO/ZC826o0AAAAASUVORK5CYII=;" parent="1" vertex="1"><mxGeometry x="276.48999999999995" y="2940" width="59.69" height="30.58" as="geometry"/></mxCell><mxCell id="XkMyMpnlgj1yEU59YpiB-53" value="Logical Process" style="text;html=1;strokeColor=none;fillColor=none;align=center;verticalAlign=middle;whiteSpace=wrap;rounded=0;shadow=0;" parent="1" vertex="1"><mxGeometry x="393.49" y="3110" width="40" height="20" as="geometry"/></mxCell><mxCell id="XkMyMpnlgj1yEU59YpiB-54" value="keyboard\mouse event handler" style="rounded=1;whiteSpace=wrap;html=1;shadow=0;fillColor=#FFFFFF;" parent="1" vertex="1"><mxGeometry x="147.49" y="3024.7" width="100" height="40" as="geometry"/></mxCell><mxCell id="XkMyMpnlgj1yEU59YpiB-58" value="main thread" style="rounded=1;whiteSpace=wrap;html=1;shadow=0;fillColor=#FFFFFF;" parent="1" vertex="1"><mxGeometry x="371" y="3024.7" width="84" height="25.3" as="geometry"/></mxCell><mxCell id="XkMyMpnlgj1yEU59YpiB-61" value="Input Process" style="text;html=1;strokeColor=none;fillColor=none;align=center;verticalAlign=middle;whiteSpace=wrap;rounded=0;shadow=0;" parent="1" vertex="1"><mxGeometry x="176.49" y="3110" width="40" height="20" as="geometry"/></mxCell><mxCell id="XkMyMpnlgj1yEU59YpiB-63" value="&lt;font style=&quot;font-size: 14px&quot;&gt;enqueue&lt;/font&gt;" style="endArrow=classic;html=1;exitX=0.75;exitY=0;exitDx=0;exitDy=0;entryX=0;entryY=0.5;entryDx=0;entryDy=0;" parent="1" source="XkMyMpnlgj1yEU59YpiB-54" target="XkMyMpnlgj1yEU59YpiB-44" edge="1"><mxGeometry x="0.0255" width="50" height="50" relative="1" as="geometry"><mxPoint x="326.49" y="3000" as="sourcePoint"/><mxPoint x="376.49" y="2950" as="targetPoint"/><Array as="points"><mxPoint x="226.49" y="2970"/></Array><mxPoint as="offset"/></mxGeometry></mxCell><mxCell id="XkMyMpnlgj1yEU59YpiB-64" value="&lt;font style=&quot;font-size: 14px&quot;&gt;dequeue&lt;/font&gt;" style="endArrow=classic;html=1;exitX=1;exitY=0.5;exitDx=0;exitDy=0;entryX=0.5;entryY=0;entryDx=0;entryDy=0;" parent="1" source="XkMyMpnlgj1yEU59YpiB-44" target="XkMyMpnlgj1yEU59YpiB-58" edge="1"><mxGeometry x="-0.177" y="5" width="50" height="50" relative="1" as="geometry"><mxPoint x="326.49" y="3000" as="sourcePoint"/><mxPoint x="376.49" y="2950" as="targetPoint"/><Array as="points"><mxPoint x="371.49" y="2970"/></Array><mxPoint as="offset"/></mxGeometry></mxCell><mxCell id="XkMyMpnlgj1yEU59YpiB-65" value="" style="ellipse;whiteSpace=wrap;html=1;shadow=0;fillColor=#FFFFFF;" parent="1" vertex="1"><mxGeometry x="557.62" y="2990" width="164.38" height="130" as="geometry"/></mxCell><mxCell id="XkMyMpnlgj1yEU59YpiB-67" value="" style="shape=image;verticalLabelPosition=bottom;labelBackgroundColor=#ffffff;verticalAlign=top;aspect=fixed;imageAspect=0;image=data:image/png,iVBORw0KGgoAAAANSUhEUgAAAKIAAABTCAYAAAAcPNynAAAFS0lEQVR4Ae2Zz2tdRRTH73/kqqv+Ad25KEJAs7GbFkRpQFpEXaRQLdlEKbaiEQvRhmh/pGK1loaIpoRibQm8FhrQCJF2FQqti1IXR85gaOfHy53HvHu4ZT4DIcw08+6Zz/meuef72sj/48+/t+Xdj6/IK1Pz8tL+2aKfl984I299cEl+G2ztfPxIv9fv3Xf79x2cK4pD92scq7c2R3p+3/64Lzy6jKNR6EvLA9l/eF4+O39Lrq79JRtbj4t+Vm5uydc/DGTynUX5/NsbI+V1/rvfZeLts27/9fUHRXHofo3jwPvn5NjpayPFoX/cJfjcYPrCo+s4Gr0JVYSDzYdFSR8mXhVB7o2kN6iKd9hnlaxPzVyWpeU7ufmXrsHnBNIXHhZxNPrq0lujJMm77dUbVl/3OePQ9AVZvHq3k1hGicMC/IvEwyIvjfZRpa/A3YSoN+2eiZM53GXv5Cm5vbHdiRA1Ru19c4YF+Jw4+sLDIo5Gk7ObkMbxb7kC6DqW3DgswOcIsS88LOJAiAlFWIBPPDZaqikOhBilX9wrfBxvgmGfoQLLGQix8OubMAGA978Og0fMgxsxcTXVdBMljh8tWfBAiBF2Xs0hEoRIi9DpNxp9ahG4EcPyF27EEAk3IjciN2LofEvmfXoFhNWemlvcAKnnhms1xcGrOcw+r+aIiEVBIMQIOz1iiAQh0iPSI5b0hOFeraicYVF5xPHsfzX6lBdezQllUhA+FAseCNFn7mYW4BOPjZZqigMhRunHrIRILAoCIYbU+fomIoIQcc245tD5lsy1onKGReURB665VQMI0UdUEw96RD/3blaTABLHj5YseCDECDuuOUSCEDErmJUScxLu1YrKGRaVRxyYlVYNIEQfUU086BH93LtZTQJIHD9asuCBECPsmJUQCULErGBWQsNRMteKyhkWlUccmJVWDSBEH1FNPOgR/dy7WU0CSBw/WrLggRAj7JiVEAlCxKxgVkrMSbhXKypnWFQecWBWWjWAEH1ENfGgR/Rz72Y1CSBx/GjJggdCjLBjVkIkCBGzglkJDUfJXCsqZ1hUHnFgVlo1gBB9RDXxoEf0c+9mNQkgcfxoyYIHQoywY1ZCJAgRs4JZKTEn4V6tqJxhUXnEgVlp1QBC9BHVxIMe0c+9m9UkgMTxoyULHggxwo5ZCZEgRMwKZiU0HCVzraicYVF5xIFZadUAQvQR1cSDHtHPvZvVJIDE8aMlCx4IMcKOWQmRIETMCmalxJyEe7WicoZF5REHZqVVAwjRR1QTD3pEP/duVpMAEsePlix4IMQIO2YlRIIQMSuYldBwlMy1onKGReURB2alVQMI0UdUEw96RD/3blaTABLHj5YseCDECDtmJUSCEDErmJUScxLu1YrKGRaVRxyYlVYNIEQfUU086BH93LtZTQJIHD9asuCBECPsmJUQCULErGBWQsNRMteKyhkWlUccmJVWDSBEH1FNPOgR/dy7WU0CSBw/WrLggRAj7JiVEImJEPdOnpLbG9u9aIr3TJyUwebDzmJRoDmDOHxKFjya19/7Ri6ubHSW/OvrD2TfwTn/ZENmrx1ZkO9//aOTWIjjmUlR49k3Hs3S8h2ZmrncSfL1wB/O/SKfLKwNkZ6/vPjjuhyd/amTWD76ak1OfPGz/8AhM+LwwVjwaPSRx05fc2LUKin5mub5vfq6n/lyVd48fkmePP3XP9kus0PTF2T605WxtQsah4rw1SMLxLH12HHtIw8nRNWF3oz6CtU+ahw/2nvOzq+OlPwdfc6duyG6f1xx6E346J8nOx+f/Zs4fFRd8vgPcvO/ZC826o0AAAAASUVORK5CYII=;" parent="1" vertex="1"><mxGeometry x="512.6200000000001" y="2940" width="59.69" height="30.58" as="geometry"/></mxCell><mxCell id="XkMyMpnlgj1yEU59YpiB-68" value="Communication Process" style="text;html=1;strokeColor=none;fillColor=none;align=center;verticalAlign=middle;whiteSpace=wrap;rounded=0;shadow=0;" parent="1" vertex="1"><mxGeometry x="598.62" y="3130" width="92.38" height="20" as="geometry"/></mxCell><mxCell id="XkMyMpnlgj1yEU59YpiB-72" value="&lt;font style=&quot;font-size: 14px&quot;&gt;enqueue&lt;/font&gt;" style="endArrow=classic;html=1;exitX=0.68;exitY=-0.078;exitDx=0;exitDy=0;entryX=0;entryY=0.5;entryDx=0;entryDy=0;exitPerimeter=0;" parent="1" source="XkMyMpnlgj1yEU59YpiB-58" target="XkMyMpnlgj1yEU59YpiB-67" edge="1"><mxGeometry x="0.0255" width="50" height="50" relative="1" as="geometry"><mxPoint x="433.49" y="3024.7" as="sourcePoint"/><mxPoint x="587.49" y="2950" as="targetPoint"/><Array as="points"><mxPoint x="456.49" y="2970"/></Array><mxPoint as="offset"/></mxGeometry></mxCell><mxCell id="XkMyMpnlgj1yEU59YpiB-73" value="&lt;font style=&quot;font-size: 11px&quot;&gt;dequeue/seek&lt;/font&gt;" style="endArrow=classic;html=1;exitX=1;exitY=0.5;exitDx=0;exitDy=0;" parent="1" source="XkMyMpnlgj1yEU59YpiB-67" edge="1"><mxGeometry x="0.1208" y="14" width="50" height="50" relative="1" as="geometry"><mxPoint x="562.62" y="3000" as="sourcePoint"/><mxPoint x="607" y="3000" as="targetPoint"/><Array as="points"><mxPoint x="607.62" y="2970"/></Array><mxPoint as="offset"/></mxGeometry></mxCell><mxCell id="XkMyMpnlgj1yEU59YpiB-76" value="&lt;font style=&quot;font-size: 14px&quot;&gt;key\mouse&lt;br&gt;buffer&lt;/font&gt;" style="rounded=1;whiteSpace=wrap;html=1;shadow=0;fillColor=#F0FFF7;" parent="1" vertex="1"><mxGeometry x="11.999999999999996" y="3024.7" width="80" height="40" as="geometry"/></mxCell><mxCell id="XkMyMpnlgj1yEU59YpiB-77" value="constantly&lt;br&gt;receiving&lt;br&gt;status" style="endArrow=classic;html=1;exitX=1;exitY=0;exitDx=0;exitDy=0;entryX=0;entryY=0;entryDx=0;entryDy=0;" parent="1" source="XkMyMpnlgj1yEU59YpiB-76" target="XkMyMpnlgj1yEU59YpiB-54" edge="1"><mxGeometry x="-0.215" y="20" width="50" height="50" relative="1" as="geometry"><mxPoint x="392" y="3140" as="sourcePoint"/><mxPoint x="442" y="3090" as="targetPoint"/><Array as="points"><mxPoint x="112" y="3010"/></Array><mxPoint x="-8" y="-2" as="offset"/></mxGeometry></mxCell><mxCell id="XkMyMpnlgj1yEU59YpiB-81" value="Flags&lt;br&gt;and&lt;br&gt;Lock" style="endArrow=classic;startArrow=classic;html=1;exitX=1;exitY=0.5;exitDx=0;exitDy=0;" parent="1" edge="1"><mxGeometry x="-0.1008" width="50" height="50" relative="1" as="geometry"><mxPoint x="249.49" y="3044.7" as="sourcePoint"/><mxPoint x="374" y="3045" as="targetPoint"/><Array as="points"><mxPoint x="302" y="3090"/></Array><mxPoint as="offset"/></mxGeometry></mxCell><mxCell id="XkMyMpnlgj1yEU59YpiB-83" value="" style="endArrow=classic;startArrow=classic;html=1;entryX=0;entryY=0.5;entryDx=0;entryDy=0;" parent="1" source="XkMyMpnlgj1yEU59YpiB-58" target="XkMyMpnlgj1yEU59YpiB-112" edge="1"><mxGeometry width="50" height="50" relative="1" as="geometry"><mxPoint x="392" y="3020" as="sourcePoint"/><mxPoint x="572.31" y="3044.7000000000003" as="targetPoint"/></mxGeometry></mxCell><mxCell id="XkMyMpnlgj1yEU59YpiB-84" value="Bidirectional Channel" style="edgeLabel;html=1;align=center;verticalAlign=middle;resizable=0;points=[];" parent="XkMyMpnlgj1yEU59YpiB-83" vertex="1" connectable="0"><mxGeometry x="0.1811" y="1" relative="1" as="geometry"><mxPoint x="-26" y="1" as="offset"/></mxGeometry></mxCell><mxCell id="XkMyMpnlgj1yEU59YpiB-85" value="MP.QUEUE" style="text;html=1;strokeColor=none;fillColor=none;align=center;verticalAlign=middle;whiteSpace=wrap;rounded=0;shadow=0;" parent="1" vertex="1"><mxGeometry x="286.34000000000003" y="2920" width="40" height="20" as="geometry"/></mxCell><mxCell id="XkMyMpnlgj1yEU59YpiB-86" value="MP.QUEUE" style="text;html=1;strokeColor=none;fillColor=none;align=center;verticalAlign=middle;whiteSpace=wrap;rounded=0;shadow=0;" parent="1" vertex="1"><mxGeometry x="522.46" y="2920" width="40" height="20" as="geometry"/></mxCell><mxCell id="XkMyMpnlgj1yEU59YpiB-87" value="&lt;font style=&quot;font-size: 14px&quot;&gt;Network&lt;br&gt;Buffer&lt;/font&gt;" style="rounded=1;whiteSpace=wrap;html=1;shadow=0;fillColor=#F0FFF7;" parent="1" vertex="1"><mxGeometry x="753.14" y="3032.05" width="62.19" height="40" as="geometry"/></mxCell><mxCell id="XkMyMpnlgj1yEU59YpiB-89" value="" style="endArrow=classic;html=1;exitX=1;exitY=0;exitDx=0;exitDy=0;entryX=0.5;entryY=0;entryDx=0;entryDy=0;" parent="1" source="XkMyMpnlgj1yEU59YpiB-65" target="XkMyMpnlgj1yEU59YpiB-87" edge="1"><mxGeometry width="50" height="50" relative="1" as="geometry"><mxPoint x="392" y="2930" as="sourcePoint"/><mxPoint x="442" y="2880" as="targetPoint"/><Array as="points"><mxPoint x="752" y="3007"/></Array></mxGeometry></mxCell><mxCell id="XkMyMpnlgj1yEU59YpiB-90" value="client x&lt;br&gt;handler" style="rounded=1;whiteSpace=wrap;html=1;shadow=0;fillColor=#FFFFFF;" parent="1" vertex="1"><mxGeometry x="576" y="3064.7" width="52" height="30" as="geometry"/></mxCell><mxCell id="XkMyMpnlgj1yEU59YpiB-110" value="&lt;font style=&quot;font-size: 10px&quot;&gt;addresses&lt;br&gt;dictionary&lt;/font&gt;" style="html=1;dashed=0;whitespace=wrap;shadow=0;fillColor=#DFFF94;" parent="1" vertex="1"><mxGeometry x="628.62" y="2999.4" width="49" height="25.3" as="geometry"/></mxCell><mxCell id="XkMyMpnlgj1yEU59YpiB-111" value="client y&lt;br&gt;handler" style="rounded=1;whiteSpace=wrap;html=1;shadow=0;fillColor=#FFFFFF;" parent="1" vertex="1"><mxGeometry x="644" y="3064.7" width="52" height="30" as="geometry"/></mxCell><mxCell id="XkMyMpnlgj1yEU59YpiB-112" value="Server Thread" style="rounded=1;whiteSpace=wrap;html=1;shadow=0;fillColor=#FFFFFF;" parent="1" vertex="1"><mxGeometry x="610" y="3029.7" width="52" height="30" as="geometry"/></mxCell><mxCell id="XkMyMpnlgj1yEU59YpiB-113" value="&lt;font style=&quot;font-size: 10px&quot;&gt;address&lt;br&gt;configuration&lt;br&gt;dictionary&lt;/font&gt;" style="html=1;dashed=0;whitespace=wrap;shadow=0;fillColor=#DFFF94;" parent="1" vertex="1"><mxGeometry x="386" y="3059.7" width="60" height="40" as="geometry"/></mxCell><mxCell id="_8uzG4MN05V8oXmXqjsC-2" value="" style="ellipse;whiteSpace=wrap;html=1;" parent="1" vertex="1"><mxGeometry x="670.62" y="2811.92" width="120" height="80" as="geometry"/></mxCell><mxCell id="_8uzG4MN05V8oXmXqjsC-3" value="" style="rounded=1;whiteSpace=wrap;html=1;" parent="1" vertex="1"><mxGeometry x="700.13" y="2851.92" width="60" height="30" as="geometry"/></mxCell><mxCell id="_8uzG4MN05V8oXmXqjsC-4" value="Process" style="text;html=1;align=center;verticalAlign=middle;resizable=0;points=[];autosize=1;strokeColor=none;" parent="1" vertex="1"><mxGeometry x="700.13" y="2791.92" width="60" height="20" as="geometry"/></mxCell><mxCell id="_8uzG4MN05V8oXmXqjsC-5" value="Thread" style="text;html=1;align=center;verticalAlign=middle;resizable=0;points=[];autosize=1;strokeColor=none;" parent="1" vertex="1"><mxGeometry x="705.13" y="2856.92" width="50" height="20" as="geometry"/></mxCell><mxCell id="_8uzG4MN05V8oXmXqjsC-6" value="&lt;span style=&quot;font-size: 10px&quot;&gt;Asset&lt;/span&gt;" style="html=1;dashed=0;whitespace=wrap;shadow=0;fillColor=#DFFF94;" parent="1" vertex="1"><mxGeometry x="591.62" y="2812.92" width="49" height="25.3" as="geometry"/></mxCell><mxCell id="ew9f5I8vs3_mxuw4Yqn4-2" value="" style="ellipse;whiteSpace=wrap;html=1;shadow=0;fillColor=#FFFFFF;" parent="1" vertex="1"><mxGeometry x="97.14999999999999" y="2480" width="216.51" height="164.7" as="geometry"/></mxCell><mxCell id="ew9f5I8vs3_mxuw4Yqn4-4" value="Logical Process" style="text;html=1;strokeColor=none;fillColor=none;align=center;verticalAlign=middle;whiteSpace=wrap;rounded=0;shadow=0;" parent="1" vertex="1"><mxGeometry x="413.66" y="2650" width="40" height="20" as="geometry"/></mxCell><mxCell id="ew9f5I8vs3_mxuw4Yqn4-7" value="Input Process" style="text;html=1;strokeColor=none;fillColor=none;align=center;verticalAlign=middle;whiteSpace=wrap;rounded=0;shadow=0;" parent="1" vertex="1"><mxGeometry x="188.66000000000003" y="2650" width="40" height="20" as="geometry"/></mxCell><mxCell id="ew9f5I8vs3_mxuw4Yqn4-12" value="Communication Process" style="text;html=1;strokeColor=none;fillColor=none;align=center;verticalAlign=middle;whiteSpace=wrap;rounded=0;shadow=0;" parent="1" vertex="1"><mxGeometry x="619.9" y="2650" width="92.38" height="20" as="geometry"/></mxCell><mxCell id="ew9f5I8vs3_mxuw4Yqn4-32" value="&lt;h1&gt;האם התבצעה פעולה&lt;/h1&gt;&lt;p&gt;האם יש שינוי במיקום העכבר? האם הוקש מקש על המקלדת או שוחרר מקש, אם כן - העבר הודעה&lt;/p&gt;" style="text;html=1;strokeColor=none;fillColor=none;spacing=5;spacingTop=-20;whiteSpace=wrap;overflow=hidden;rounded=0;align=right;" parent="1" vertex="1"><mxGeometry x="121.63999999999999" y="2492.2" width="153.51" height="140.3" as="geometry"/></mxCell><mxCell id="ew9f5I8vs3_mxuw4Yqn4-34" value="&lt;h1&gt;היכן התבצעה הפעולה&lt;/h1&gt;&lt;p&gt;באיזה מהמסכים התבצעה הפעולה? האם צריך להתאים את הפעולה לגודל המסך הבא? האם צריך לבצע שינויים נוספים - אם כן העבר הודעה&lt;/p&gt;" style="text;html=1;strokeColor=none;fillColor=none;spacing=5;spacingTop=-20;whiteSpace=wrap;overflow=hidden;rounded=0;align=right;" parent="1" vertex="1"><mxGeometry x="331.12" y="2492.2" width="190" height="120" as="geometry"/></mxCell><mxCell id="ew9f5I8vs3_mxuw4Yqn4-37" value="" style="ellipse;whiteSpace=wrap;html=1;shadow=0;fillColor=#FFFFFF;" parent="1" vertex="1"><mxGeometry x="555.7199999999999" y="2480" width="216.51" height="164.7" as="geometry"/></mxCell><mxCell id="ew9f5I8vs3_mxuw4Yqn4-38" value="&lt;h1&gt;למי להעביר את הפעולה&lt;/h1&gt;&lt;p&gt;מהן הכתובות אליהן צריך לשלוח את הפקודה? מבצע את הפעולות הנדרשות&lt;/p&gt;" style="text;html=1;strokeColor=none;fillColor=none;spacing=5;spacingTop=-20;whiteSpace=wrap;overflow=hidden;rounded=0;align=right;" parent="1" vertex="1"><mxGeometry x="580.2099999999999" y="2492.2" width="153.51" height="140.3" as="geometry"/></mxCell><mxCell id="ew9f5I8vs3_mxuw4Yqn4-41" value="" style="endArrow=classic;html=1;exitX=0.591;exitY=0.001;exitDx=0;exitDy=0;exitPerimeter=0;" parent="1" source="ew9f5I8vs3_mxuw4Yqn4-2" edge="1"><mxGeometry width="50" height="50" relative="1" as="geometry"><mxPoint x="416.28000000000003" y="2580" as="sourcePoint"/><mxPoint x="356.28000000000003" y="2500" as="targetPoint"/><Array as="points"><mxPoint x="296.28000000000003" y="2470"/></Array></mxGeometry></mxCell><mxCell id="ew9f5I8vs3_mxuw4Yqn4-42" value="" style="endArrow=classic;html=1;exitX=0.704;exitY=0.043;exitDx=0;exitDy=0;exitPerimeter=0;entryX=0.21;entryY=0.071;entryDx=0;entryDy=0;entryPerimeter=0;" parent="1" source="ew9f5I8vs3_mxuw4Yqn4-35" target="ew9f5I8vs3_mxuw4Yqn4-37" edge="1"><mxGeometry width="50" height="50" relative="1" as="geometry"><mxPoint x="472.27740999999986" y="2478.5146999999997" as="sourcePoint"/><mxPoint x="626.28" y="2480" as="targetPoint"/><Array as="points"><mxPoint x="556.28" y="2470"/></Array></mxGeometry></mxCell><mxCell id="ew9f5I8vs3_mxuw4Yqn4-45" value="" style="shape=image;verticalLabelPosition=bottom;labelBackgroundColor=#ffffff;verticalAlign=top;aspect=fixed;imageAspect=0;image=data:image/png,iVBORw0KGgoAAAANSUhEUgAAAgAAAAIACAYAAAD0eNT6AAAABHNCSVQICAgIfAhkiAAAAAlwSFlzAAAOxAAADsQBlSsOGwAAABl0RVh0U29mdHdhcmUAd3d3Lmlua3NjYXBlLm9yZ5vuPBoAACAASURBVHic7N13dBTV3wbw5862NAhJ6CDSe+9NmlSRomIXxYqIXVFEsICISFFEQBQFRf1hBxVEkaL03nsLvSckIWV3MzPvH4gvmLozs3s32edzjucIM/feJ8tm57tT7hWgUKO4XK7uAHppmlZTCOECcFLX9SVer/cbABck5yMiIiIrOZ3Oek6nc6PT6dRz+C/R5XINlp2TiIj8zyY7AAWG3W5vK4RYCuD6XHYLA3CToigxmqYtDFA0IiKSgAVACIiMjCwF4C8AMfnZXwjRUlGUo5qmbfFvMiIikkWRHYD8z+PxDNd1vYSPzcYAiPBHHiIiko8FQOHnEELc62sjIUQpp9N5kz8CERGRfCwACjmHw1EH+Tz1/1+6rre1OA4REQUJFgCFnKIoZYy2FUKUtTILEREFDxYAhZyu604Tzc20JSKiIMYCgIiIKASxACAiIgpBLACIiIhCEAsAIiKiEMQCgIiIKASxACAiIgpBLACIiIhCEAsAIiKiEMQCgIiIKASxACAiIgpBLACIiIhCEAsAIiKiEMQCgIiIKASxACjkhBCZJprbLQtCRERBhQVAIaeq6iWjbYUQUVZmISKi4MECoJATQhguAHRdL29lFiIiCh4sAAo5m82WYKJ5RQCRFkUhIqIgwgKgkMvIyDgKwG2wuc3lcrWxMg8REQUHFgCFnwrgoNHGmqb1tjALEREFCRYAoWGn0YZCiLsBRFiYhYiIggALgBAghPjbRPNYl8v1iGVhiIgoKAjZAcj/nE5nHQA7THRxwePx1ARw3qJIREQkGc8AhACPx7MLwHETXcQ5nc4JVuUhIiL5bLIDUGDYbLbSAMzc0d9AUZQTmqZtsioTERHJw0sAIcLpdNYFsN1kN5kA+nk8nnkWRCIiIol4BiBEqKp61mazdQdgZnY/BUA/RVGOa5q2xaJoREQkAQuAEGK3288BuNtkN4oQoo/dbr9OVdW/YHySISIikoiXAEKLcDqdWwHUs6i/U7quv+H1emcB8FjUJxERBQDPAIQYu91+BMC9FnVXRAjRy2azPaIoShlFUdI0TTsFQLOofyIi8hOeAQhBTqfzRwC3+Kn7dAB7ARwFcMnMaoREVGBk6rqeAiARQLyu6/u8Xu9eAGmSc1EuWACEoPDw8Aqqqu4AUER2FiIqtDQAWwAsEUIsdrvdS8BLhUGFBUCIcjqddwH4n+wcRBQahBDnNU2bA2CW1+vdKDsP8R6AkKWq6g673V4OQBPZWYgoJEQIIZoLIR6z2+1d7Hb7OVVV98kOFcp4BiC0hTkcjt+EEB1kByGi0KPr+hIhxGCPx7NHdpZQxLUAQluG1+vti8vX6YiIAkoI0QnAVqfT+TYAl+w8oYZnAAiRkZGlvF7vQgANZWchopC1UQhxp9vtPig7SKhgAUBXRLtcrnm6rreXHYSIQlaSEOI+t9v9q+wgoYA3AdIVblVV59hstrIAGskOQ0QhKQzAHVxvJDBYANDVMlVV/VlRlENCiC4AnLIDEVHIUYQQve12e7KqqmtkhynMWABQFpqmbXM4HN/oul4NQDXZeYgo5AgAXRVFOcIzAf7DewAoV06n8xYA7wCoLjsLEYWcTCFEH7fbvUB2kMKIBQDlh+J0Ou8A8AqA+rLDEFFISVQUpXFGRka87CCFDQsA8onD4WgC4H5FUe7Wdb2E7DxEFBLWezyetuBaApbiPQDkE03TTmmatlBV1YmKoiwQQhwC4MXlSTyiJccjosKpnM1m01RVXSY7SGHCMwBkpUin01lFUZQSmqZFAYjSdT1Sdigi8i9FURy6rpcGUANAGwBl/TBMhhCintvtPuCHvkMSCwAiIrKUw+FoAOB+IcTDsPbM4HyPx3Ozhf2FNBYARETkL8WcTudQAM8DcFjRoa7rrbxeL+cHsAALACIi8iuHw9FICDEXQAULuvvV4/H0sqCfkMcCgIiI/O6fRcd+BNDaZFc6gLoej2eXBbFCGpcDJiIiv0tNTT3j8XhuBGD29L0A8IAFkUIeCwAiIgqUDIfDcQuAYyb7uQ98jN00FgBERBQwqampp3Vdvw2AaqKbsna73eylhJDHCoqIiAJK07STNputEoCGRvsQQhzlxEDm8AwAEREFnM1mGw4gzWh7IURHC+OEJBYAREQUcOnp6SeEEJ8bba/regsAdgsjhRwWAEREJIWqqrNNNHe5XK6KVmUJRSwAiIhIiszMzLUAEkx0UcOqLKGIBQAREcmiwdy8AJWtChKKWAAQEZE0uq7vNdG2qJVZQg0LACIikkYIcdZE8yKWBQlBLACIiEgaIUSq0ba6rkdYmSXUsAAgIiJpdF2PNNpWCGF4HgFiAUBERBLpul7SRPMUy4KEIBYAREQkjRDC8KN8QohkK7OEGhYAREQkiwKgpYn2h6wKEopYABARkRR2u70FgFgTXeyzKksoYgFARERS2Gy2+0w0d7vd7sOWhQlBLACIiEiGOF3X7zfaWAixFkCmhXlCDgsAIiIKOIfD8SqAKKPtdV1famGckMQCgIiIAsrhcDQRQjxlpg9N0xZblSdUCdkBiIgodERGRpbyer3rAVxnopuTHo+nAgDVolghiWcAiIgoUFxer/dHmDv4A8CX4MHfNBYAREQUCEUcDsd8AK1N9qMD+MKCPCHPLjsAEREVbk6nsx6AbwHUtKC7+R6PZ6cF/YQ8ngEgIiJ/iXY6nWMAbIA1B3/ouj7ain6IZwCIiMhiTqezPoD+AB4BUMzCrud7vd41FvYX0vgUABFZpYjT6aykKEqcruuRuq6Hyw5EAeHQdT1KCFEWl7/ltwFQ3g/jZAgh6rrd7oN+6Dsk8QwAERnhsNvtLRRF6aTr+g1CiFoAygGApmmSo1GgCRGQ75JjefC3Fs8AEFF+Cbvd3k5RlPsB9ANQVHYgChnrPB7PDQA8soMUJjwDQER5cTocjv5CiJcBVJMdhkLORUVR7gIP/pZjAUBEOREOh2OAEOJNmJ+4hciITCHEfRkZGVz1zw9YABBRFk6ns74QYqqu621kZ6GQpeu6PtDj8cyXHaSw4jwARHQ14XK5ngOwngd/kkgXQrzk9Xo/kx2kMONNgER0RTGn0/k5gN6yg1BIy9R1/XGv1/up7CCFHS8BEBEiIiLKZGZmLgRQX3YWCmnJQoj7PB7PL7KDhAKeASAKcS6Xq4qu64sAVJKdhULaJiHEnW63+4DsIKGC9wAQhbCIiIiyuq7/CR78SR4vgHc8Hk9rHvwDi5cAiEJXzD+n/SvKDkKhSdf1pUKIwR6PZ7fsLKGIBQBRaBJOp3MWgHqyg1DoEUKsBDCW1/rlYgFAFIKcTucQ8G5/CqwEIcQcTdNmeTye9bLDEG8CJAo5DoejiRBiNQCH7CxUqGkAtum6vkRRlMVut/tPcDrfoMIzAEShRRFCTIP/Dv6XAOwDcAJAhp/GoODiFUJc0nU9EUAKgEO6ru/zer17cfn9QEGKBQBRCHE4HAMBNLO423gAX+i6/ovX690MQLW4fyLyA14CIAod4Q6H47AQopRF/R0AMMLj8XwHHvSJChyeASAKES6X6xFd1606+I/3eDwjwNP8RAUWzwAQhQa70+k8CKCCyX7cuq4/6vV6Z1sRiojk4RkAohDgcrm66rpu9uCfqmla98zMzBWWhCIiqTgVMFEI0HX9fpNdaEKIO3jwJyo8WAAQFX5RMD/pzxi3273AijBEFBxYABAVci6X6wYA4Sa62O/xeEZZlYeIggMLAKJCTtf1jia7eAmA24osRBQ8WAAQFX7tTLTd4/F45lmWhIiCBgsAosJNAKhtov1MALpFWYgoiLAAICrEwsPDywIoYrS9EILf/okKKc4DQFSI6bpezUTbMx6PZ6+VeYgoePAMAFEhpmlarInmOy0LQkRBhwUAUSGm63qU0bZCiONWZiGi4MICgKhwM1MAcC13okKMBQBRIaYoiuH7fDRNy7QyCxEFFxYAREREIYgFABERUQhiAUBERBSCWAAQERGFoMI0EZANQFHZIYiCia7rhlcBVBQlDECMhXGICoNkAKrsEFYQsgPkgwgPD79O1/Xquq7X0DStJoAaQoiSuDzFaTSASABhUlMSEVGoyACQCiAJQAqAM7qu7wOw22az7RNC7EtPTz8qNWE+BGUBEBYWVllV1c5CiLYAOgEoJzsTERFRfgkhzuu6vgbACl3X//R6vZsQZAtrBU0BYLfbW9lstv66rvcBUFZ2HiIiIgudEELM0zRtttfrXSM7DCC5AAgPDy+vquq9AB4CUF1mFiIiogDZC2COEGK22+0+KCuElALA6XTWAzAEwD24fPMeERFRqNEALNB1/U2v17sh0IMHtABwOByNhBCvAOgX6LGJiIiCla7rfwIYEcjLAwE5CIeFhVXWNG0SgJsDMR4REVEB9bOiKM9kZGTE+3sgf59+d7hcrqd0Xf8OQF0/j0VERFTQ1dB1faDNZnOoqroafpxzwG9nAMLCwjpqmvYReHMfERGREXs0TXs8MzPzL3907o8zADan0/m6ruszAJTwQ/9EREShoLgQ4gGbzRauqupSWDyPgKVnAKKiokq63e4vhRBdrOyXiIgolOm6vszhcNyblpZ20qo+LSsAwsLCblRV9et/puglIiIiC+m6fsZms92VkZGxzIr+LCkAnE7nLQC+BufjJyIi8icPgAc8Hs8csx2ZvgfA5XINBjATgMNsX0RERJQrG4Db7HZ7yj9PCRhm6gyA0+kcBWC4mT6sYrPZEBlVRHYMIiIKVrr5e+guXboETQua1YBHeTye14w2NlwAOJ3OkQBGGG3vK5vNjnr1G6FmrbqoWKkKKlWqgnLlKyA6uhjCIyLhcrkCFYWIiAooXdPgdmdA1TTDfXjcbqSnpyEp+SJOnTiOI0cO40j8Iezbuwu7dm6HqmZamDhPIz0ez+tGGhoqAFwu15O6rk820tYXJUuVRrfuvdGqTTs0adoSERGR/h6SiIgKPR0ejwder9fynlNTU7Fl83qsW7sSixctwPlzZy0f4790XR/s9Xqn+trO5wLA6XTeics3/Cm+ts1f/y507d4Lvfr0Q4uWbWGzca0gIiKyXqaaCXeGGxY/Xv8vTVOxfu0q/DZ/LpYsXgiPx+OXcXB5UaE7PR7P97408qkA+Gd2v4UAnL60y4/wiAj0u/0+PPjwEyhRspTV3RMREWWhqSoy3BnQLbg/IDfnzp3Bl1/MwLwfv0FGRro/hnBrmtY1MzPz7/w2yHcBEBkZWdrj8WwRQlh6dLbZbLjz7gfw+ODnERMTZ2XXREREedI1DenudOiaf4sAAEhMvIAZH0/GT9/P8cfNhKccDkej1NTUM/nZOb8FgOJwOBZaPcNf7Tr1MPz1sahXv5GV3RIREflE13Wkp6f5/UzAFfv27sa7Y17Dju1bLO1X1/WlXq+3C/KxiFC+LrA7nc7XhBAPm052ZVCbHc+9MAyjxkxC6dJlreqWiIjIECEEbDZ7wO7gjyteAjf37gdXWBg2bVwHXTf+VMLVhBCVbDabV1XVPC8F5HkGwG6336AoylJYtHBQmTLl8O7EaWjYqJkV3REREVlGU1VkZKT76bbA7G3dvAEjhj2Hs2dPW9Wlqmla+8zMzJW57ZRXAeBwOp1bANS2IlHDRs0weeosFIuJtaI7IiIiy2VmeuF2uwM6ZmLiBbz43OPYad0lgR0ej6cxgByfdcz1W73T6XwJwN1WJGnZ6gZMmT4bRYpGW9EdERGRXyiKDbquQzMxWZCvwsMj0K17L+zbuwvHjh2xosuSdrs9KbfpgnMsAMLDwyvouv4NLHjkr0fPvnjvgxlwubhWEBERBT+b3Q5VVQN2UyAA2O0O3NjlJhw9Go9DB/db0WVrp9M5OzMzMzm7jTkWAIqifAaggdnRb2h3I8a/Px12O9cKIiKigkEAsNts8KrWzxaYG0VR0K5DZ+zatR3HzZ8JcOq6Xl5V1WwnCMr2HgCHw9FQCLEpp+35Vb9BY8yY+R3CIyLMdENERCSF1+vx5wx+OcrISMczgx/E1i0bzXal67re1Ov1bvrvhmyn8xVCDIfJg3+pUmXw4Udf8OBPREQFlsPhgKL4Zeb7XIWFheOd8VNRvERJs10JIcTL2W3I8lM5nc5aAG4xM5rNZsfYCVM5sx8RERVwAk6nnNVmY2JiMert92Cz2c121c/pdGZ5mi/LPQA2m20igIZmRnrq2Zdxc+/bzHRBREQUFBRFga5p0CyarMcXZcqUgyIUbNywxkw3AkCUqqpz//uX/4qIiCiTmZl5FIDhcqN2nfr4+tsFXMWPiIgKDU1TkZ7ul0V88jX2g/1vxd49u8x043U4HNddvU7ANZcAVFW9FyYO/oqiYNiIt3nwJyKiQkVRbFacijc89svDRpm9F8GRmZl5zzX9Xv0HXdf7m+m93x33oUHDJma6ICIiCkoOh7zH2WvXqY9effqZ6kPX9fuv/vO/lwD+efRvs9GOnU4XFv65FiVKWrpaMBERUdBIT08L6AyBV7tw/hxu6d0RHnPTFDfweDzbgGvPAJj69n9rv3t48CciokJN5qR2ccVLoOfNt5rt5t9j/b8FgBCit9He7HYHHnx4kNlQREREQc1ut8PkNDmmDHho0D8ZDLv5yv8oABAeHn4dgKpGe+vYqSvKlrvOTCAiIqKgJ4SAXeKN7qVKl0Hbdp3MdFEzPDy8HPBPAZCZmXmjmd56973DTHMiIqICw2buG7hpPW7qa6q9qqodgX8KACFER6MdxcYWR9t2hpsTEREVKIrkR91bt+2AYjGxZrr4/wLgyh+M6NytJ1f6IyKikKEIAUXIuw/A4XCgQ8cuZrroBFwuAGIBGL6A37LVDWZCEBERFTiyLwM0bdbKTPOKAIopdru9ptEehBBo2qylmRBEREQFjqLIvQzQpFkrCBNnIRwORw1FCFHdaAfVa9Tmin9ERBRyZCwRfLWYmFhUrmL48A0ANRQhhOEzADVr1TEzOBERUYFk5tu3VapVN3z4hhCihgLAcAlRsZLhqQOIiIgKLCGE9CKgYsXKZprXUACUNjx4pSpmBiciIiqwZF8GuO76SobbCiFKKQCijHZQvnwFw4MTEREVaJKvApg5Buu6XkQBUMRoB0WLRhsenIiIqCATkiuAqCjDh28AMFcAhEdEmBmciIioAJNbAERERhpuK4QoYuoSQGSk4aZEREQFmlDkFgCREcaPwVcuAahGGoeHh8PpdBkenIiIiIxzukwdg8MUACeNtCxR0vDDA0RERCSZIoRYZqRhi5ZtLY5CREREgaJomvYpAN2XRkII9LnlTj9FIiIiIn+ze73eNS6X62Nd1wfmt9Htd/ZHg4ZN/JnLL86eOY0Vy5fg1KkTSEi4AF3TZEfKl6ioIihZsjQaNWmOOnUbyI6TRWLiBaz4eymOHzuCDHcGihcvgfoNmqB+g8bSZ8r6r+Ski1i+fAmOHYlHWnoaihcvgbr1GqJho2bSJ/X4r5SUZKxasQzxhw8iNS0VcXHFUbt2fTRu2gI2yeuR/1daWipWrliGQwf3IzX1EmJiYlGzVl00b9EaNpvcVdP+Kz09HWtW/Y0DB/YiJSUZxaKLoXqN2mjRqi0cDqfseNdwu91Ys/pv7N+3B8nJSShaNBrVqtdEy1bt4DJ3/ddyXq8H69asxN49O3Ex6SKiooqgatUaaNWmPcLDw2XHyyItLRV79+xEUtJFREZGoXKV6oiLKy47VkDZAcDtdj/pdDqjANybV4OevW7DsBGj/R7MSufPncW777yOhQvmQdd9OtkRdKrXqI1XX3sbjZu0kB0FyclJmPTeGPzw7VdQ1cws2ytVrophI94OiiWj09JSMXnSWHzz9efwej1Ztpe/7noMfXUU2ncwtca2JTIyMjB96kTM/vxjuN3uLNtLly6Ll155E1263Swh3bW8Xg9mTJ+MmZ9OQXp6epbtxUuUxPMvjkCvPv0kpLuWqqr4YuZHmD7tfaSmXsqyPSYmDk89+zJuv7O/hHTX0jQN//vyM0ydMgHJSRezbC9aNBpPPDUE99z3UFAU2d99MxsfTnoXCQnns2yLjIzCY48/gwceGhQUhevmTevwyUcfYNXKv7J8btWp2wD3PzgQN/W8RVK6wLryr6GpqvqjzWbbCaAKgLL/3bF2nfp4ZcRoDBz0bNB9U8rNieNH8cB9fbF54zrZUSxx4cI5/PrzD6hYsTKqVjO+EIRZCQnn8ciAO/D3skXQ9ezPpFxMTMCCX39EqTJlUatW3QAn/H8pKcl47KE78ecf86Fp2T/0kpychN/mz0XR6GKo36BxgBP+v/S0NDwx8F78+vMPUNXss166lILfF/4Ch8OJJk3lFYIejxvPPPkQfvjuK2RmZi0AgcuF1+I/f4Pb7Uar1u0CnPD/qWomhjw/CF/NnpFtAQgAGRnp+GvZIiQmJKBd+xsDnPD/aZqGEcOexaeffAi3OyPbfdxuN1YsX4ITJ46iY6duUouA0SNfwZTJ45Cenpbtdq/XgzWrl+Pggb3o3PUmqcePKZPHYcSw53Ak/lC2n1vnzp7Bn3/Mx949O9Hpxh6w23M/e6VqKrQcfk8DZcbHkw23vaYcU1V1l6qqHzudzhkAljw26DnXQ48Orv3CkNcw4KFBqGJu6cGAy8z04vFH7sGhg/tkR7GUpmlY/tef6NylJ2Ji5SzH/OKzA7Fp49o899N1Hcv/WoJ27TujRMlSAUiW1Yhhz2LlimX52nfVymVo3qINypYt799QORjz1qv484/5+dp33dqVqFe/ESqYmA/cjPfGj8Yv877L176bN61DlSrVUbVaDT+nyt7H097HnK9n5WvfHdu3oFSpMqhdp75/Q+Xgyy8+wWczpuRr3717dqFo0Whpl2R//P5rfDjp3Xzte+jgfiiKDc2at/ZzquzN+mwaJr//Tr7OAh8+dACHDu5D95v65LpfQS8Aci0b9x688AYEXjfcu2TzfvoWw195RnYMv+nStScmfjAj4OOuXbMCjwy43ac2rdu0x/RP5/gpUc527tiKu/p196lN3XoN8b/vfvNTopzFHz6IPj3bQfPh3pSqVWvgx1+WBvwb4Jkzp9D9xhbIzPTmu02ZsuXx26LVAb8nICHhPLp1aoaMjOy/TWcnNjYOfyzdGPDr7Kmpl9ClQxOkpCTnu01UVBH8sXQDihQp6sdkWXk8bnTt1AwXzp/Ldxun04U/lm4I+LX2U6dOoHePtj69BwBg8tTP0aFT1xy3e7weeD3Zn1EKlJZNqhluW3DO5Rswb+43siP41ZLFC7O9Puhv837y/XVdvepvnD1z2g9pcvfTD74XHTu2b8Ghg/v9kCZ3P/04x6eDPwAcOLAXO7Zv8VOinM376VufDv4AcOrkcaxft9pPiXK2cMHPPn/wJyRcwPK/F/spUc4W/T7fp4M/cPmS0NLFv/spUc7+/muxTwd/4HLR8MfCX/yUKGc///Stz+8B4PK9DYVZoS0AVFXFti0bZcfwK1VVsW3rpoCPu8nA/RS6rmPzpsDfh2F0TBlZt2xab6zdZmPtzDD8ukq4Fyc/l6qyIyNrQXq/btpg7HU1+u9hxrq1Kw21W7/OWLuCotAWAElJidneQV3YnDlzKuBjnjt7xlC7s2cDfwbAcFYJZyuMvj5nTvM9kJvz584aaleQ3q9S3gPnCs7vltGs6enpSLqYaHGa4FFoCwBFFNof7RoynrFWDC6AISOr0Uvjtjzu/vUHxWBYKVkN3skt5/0aAlntgX+8zqYYG1OxBf6zOT0t+ycU8tU2I+vjrYVFoT1KFo0uFhKrFZYtF/i71UuVzvKUaL6UKVPO4iT5GNPg3fwyspY2OGaZMsb+PcwobXDMMmULUFYJr2sovF9lPWFDWRXaAkBRFDRp2lJ2DL9yuVyoV69RwMdt3qKNz21sNjsaNW7mhzS5M/LIkRACTZu38kOa3Bl5XQGgWXNj7cxobnDMps0C/wiY0cfOmhn89zCjmcH3nYyszVsYe12bSnoMkLIqtAUAgKCY0cufbu7dD+EREQEft98d9/ncpku3nigWE+uHNLm77fZ7fT6t2uaGjlK+UfW97S7Y7Q6f2jRu0gJVqgZ+fo6evW/1eXrXGjXrSHlevVuP3ihaNNqnNtddV1HKgmcdOnVFXPESPrUpUbIUOnQM/AyWLVrdgPLXXe9Tm6LRxdCtey8/JSJfFeoCoH3HLmjXvrPsGH4RExOHJ59+ScrYtevUx6397sn3/hERkXjq2aF+TJSzipWq4N7+j+R7f5fLhReGjPBjopyVKlUGjz7+dL73t9nsGDL0Df8FykVMTByeeGpIvvdXFAVDh43yY6KcRURE4tkXXs33/kIIDB0+Ssq0tU6nC6++NsanNi8NfVPKGgY2mw0jXn/HpzkoXhgyAhERkX5MRb4o1AWAEAKj35kUlAvomFG0aDQmTfkMxUuUlJZh6KtvoXXbDnnuFxERiUlTZqJChYp+z5ST5158FTd26ZHnfi6XC+Pf+1jqFMsDBz2Lm3vnPW++3e7A2+9+gLr1GgYgVfbuHzAQd9x1f5772Ww2vPbmu1Iuq1xx+539MeChQXnuJ4TAS0PflPrFoUvXnnjiyRfzte+Tz7yc52x1/tS6bQe8+PLr+SoCHnxksE9fHMj/ci1xn3rm5Q4Q6BCgLH4RFh6Onr1ug6II7N+3u0A/Gmiz2dG5Sw+898EMVK9RW2oWh8OBHjf1QZEiRbFn944sC8HYbDa0a98Z70/+VOpB6kqWLt1uRlzxEtizewfSUlOv2a4oClq2ugETP5gh/b4RRVHQ6cbuKFu2PPbs3oFLl1Ku2S6EQLPmrTHh/Y/Ruk0HOSGvytKufWdcX7ES9uzZieTkpCz7NGzUFO9OmIZON/o2G6M/tG7THtVr1L68Wl02j3bVrlMfY8dNRY+efSWku1az5q1Rt15D7Nu7O9sFdqpVr4XRYybh1n53S0h3rQYNm6Jx0xY4sH8PzmXzyGWlylXxxsjxuLf/5hpG5wAAIABJREFUwxLSXTZ71sdZfpfy6/4BAxEVVSTbbZwKuADxej3YumUjTp08gYwC9GiHzWZD8RIlUb9+YynX0fOiqip2bN+CY0cPw+12I+6f5YBjJa1TkBtN07Br5zYciT+I9PR0FC9eEnXrNZR6NiUnuq5j964diI8/gLTUVMTFlUCtOvVQ2uBTGP62d89OHD50ACkpyYiLK4GateqgbLnrZMfK1oH9e3Do4H4kJV1ETGwcqteoLfUsVW4OHzqAAwf24mJiAorFxKJq1RqoVLmq7FjZOno0Hvv27kJiwgVERxdD5arVUbWqnPUfrtalQxOcPn3SUNtFyzbm+DtX0KcCDqkCgIiIQg8LgOwV6nsAiIiIKHssAIiIiEIQCwAiIqIQxAKAiIgoBLEAICIiCkEsAIiIiEIQCwAiIqIQxAKAiIgoBLEAICIiCkEsAIiIiEIQCwAiIqIQxAKAiIgoBLEAICIiCkH2//y5mMvlegRAb13X69erVSa6SJGiqF6jNjp06opb+92DokWjZeQkIiIiC/17BsDlcvV2uVz7dV0fp+v6DQCiASAlJRkbN6zBhHdH4uZubbBsyR/SwhIREZE1FABwOp236br+o67rxXPbOTHxAp596iH8uWhBYNIRERGRXyhRUVElAcwAYMtPA1VV8frwF5CQcN6/yYiIiMhvFI/H8ziAYr40Sk66iG//94WfIhEREZG/KQB6GWn417JFFkchIiKiQFEAVDbS8PjxoxZHISIiokBRAMQYaZh0MdHiKERERBQoCgBhpKGu6xZHISIiokDhTIBEREQhiAUAERFRCGIBQEREFIJYABAREYUgFgBEREQh6L+rARZqiYkXsGrFMpw6dRIpKcmy4+Sby+VCXFwJNGnWElWr1pAdJ4uUlGSsXvkXTpw4hrS0VBQvXgINGzVDjZp1ZEfLIi0tFatW/oXjx47g0qUUFC9eEvUbNEbtOvVlR8siPT0da1b9jWPH4pGcdBFxxUuidp36qN+gMYQw9PCO37jdbqxZ/TeOHjmMpIuJiI0rgZq16qBho2ZQlOD6nuH1erBuzUocPnQAFy8mICa2OKpXr4XGTVvAZsvXjOgBo6qZWLd2FQ4d2IfExAuIiYlD5arV0bxFa9hswfXxraoqNm9ch717dyEx4TyKFYtFpcpV0bxlGzgcTtnxKBvB9Q7yk4SE83h/wtv4ee63UFVVdhxT6tVvhGEj3kbdeg1lR0Fq6iVM+WAcvvnf5/B43Fm216xVF68MfwuNm7SQkO5aGRkZmD51Ir784hNkZGRk2V65SjW8Mnw0Wra6QUK6a3m9Hnz2yRR8NmMK0tJSs2yvUKEiXho2Eu07dJGQ7lqqmokvZk7HJ9M/yLaoLlO2PIa8/Dq6dLtZQrpraZqGOV/PwtQPx2c7j0mJkqXw3AvD0atPPwnprqXrOn747itMfv8dJCRcyLI9NjYOTz07FLfdfm9QFIO/zPse708cjbNnTmfZFl0sBoMGv4C7730w6IrBUCecTqfhB/q37zllZRa/OH36JB5+oB+OHjksO4plnE4Xxk38CJ06d5eWITnpIh57+C7s3LE11/1sNjtGj52EnjffGqBkWaWmXsLggf2xccOaXPdTFAXDX38Ht9/ZP0DJssrIyMAzTz6IVSuW5bqfEAJDhr6B/g88Fphg2cjM9OKFZx/Dkj8X5rnvE0++iEFPvhCAVNnTNA3DXn4a83/5Ic997x8wEEOGvuH/UDnQdR1vvTkU387Je72V2+/sjxFvjJVaBEx4dyRmfTYtz/163nwrRo/9QMpZli4dmuD06ZOG2i5athGlS5fNdpvH64HX4zETzbSWTaoZbluoyzFVzcSQ5wYWqoM/AHg8bgx9abDUn+u14c/nefAHLv8bvDbseezbuysAqbL39qhheR78gcsHidEjh2HL5g0BSJW9ieNG5nnwBy4fJMa98wbWrlnh/1A5mPLBuHwd/AFg6ofj872vP8z8dEq+Dv4A8MWs6fh57nd+TpSzb/43K18HfwD47pvZ+OZ/n/s5Uc5+mfd9vg7+ADD/1x8x89Opfk5EvijUBcDCBfOkfpj7U3paGiZPGitl7PXrVmHxot/yvb/H48b7E972Y6Kc7du7y6cPc1XNxHvj3/JjopwdPXLYpw9zXdcx9u3XpMzKefbMaXw+c7pPbd5953Upl+CSLiZi+rT3fWozcdxIuN1ZL2v5W3p6OqZMHu9Tm8mTxmZ7qcjfvF4PJo4f5VObj6e9h4uJCX5KRL4q1AXATz/MkR3Brxb9Pl/KzYzzfvrG5zYrli/B+XNn/ZAmd99/+6XPbTZtXIsj8Yf8kCZ3c3+cA03TfGqzf99u7N613U+JcvbLz9/B6/Xt1OeJ40exacNaPyXK2W8L5iI9Lc2nNhcunM/XmRirLV403+cDZHLSRSz5M/8FuVVW/L3U59/p9PR0LPxtnp8Ska8KbQGgqiq2bimc3/6vUNVMbNuyMeDjbjTwIa7rOjZtDPyH/6aN6wy1y88lA6sZzSrjoLpxvbExC9LrWpCybt603uIkeTP6+mzeGPislL1CWwAkJSVme7d3YWP0xhYzzp3Neqdvfpw5E/ibRrO7Kzk/zpwOfFajr4+U19Xge8BoOzOMvgdkZDX6vjt9KvCfA0ZfHxnvV8peoS0AFFFof7RrKBLuqDV6x7GiyMhqrJ2M11UxGFZIeLTK6ONcBSmrjM8Qw1llvK4GXx8ZWSOjogy3jYoqYmGS4FJoj5JFo4shIiJSdgy/K1OmXMDHLFmqjKF2OT1K40+lyxgbU0bWkqWNva4y3gOlCtB7wOj7tZTB944ZpQy+PqVlfA4YfL8a/RnNMDpmVFQRFgAFkaIoaNxU/gQ0/uR0ulC/QeOAj9useWuf29hsNjRq0swPaXLXpGkrn9sIIdC0WUs/pMmdkdcVgJSsTZv7/roCkrIaHLNZM2M/oxlGs8p5vxac90DbGzoaate6bQdrgwSZQlsAAMBtt98rO4Jf9bz5FilnOYxMlNOpcw/Exhb3Q5rc3XHX/T6fcmzVuh3Kla/gp0Q5u+XWu3ye3rVuvYaoVr2WnxLlrFeffggLC/OpTdVqNdGwUeCLwB49+6JIkaI+tSlb7jq0atPOT4ly1qlzd8QVL+FTm9jYOHTo1M1PiXLWuk0Hn39PoqKKoGv3Xn5KlLOevW5F0ehiPrURQuCuewb4J1CQKNQFwI2de6CNwcov2BUtGo1BT70oZew6dRvg5t75ny41PCICzzz3ih8T5axipSq4464H8r2/0+nCCy+95sdEOStTtjwGPDQo3/vbbHYMfVXOnAWxscXx2KDn8r2/oih4ZfhbUmasi4yMwlPPDvWpzYsvvSZlrn2n04XnXxzhU5shQ9+Ay+XyU6Kc2Ww2vPzKSJ/aPPP8Kz4XY1aIjS2OV14d5dP77867Bxg+K1dQ2Gw22xtGGz/xpJwDUH4JIdC6bQesXvkXLpw/JzuOZSIjo/DBlFlSF9tp1bodtmzZgJMnjue6X1hYGCa8/zEaNGwSoGRZNW/RBnt27chz5kSHw4l3xn2I5i3bBihZVk2bt8ThQwdw8MC+XPez2Wx4fdR4dOjYNUDJsmrYqClOnTqOvXt25rqfEAKvDB+N7j16ByhZVnXrNURi4gXs2L4lz32feX6Y1Omga9SsA4/bg82b8n4k8NGBT6P/gIEBSJW9SpWrwuFw5mtGynvuewiPP/G8tGmLq9eojVKly2DNqr+RmZmZ435CCNx974MY+uqoPM8eqpoKTfL6MjM+nmy4baEuAAAgPDwCPXvdCq/Xi317d+b6Dx/sFEVBmxs64v3Jn6JO3QZSszidTtzUsy+cThf27N6RZdY0IQRatGyL9z6YIX0xILvdjm49eiEqqgh279qOjIz0LPs0btICEyd9gpatA3/a92qKYkPnLjchrngJ7NqxFenpWSewqVe/Ed6dOA0dJZz2vZqiKOh4Y3eUKl0GO3duRVpq1tnoataqi3fHT0M3iQd/4PL7sV37zqhQoSJ27dyOS9lMoFWlanWMfmcSbrn1LgkJr9Wy9Q2oVr0Wdu/chqSki1m2V7i+Et58ayLuvvdBCemu1aRpC9St1xB7du9AYjaTGJUpWx7DXx+Dhx55UvrCRbVq10OPnn2Rmani9Knj1/x+RUREol2Hznh95DjccdcD+bp0WNALgEK/GNDVMjIysHH9apw8eRwpyUmy4+SbKywcJUuWQsNGzVCiZCnZcbLwej3YvGk9jh87gvS0NBQvURINGjWVcsd3XlQ1E5s3rsex40eQmpKCuOIlUL9BYynX/PNyZTKro0fikZKShNi44qhXvzEqVKgoO1oWmqZh29ZNOBJ/CMnJFxEbG4fadRqgUuWqsqNloes6du7YikMH9yMpKRExMbGoUbOOlHsp8mPXzu04eGAvLl5MQLFisaharQZq1a4nO1a29u/bjb17diIxMQHR0TGoXKUa6tRtIP3An5MzZ04h4cJ5FClSFGXKlvP5sk9BXwwopAoAIiIiqxT0AqBQ3wRIRERE2WMBQEREFIJYABAREYUgFgBEREQhiAUAERFRCGIBQEREFIJYABAREYUgFgBEREQhiAUAERFRCGIBQEREFIJYABAREYUgFgBEREQhiAUAERFRCGIBQEREFIJYABAREYUgFgBEREQhiAUAERFRCGIBQEREFIJYABAREYUgFgBEREQhiAUAERFRCGIBQEREFILssgOQf3m9HuzbuxuHDu7HyZPHcfFiAtwZGQAAV1gYikXHoEzZ8qhUuSqq16gNl8slOTER+Ut6ejr27d2F+MMHcfLEMSQlX4TH7QYAhIdHoFhMLMqUKYsqVWugWvWasNsdkhOTP7EAKIROnjiGhQvmYcXypdi8aT0yM735ame3O1C/QWO0bdcJ3Xr0RoUKFf0blIj87vChA/j9t5+xYvkS7Ni+Faqama92TqcLjRo3ww3tb0T3m/qgVKkyfk5KgSacTqdutPH2PaeszEImrVy+FJ/NmIIN61dD0zRTfQkh0KRpSzzw4ONo37ELhBAWpSQif9M0DYsXLcAXs6Zjy+YNpvtTFAUtW7fDw48+ieYt2liQsHDweD3wejxSM7RsUs1wWxYAhcCO7Vsw5q1XsW3rJr/0X7tOPbw8bBQaN2nhl/6JyDrr1q7EmLeG48D+PX7pv0nTlhj66ijUrFXXL/0XJCwASBqv14P3xo/GV7NnmP7GnxchBG6/sz+GDH0TYWFhfh2LiHyXlpaKMW+9irk/fuP3sWw2GwY89ASefGZISN8nwAKApDh/7iyeHHQ/du7YGtBxq1ariSkffYGy5a4L6LhW8Xjc2LB+DY7EH0J6WqrsOBQEisXEolr1Wqhbr2GBvdR19Gg8Bg+8D/GHDwZ03IaNmmLSlFmIjY0L6LjBggUABVz84YN47OG7cOrkcSnjFy9REh998jVq1KwjZXwjPB43Zn46DbM+nYpLl1Jkx6EgVP666/H8kBHo0rWn7Cg+2bF9CwYP7I+EhPNSxr/uuor4+LM5KH/d9VLGl4kFAAXUmTOn0P/u3tIO/lfExhbHrC9/QqXKVaXmyI/09HQ8/cQDWLN6uewoVAAMHPQsnnzmZdkx8uXAgb0YcN8tSLqYKDVH6dJlMXvOLyhduqzUHIFW0AsATgRUgKSnp2PQo/dKP/gDQELCeQwe2B8pKcmyo+Tp3TGv8eBP+TZ92vv4bf5c2THydDExAU88eq/0gz8AnD59Es8MHgCPxy07CvmABUABMuatV7F/327ZMf517Fg8Xh/+guwYuTqwfw9++O4r2TGogBn/7pv5nj9DBl3X8erQZ3Dq1AnZUf61a+d2jHvnDdkxyAcsAAqIdWtX4qcf/ic7RhaLfv8Vixf9JjtGjr7/7ivouuGrXBSizp45jZUrlsmOkaMF83/C33/9KTtGFt/873OsX7dKdgzKJxYABYCmaRjz1nDZMXI0dsxrQXvqb9OGtbIjUAG1cf0a2RGylZ6ejonjRsmOkS1d1/HumNdZdBcQLAAKgMWLFvhtUg8rnDp5HD/P/U52jGydPnVSdgQqoE6fDs73ztwf5+DsmdOyY+Roz+4d+GvpItkxKB9YABQAX8yaLjtCnoI1Y0F9rpvkEwi+946u60H7u3a1gpCRWAAEvWPH4i2Zy/tqEeFhiIwIt7TPw4cOYMf2LZb2aYVSpbmACRkTjO+drVs24PixI5b2GRkRhohwa2f33LB+dVA8rUS5YwEQ5BYt/NWSfrp2aINvPpmIU9v/RuK+VUjYthDntizAjx+PQZ+uN0BRzL8V/lj4iwVJrdW4SXPZEaiAatKspewIWfxuwe+Yoijo2+NG/DRrMs7vXIaELQuQuHUBTq79CXMmv4HObZqaHkPXdfzxuzWfXeQ/LACC3Nq1K021jylWFD/O/AC/fDkVfXvciNiYaEDYAMWOolGR6NmpNb6d+hZ+n/0eSpcwN53n2jUrTLX3h3533MfLAOSzkqVKo03bDrJjZLF+rbk77MuUKoHfv/kE33wyETd1boci0TGAcnlV+LiYaNzSrR3mz3wX308bhZjoIqbGWrs6+D4P6FosAIKYqqrYtmWj4fYR4WH4efZU9OzSPutGm+uaP7Zr0RALZ0809Uu/d88upAXZ/PpVq9XELbfdLTsGFTBDXn4j6Ba5SUlJNnUzcFxMMfz+zSdo1+o/3/Dtziz79rqxDeZ9MgbhYa4s2/Jr69aNfl+kjMxhARDEzpw+aWre+peefBjNG9XLfuM/Vf/ValWtiJEvPGp4PFXNxOFDBwy395ehw0ZxDXPKt4FPPIfuN/WRHSOLQwf3Q1VVw+1HDX0aNapWyrpByVoAAECLhrXx4qN3GR4vOekizp4N3qcVCMh6FCC/OHBgL7Zv3YTt2zYjPv4gLpw/h4SECwCAqKgiiIyMQsVKVVCxUhU0btICTZq2xMkTxm+icTodeOLBXL75CgEIBdCvrdAfvKMnXpvwCRKTjBUex48dQY2atbF543ps3LAGhw7tx5H4g0hOTkZaaipUTUVsbBzi4kqgwvWVUKduAzRo2ATVa9T226n68IgITPvkK3z2yRTM+mwaUlMv+WUcKtjKla+AF156ze+LAem6jr17dmLrlg3YuWMbjh2Nx4UL53DhwnnYbXZEREaiaNGiqFixKipXqYYmTVuiUZNmOHnimOEx42KK4YE7+2a/UbFd/jzI5tn9Jx+4DWM/+hoer7FZEY8djUdMTBw2rl+NTRvX4vDhgzgSfwipqZf+/XITF1ccsXHFUbFiFdSr3wgNGjZF5SrG57en/ONiQH507Fg85v30LX6bPxdHjxz2qW14RATKlb0OBw7sNTR2+9bN8Me3M3LfyZsKqFl/se99+g18v2CpoXErVqqCC+fP+bxGQJmy5dH9pj7oe8udfv3ld7vd2LBuFY4cOYwL588i08Q3Kir4wlxhKFGyFKrXqI169Rv59X6RAwf24uefvsXCBfN8nsK3SJGiiCtewvByv3f06Y7ZU8bmvENGEqBlZrupy33P4e91xpYdr1q1Bk6cPIb0tDSf2lWsVAXdb+qDPn3vCOpVBgv6YkA8A+AHBw7sxYyPPsDC3+YZPmWXnpZm+OAPANeXz8+qXNl/2F1fvrThcY1+QJ06eRwzZ0zB559NQ8cbu+Gxx59F7Tr1DefIicvlQpsbOqLNDR0t75soOzu2b8HHH72PZUv+MDxDXkpKsqmFtyqUy+ORxlwKn+vLlQZgrAAw+hkWf/ggPpoyEZ989AF69OyLRx57ClWqVjfUF+WM9wBYKD0tDePeeQP9+nTG/F9/NHW9zqzoolGG25q9+9cMTdOweNFvuKtfd4x8/SUkJ12UloXIjOSki3h9+Au4546bsHTx71Knxy0WXTSPPXIuAIqZ+CwxS1Uz8evP3+O2PjdiwrsjkZ6eLi1LYcQCwCI7tm9B314d8MWs6VDV7E+lBVJBf/RN13V8981s9O7ZDutMPgpJFGhrVi9H75tuwI/ff13g58UPhs8SVc3ErM+m4ZZeHbBr5zbZcQoNFgAW+PH7rzHgvr6mbtKh7F04fw6PPXQXPp/5kewoRPkyc8YUPP7I3bhw4bzsKIXOieNHcf89vTHvp29lRykUTBUAbndwrgAXSLM+m4bXh7/A18KPVDUT48e+ybXGKei9P+FtTBz/ltTLf4Wd2+3G8FeewYyPJ8uOAkg+ueN2Z5hqb6oASE01/ox6YTBzxhRMeHek7Bgh44tZ04N2GVSid8e8jk8/CYKDUoiYNPFt6YsOyb68k+bj0xX/ZaoA8PXRjsJkyZ8L8d6E0bJjhJyZn07Fd9/Mlh2D6Bpzvp6J2Z9/LDtGyBk/9k0sCuE1B1JNTBQHmCwAkpKSTA1eUB08sA/DXn5KevUXqt4ZPQJbTUyRTGSlzZvW4d0xb8iOEZJ0Xcdrrz5v+PFj0+ND7lTHZh4NBUwWAMePxZsavCDSNA1vjHiBs8lJ5PG48erQp3nfBUnn8bjx2qvPw+uVOxlMKLt0KQWvDn1ayroDuuSlDswuDW2qADgsqeqS6ds5n2PL5g2yY4S8I/GH8NknH8qOQSHu448mSfv2Sf9v29ZN+P7bLwM+ri65Ajji4wyz/2WqAAi1N356WhqmTp4gOwb947MZH/67ngJRoF24cB6zPp0qOwb9Y8oH4wI7UZCuS78MfExmAbB7V2hNyPDj918jMZEHnGCRkZGBr774RHYMClGzZ33My1BBJCHhPOb+OCdg46lBsNTxnj07TbU3VQAcOrgfF86fMxWgoNB1HZ9LfuSEsprzv8/5IUwBl5GRgW/nfC47Bv3HF7OmB+xbuSb52//5c2dxJP6QqT5MLQak6zrWrl2Bm3reYipEQbB1y0acOml8ed4rnE4Hbu7SAe2b18d1ZYpDUQROn03AivVbMW/RcqRcKlyPVoaHhaF39464oWldlCsVBwA4eeYclq/bip8XrUBaurmJLJKTLmL1yr/QoVNXK+IS5cvK5UtN34ENAJER4ejdvRNuaFIbZYrHAACOnz6Lv9duxS+LVyLDXbhuLiwSFYm+PW5E2ya1Uap4MWiajmMnz2DZms2Yv3iV4WWHrzh+7Ah2bN+CevUbWZQ4Z7rkKd83rF9tug/TqwGuWbU8JAqAP/+Yb7qPfr26YcKbL6F0yeKXl970/P+TBA/e0RMTUy5h5PszMeWLH6RfW7LCA3f2xehhz6BEXGyWn/eRu3rjQmISRkz4BJ/O+cXUOIv++JUFAAXUIgs+Dx7tfztGvvQUYmOiAdUDuP//me7H7u6NcwkX8crY6Zj90++mx5JNCIGnHrkXw597HNFFiwCaB/D8/5edx++7BafOXsALoz7AD78tMzXWot9/DUgBkCn5EsD6datM92F6LYDFixaExClYswvSDH36UXw17d3LB38AUOyAsF2zT3SRKEwY8RSmj3kpKBbgMGPM8Ofw8YQ3Lx/8gX9+3mvfbnEx0Zj61ouY+NrTpsZas3q5qfZEvlq7xtx77v23XsGHY4ZfPvgDgM2Z5fejRGwxzBj7Mka/+JipsWQTQuCTiSMx7vUhlw/+AKA4sixBXKZkHL6e/CZeHnSfqfHWrllhqn1+aLoGXWIB4HZn4K+li0z3Y7oASE5Owl9L/zAdJJh5vR4c2G9sXWsA6NqhDd586cmsG2yObPd/oN9NGHhvH8PjyXZ77254/vEBWTfk8PMOvv823Nu3m+Hxzp45zYVXKGAunD+H8+fOGm5//x19MGjAXVk32JzZ7v/iY3fh1u7tDY8n2xMP3o3+t/f+z9+Ky0VANka+8Cg6t21meLwD+/ciM9PcpYS8aJLXelj+12JcMjkLIGDRaoA/z/3Oim6C1sED+0xN9PHWK89kv0HJ+QrMa888BJcz+1+QYCaEwKihOXyjz+XnHfXio1AU42/HvSbvhiXKrz27dxhua7PZsv8yAAC2nH8/Rr/4aIE8K+hyOjHi+UHZb1Rs2f89gNEvDTQ8psfjxqGD+w23z4/MTLnX/xf8+pMl/VhSAKxYvqRQzwlg5kmHqpUqoEGdGtlvzOWAFxcTjfYt/X8dy2qN6tVCpQrls98ocv55y5UugRYNaxse99zZM4bbEvninIlv/y2bNEDZ0iWz35hLgVy5Qlk0qFXV8LiydGzbHDHFima/UeRcADSsXQ1Vri9neFwzZ2jyous6NE3eGYAj8Ycsu+xpSQGgqmqhnpXtYlKi4bZ1auT2S6sAyLmqr1ujsuFxZalbs1rOG3MpAABzP29KcmiuS0GBl5x80XDbXH8/8vg4rlujkuFxZTHzeVCnuvGfNynJ+L9RXjIzvZB5j/bnMz+ybNpjSwoAAPjl5x8seUwuGKWlphpuWzwuJvcdcjmrVzKvtkEoLqZYLlsFcvuBS5j4ea24HkaUH2Y+D+Jio3PemMcZ/hKxuf1uBadcP//y+HlLXrmB2AB/fh7IPP1/8sQx/P6buaemrmZZAZCZ6cWk996xqrugYuZ0jz2X63oAgFwqSZst51NkwcpuzyOzyPkHtpm4B0CTvSoHhQwz7zVbLte9oed+RLQXwM+DXH/ePCqAPD9LcuGvU/SqqkpZdOiKqR9OgGrh/AOWFQAAMP+XH0w/LkdERBSMPBJXfVy/bpUl89FczdICAABGvv4SPJ7CPy8AERGFDlVVpT3+5/V6MX7sm5b3a3kBcCT+EKZMHm91t0RERNKYeRTcrI+mTDA97392LC8AAGDmjClYtqRwTw5EREShQVVVqJK+/a9a+Re+/vIzv/TtlwJA13W89urzOH36pD+6JyIiCghdB9ySLmufOX0Kb742xG9rw/ilAACAxMQLGPTIPUi6aPwZeiIiIpm8XreUef8vXUrBi8895tdjqN8KAAA4cGAvBj/eH+lphWuJWyIiKvxUVYPXG/jn/t3uDLzw7GPYv2+PX8fxawEAAFu3bMQLzz6GjAxz674TEREFktuTgVwna/HHmO4MDH1xMLahWg6iAAAgAElEQVRu3uD3sfxeAADA8r8X4+EHbsPFxIRADEdERGRKhjvwp/6Tk5Pw9OAHsXrV3wEZLyAFAABs27oJDz3QjzcGEhFRUPN6vVD9vKTwf50+dRKPP3J3QL75XxGwAgAA9u/bjdtv6YK///ozkMMSERHli6qqAZ/MbuXypXjgvr5+X8b4vwJaAADAxcQEPPn4/Zg4bpTUiRWIiIiupqoq3BnpARvP4/Hgg/fG4MXnBkp5Yi7gBQBweZ6AmZ9ORd+e7bFqxTIZEYiIiP6laSrc7oyA3fK3ccNaPHBvH3z95Wd+e84/L1IKgCuOHo3HwEfuxpDnH8fxY0dkRiEiohClqioyMjICciA+fuwIXn35aQweeB8OHzrg9/Fyk8datYGxcME8/LHwF3Tu2hNPPPkiqlStLjsSERGFADVThduTDn8f+w8fOoAvZk3HHwt/tXRJXzOCogAAAE3T8MfCX/DnH/PRqk179OrTDzd2vglhYWGyoxERUSHk9Xovz/Tnp4N/RkY6li1dhN/mz8X6tSuhSZhRMDd2AG4ALtlBrtA0DSuXL8XK5UsRFVUEHTp1Q6vW7dCiVVuUKlVGdjwiIirgdOjwuN3IzLT+m/jZM6ewft1qrF+7En//vRhpqamWj2GRDDuASwiiAuBqly6l4Nefv8evP38PAKhwfSXUql0PFStWRqUq1VC+/PWIji6GiIhIhEdEoEiRopITExFRMFNVDR53OjSDX/svXUpBenoa0tLSkJKchOPHj+JI/EEcPRKPfXt34djReGsD+4kQ4pIdQCqAOCMd9Br0NH79aHLA7mA8euQwjh45HJCxqGCZ9uEETPtwguwYRBQE3nrzFbz15iuyY/iVEAI3P/4Ufpn2gaH2uq6nKgAMr9TT9pbb8ez0WbA7HEa7ICIiIh/Y7HY8MekjtOlzm5luUhQAyUZbJ54+hXb97sKwr39EWGSkmSBERESUh/DIKAyfMxed7xuAhDOnzHSVogAw/AD+6fhDAIBGN3bF6PlLUKpiJTNhiIiIKAelK1bG6AVL0LBTFwDA6UMHzXR3RAFguIfDO7b9+/+V6zfExL/WobW5UxJERET0H8163IxxS1ahUr0G//7doW1bzHS5X9F13XABEH9VAQAAEUWK4sXPvsKAUWN5XwAREZFJdocDD40eh1e+/B5RxWKu2Xb4P8dgX+i6fkix2WyG5yI8tnc3UpMuXvN3Qgj0Gfwsxi1ZjRrNWhgOR0REFMpqNm+F8UvXoNegpyGEuGZb0vlzOGli9UBd1w8oNpttt9EONFXF9uXLst1WsU49jPltGR4bNwmRRaONDkFERBRSIqOLYeD4yXh7wRJcX7tutvts+2sJdOMzC+qZmZm7ldTU1DMADJ8F2LL0zxy3CUVBj4cfx+S129C5/4O8LEBERJQDu8OBrg88jA/XbkP3hx6DUHJer2/zkkVmhtoD4MKV3lca7WXNL3Oh5jGdYkyp0hg86SNM3bALXQc8Aps9aJYgICIikkooClr3uQ0frN6CQe9NRbGSpXLdP9PjwYbfFxgfT4jlwD/LAeu6brgASDp/DluXLc7XviWuq4BBE6fgg9Vb0PWBhxEeGWV0WCIiogItPKoIug54BFPWbceQmV+jTOWq+Wq3/vf5SEm4YHhcTdNWAv8UAEIIwwUAACz932yf9i9bpRoGvTcVn+6Ox6CJU1ClYWMzwxMRERUY1Ro3vXwM3HUYgyZOyfeB/wpfj7n/ZbPZlgP/LAfs8Xh2OZ3OAwB8S/GPNb/OxfkTx1G8XHmf2l2pfroOeATxO7dj/W+/YsMfC7B/0wYzNzcQEREFDaEoqN6kGZp2vQnNetyc4419+XHy4H5s+OM3M3F2ZGRkHAb+KQD+8QOAl430lun14uepk/DQ6HGGE1WsUw8V69TD7S++gqTz57Bp0ULsWr0CB7duxrE9u5Dp9Rrum4iIKFDsDgcq1KqDyg0aoXartmjcuRuii5ewpO+5kyea/YL83ZX/+bcA0HX9eyGEoQIAAP6cPRO3PfeSJT9kdPES6Hh3f3S8uz8AwOt248iuHTi0bQsunDyOhFMnkXjmNC6cOomzR+KRlmJ4OQMiIiKfRRQpipLXV0RcmbKIKVUasWXKIq5seVRp0AjX164Lu9Np+Zjnjh3Fsm++MtvN91f+598CwOv1bnA6nYcAVDbSY/qlFMx5ZyQGjp9sNlwWDpcLVRs1QdVGTa75+0sXE/FChxYsAAh3vjwcd708QnYMCgFzxo7CN2Pfkh2DJAsvUgQj5y5Ekdi4gI35xRvD4HW7zXSx0+Px7Lryh/8+ZGjqzoI/Pv8UR3fvNNOFT6Y9Nxhnjxpey4iIiMiQCydP4OMhzwRsvL3r1mDl3O/z3jEXQojPr/7zNQWA3W6fDsBjtHNNVTH12UHQVNVoF/m26c/fsWreD34fh4iIKDsrfvoOW8xNyJMvXrcbU58dBF3XzXST6na7Z1z9F9cUAGlpaadw1Q0CRuxdvxbzPnzPTBd50jUNX7wxzK9jENH/tXefYVIUWx/A/zWhZwM5g3jNAUVEgoIBAVEwIF4FX3POqCiIIgoShAsoIIgYyEoWlYwEJYhkEJS4kiTnhU0zXd3T9X7YRXF30nZ176Tzex6+7HafKnZnu09XV50ihIQz5v23bV+1NrFvD+zbvjX8gSEUPP1nnvu1InUGhRDSL/En9euFXRs3yIYJasXM7/HX1s22xSeEEEIisW/7VqyeO9O2+H/8sgQzhw+RDSMC3duLJACapq1mjC2VaUlTVfR74kGcOXFcJkxQ80Z+YUtcQgghpLjmfDXclrgnDuzHwGcfs+K1+gzO+fbCXwxYlN8wjHcYYysBsEDfj8SJA/vx0dOP4INps+H2eMyGKeLwnl3YunK5JbE8ioKGdWvh/OpV4HQ4cOT4KazeuAXZOXmWxCeEEBIbypQuhRvq1kLVShXgNwzsO3gUazdtA7egxsyWX5fhyN7dqHahqUV0AXlzc6x6kNYBBHxnHjAB0DRttaIo3wFoK9Pqll+XYeDzj+PtMZPgcDplQv1tzZyZshMhUKlCebzf8SU83u5elEpxA1ru39/TdT+mL1iGnp+MQsbu/bLdJYQQEkVXXHoRPnjrFbRpdRtc4ID+zzK67Jw8fP39PPT5dBxOZp4x3YYQAmvnzUbrl1+3osvgPh/+98gDlrxKZ4yNVlV1W6DvBd1rkDH2HgDp1Gj17BkY9vqLlq0MkNwCEdddUwvrF03Dy089hFLpaYDTDbB/fgwulxNt72qG1TNG4oE7m0r2lhBCSLS0bd0Sq3+cjAfuuQMulxNw/ns0unSpNLR/4gGsnzMGda+6TKqtDT8tkDr/LE1V8dHTD+OPX5ZYES7X6XT2CPbNoAmAqqoZQoihVvRg8aRv8NHTj4D7fFJxhGFg54Z1ps+vUa0KZk/4HNWqVPr3N5zuIsempaZg3OBuuLnhtabbI4QQEh23NKqPsUP7IjUl5Z8vMgfAig58V69SEbPHfIxqlc0X9flz/Vrp1QB52Vno1a611Fa/hXxYsLovoKAJAABomtYNwJ9W9GLV7Ono1a611BaGJw4eQG6W+WGaD9/tgEoVyhf9hiPgmxC4XS4M6fEGGDM9FYIQQkgJY4xhSJ+ucLsDXNudga/3lSuWQ++3njfdZu6Z0zh56KDp808eOohurW/H5uVSc/DPtZZz/nGoA0ImAAC8hmE8A8CSRY5bfl2GTs0a4U+TT/FH9+013Xap9DQ8cM/tgb/Jgs9PqH3FxWhQ50rT7RJCCClZDevWxtVXBNnc1hH8et/u7uZIT0s13a7Ze9TvS39Gp6Y3YPfvG023XYgK4GnkTwAMKlwCAF3XlwshhlnVq+P79+G9u5tjxmefFHtegMzoQf1rr0ZKsNUIzIFQCx5ualDHdLuEEEJK1k3X1wvx3eC3vdQUD+pfc4XpdrNOnijW8ZqqYkKfD9Cz7T1WL5vvxTkPW5c/bAIAAJqmvQPA/Mv3wvFUFWO7vYN372xarOpGvtzc8AcFUb2q+V0Ka1StFP4gQgghMaHIPK9zhXmlW72K+XkAxblHZaxbg7eaNcK0gf2sLp+/gHPeP5IDI0oAAPicTuf9jDFLU5SMdWvQ6dbr8XnH9sg8eiTs8X495GhGSKkpYWoRhPhQpHis39aREEKIPVLCXe9DSEtNCX9QEP4IagqcOHgAn3dsX+wH4Aj9xTl/FEBEGUWkCQC8Xu9+xthDCPNOobh0TcOCsSPRvsHV+LpHV5w4eMDK8IQQQkjUHd69E1917oBXGlyFBWNH2rFpXp4Q4j4AEb+HiDgBAACfz/czY+zNYncrAt7cHPwwdCBernclBj73ODYuXlQiuwoSQgghdtA5x9of56Dvow+g/fXXYN6oL6CpavgTi88A8LSmacWaRRh4PUQIqqoOUxSlPIBexT03ErqmYfn3U7H8+6koW6kybrz3flzbrAWuvukWO5ojhBBCLJN96iQ2/7oMGxbNx6pZ05FzOjP8SXKEEOJFTdOmFvfEYicAAMA5760oShkAb5k5P1JnThzHvNFfYt7oL8EcDpSpSJPxCCGExKbxvbth+Juv2L498LkYYx055yPNnGsqAQAAzvnbHo8nTQjxitkYxSEMA2eOHyuJpkgcmtL/Q0zp/2G0u0FKQOnyFVCxxnmoc2tz3PHkszjvMvPLtgixkl074IbQVVXVT8yeXKw5AIUIVVXbA+ghEYMQQoolO/MU9m75AzOHD8EbN9fH1AF9ot0lQkqaLoR4gXP+P5kgMgkAAIBz3lMI8SwsXh1ACCHh6JqGSf16YUKfD6LdFUJKSi5j7D5N00bIBpJOAABA07TRjLF7AZy2Ih4hhBTHd4MHIGPdmmh3gxC7HRJCNFNVdY4VwSxJAABAVdV5DoejHgD6KySElChhGPh+aMh9TwiJd/M453U1TVtrVUDLEgAA8Pl8ezjnNwHoCYs2ECKEkEj8tmi+9JbjhMQgHUBPzvk9ACydZWhpAlBA55z3YIzdCWC3DfEJIaQI7vPh0C5Ldi8nJFZsFELcyDnvARseqk0vAwxHVdUFAGoritIVQGcA5oszE0JIBHZt/G3iRVdfs9/ONg7+mXEzgJvsbIMkvWzGWHdVVYfBxgn2tiUABbyc824ej2e8EGIwgDttbo8QksQ+ffW5AYNefHKTnW0oitIDlAAQexgApjidzs5er/eg3Y3Z8QqgCFVVd3DO7xJCXAfgWwCiJNolhCQVVdO0jGh3ghATDACzhRD1OeePlMTNHyihBOAsTdM2cs4fFEI0AvADqHYAIcQ6CwB4o90JQorBB+BrALU5562Lu5mPLLtfAQSkadoaAPenpaVV13X9SQDPArg0Gn0hhCQEYRjGgGh3gpAI/cEYG6mq6jcAbN8tKJioJABn5eXlHQbQD0B/l8vVhDF2L2PsLgBXRrNfhJD4IoQYpOv68mj3g5AQNgGYK4T4wcq1/DKimgCcQ+i6vhTAUgCdUlJSLhZC3CmEuBVAPQAXA2BR7SEhJBb5AXykaVrXaHeEkHMYAP4EsEEIscTlcs31er0Hot2pwmIlAfgXn8+3G8BnBf8AoKzL5arrcDieBfB49HpGCIkBPgAHGGOLDMP4sqTfmxISwteGYYzUdX0jgOyzX9Q0LYpdCi4mE4AAzui6vtTtdl/KGKMEgATSs6BYBiGERIUQYpmu679Eux+RKtFVAIQQQgiJDZQAEEIIIUmIEgBCCCEkCVECQAghhCQhSgAIIYSQJEQJACGEEJKEKAEghBBCklC81AEgJFa5PR5PMyHEzQAaALgIQFUA6cjf9fIUgCMAtjHGNhiGsVTTtN+QX8GO/MPldrsbMMbOVv+sxRirJoSoAMCJ/E1+Dggh9jLG1jDGlquq+jMAHs1OExLPKAEgxASPx3OJYRhvMsYeEkJUDHFo9YJ/1wkhHmGMQVGUI0KIbwGMTvYqdm63u4HD4XgGQDshRKVzvyfEv3YNTwVwGWPsMgC3CyGgKEomY2wygIGqqu4quV4TkhjoFQAhxVPR4/GMEELsYIy1BxDq5h9MNcbYa4yx39xu988ul+tWqzsZ61JSUpp7PJ5ljLG1QoiXC9/8I1S+4NwdHo9nJAAzMQhJWpQAEBIhj8fT2uPxbBdCPIf8YWlpjLFmDodjiaIos1JSUi60ImYsS0lJuVhRlLmGYfwkhLjForBOIcSziqJs93g891oUk5CERwkAIeExRVF6CSFmmHxSjcQ9hmFsdrvdL9sUP+o8Hs+rhmH8AeBOm5qoKISYrihKT5viE5JQaA5AtHlK5U8VC/St1NKmw6Z4POEPcqUAzqLHpaSVsa9dwRD0PxybmNvtHgLgtRJoK50xNlxRlCac82cB5JVAmyUhTVGUMUKIB0ugLQagu9vtLqdp2huIpw8bA5BSNui3PenmrwepKWH+LpU0QKQGbjetlOl2PR636XOJ/SgBiDbmzP/DD6B69aqmw1avWjmCth0B265WtYrpdqtVCfOAzBgg4uearCjKhyiZm/+5HlIU5T+c89bIX0UQzyopijILQKOSbJQx9rqiKNmc8/dLsl1pjuCX5GpV7Py7DHEdqmb+OlSjmvk+E/vRK4AYdkO9OnA4zP2KGjeoa7rdxg3qgrEgV4Mwbrz+OtPtxhpFUR4G8G6Umr9RUZRFAMpFqX0rlCv4P5Tozf8cXRVFeShKbVvO7N8WYwyN6stdD8xwOp24od61ptsl9qMEIIZVrVwRdzS9sdjn1b7yMtStfaXpdmvWqIqmNzYs9nn16lyFqy6/JMxR8fGRK5iQ9xWCPheViOs8Hs9MAEoU+2CW4vF4ZgGI5h2AAfgqJSXlgij2wTJXX3Ep6tW5qtjnNb2xIWrWMP8Uf901tVD7ysuKfd7ttzZGlUoVTLdL7BcfV+Mk1r9bJ6SnBX43F4jL5cTg3l1MP8Gf9VGPzkhNSYn4eLfbhcG9u4Q/0OSIRgljfr9/BADzLz8tIoS4xePxDIl2P4rL4/EMLSiOFG2lC36X0UzkLDOo1ztwuyN/c5uakoKPe74t1SZjDIN7d4HLFfnCl/S0VAzo/pZUu8R+cXE1TmZXXnYxpo4cjNKl0sMe61EUjBjUC00aN5Bu95pal2PSlx+jVHpa2GNTPB6MHdoXjepH8LDHYv8jpyjKo4yxFtHux1lCiJcURWkT7X5ESlGU+4QQL0a7H2cxxm5XFOWRaPfDCo0b1MWYIX0jmuRbKj0Nk78aaOrpvbAmjRvgq4G94FHCD0aVLpWOb0d9gisuvUi6XWKv2L8aE7Ro0hjrFn6Ltq1bwuksmoUzxnBH05uwfPZ4PHL/PZa1e+dtt2DN/Kn4710tAs5FYIzhrhZNsGLuRLRt3TKyoA5Lls/bqTSA/tHuRACfAzC/PKPklAEwPNqdCGAA8n+3ca/dvS2xYu5E3HnbLQFH+hwOB/57VwusmT8VrZpbNwjz6AP3YPns8bij6U0B23U6nWjbuiXWLfwWt90SrWkfpDhoFUCcuPD88zDh8wE4fvIUfl3zGw4cOgLDEKhWpRJuvqGebbNtL7nwfEz+aiCOnzyFX1atx8HDxyCEQPWqlXFLo/rhZxcXxmI7AVAUpRuAGtHuRwDVFUXpxDn/INodCUVRlLeQX/o41tRQFKUb51xuPDxGXH3FpZg+bhiOHDuBX1atx+Gjx8EYQ80aVXHzDfVQuaI9797rXHUFZo0fjkNHjmH56g04cuwEHA6GmjWq4abrr7OtXWIPSgDiTOWKFXDfnbdFpd37775dPhBz5P8Thnwsi3k8niuEEB2i3Y8Q3gQwGMDpaHckiHLI72Os6uDxeEapqroj2h2xSrUqldDu3ghH3yxUo1oVPNimVYm3S6xFrwD+xv65ORX6x+LgvXVcccRmcRAhxBBYNOO+TKl01Lr0Qpxfo4rppZwBlPZ4PE9YFcxqHo/ncVg0cdLtcuGqyy5Cw2troVplM9stBKQU/I5JLBAIes3Nnytkft6m5BzopEEjAGd5gr8eLFshgqI6wc4tE/WJ5LHH4QL8arR78S+KotwHQPpR6rpraqFP1zfQtGEdOAt2qj1+8jS+nfMzPvpyAg4dPSEVXwjxBIChsv20Q0HfpNSoVgXvvvo0HryrCcqd87ezcsNmdO4zDGs3bZNtoqWiKG045zNkAxFJjAGe4NNaypQrbzp02dIJMd3DdvRoG4Hzz6sWlXMTlsONGPvopQIYJBukVfObsfiHsbjtlkZwnjNLu3LFcnjlifux8cdxuK9lE9lm6qWlpcXcO/aCPtWXidGq+c3YsOg7vPDkIyhX9t83hsb1amPRxKFo1dSSyWWDkf87JzFM5tr5n5ox9ycSk2LqKhyrGta9BhXKB6/RHUrLZrGwFDrGMADO2HkNoChKZwBSa5bOq14VY4f+75/aCcxZZMlj2dKlMHFoT9zVrLFMU0zXdat20bOMrutNIDFm26RxA3w78hOUL1cmP4qr6P05xaNg7MD3cV418yNyBS4q+J2TGNay2c2m6plUKF8WDeteY0OPEg8lABFwu114+aniVxRt06o5LqgZixPKY4AzNorbFVSJi6CCUWgDunfKv3mdK8CKB6fTgRH9u6B0qfD1FUKIxfqqdcye6FEUjBnSF4pyTlLodAPOom8oy5ctjQFd25tt6lzvJEqFwER1Qc0aaNOqebHPe/mph4pVLCmZUQIQoc7tn0H9a6+O+Pga1apgUC/p+0ricjhDbnxSUgzDGATJ4eBbb2wYuA5CkMl/lSqUw8P3Sq2ouFDmZJuYHkH5790tApeqdaUi0KBC27ua4dZG0ntOpBmGMVA2CLHXwJ7vFGuJc/1rr0bn9s/Y2KPEQglAhFJTUjBr/HC0aBJ++Lb2lZdh/pQRUvW3k4Ir8lLDdkhJSWkB4H6ZGGdLLwcUYvXI9XWLX9P9HLG42Np0n25sGGSzGeYEXIEr3g3u3qFYpWmDeKDgM0BiVM0aVTF/yoiIqhm2aNIYM7/5rFglzJMdJQDFULF8Ocye8DmmjhyMFk0aIy31nw+ay+XEDfXq4LN+3bBi7kRcfsmF0etovHC4ojkK4DYMQ3o2/UtPPoSrr7g08DdDbHusuM3PgRBCRH/opBCZPoW8YLtSAiZSV19+EV585D6zTf6t4DMQOxNSSBGXX3IhVsydiM/6dUOj+tf+K/FLS01BiyaNMWXEIMye8DkqVTC/ciAZxdyFJNYxxtCmVXO0adUcmqbjxKlM+P0GKlUsF1F9blKIOxXg2flrgkuQx+N5TQhRSyZG5YoV0K3jy8EPCJEAbMnYbbpdxlie6ZNtwhjLNXvujp17Qh/gSgW0ouG7v/EMps7+CcdPSdVFquXxeF5TVVV6FQixj0dR8NxjbfHcY23hU1WcOHkaTqcDlSqUp/f9EmgEQILb7UL1qpVRs0ZVuvmbxZyAs2R/dunp6dWEENIldT9893WUKxtivXGQaoe67sekGQtNt8sYO2r6ZJvI9GnqjB+h6/7gBzjdAUeKypUphQ87y+85JIT4ID09ndbrxokUjwc1a1RF9aqV6eYviRIAEn2ulBIt3aVpWn9IbqzT8Lpr8MSDoTboE4DQA35n9NTZ2HdI6h4uXQ3HBqbL6+47eBhjJn0f+iB34FUTTzzQCg2vlRrIAYAyBZ8JkgxEiGQzyVACQGIAA5RSJbJju8vluhHA4zIxHA4HBvd6J3SJX8MI+ArgZOYZ9Bg8SqZ5+P3+DVIBbMAY+03m/A8GDMOpzDMhGnAEHClyOBwY3L2DFeWWH3e5XFIFGkicKOHXjbGMEgASG1iJLAt0OByOTyCZajz5f23Q8LowhUZ0X8Av9xg8CidD3ejCy9V1fZVMADv4fL7lAEzPAziZeRo9P/4s9EGuFAS6ZDW8thaeeEB6YxrmcDg+AxDb21USYiFKAEjsYPYmAAVb1TaUiVGubGn07vJ66IOEARhakS9v3PonRk2ZJdM8ACwAEFsbKeTjAMxPbAAwYvw0bNy8PfgBjAHuwCsGPnzrxX/tHWDSdR6Pp6NsEELiBSUAJCkoivJ/AP4nG6d7p1fC73mueYt8SQiBN3sOgd8vtw0yY0zu/YGNGGOjZc73+/14s1s/iBCrJ+BUAo4UVa5YDt3fkC8AI4T4n6Io7aQDERIHKAEgic6pKMq7ACZA8vNe+8rL8OIT/xf6IEMP+PQ/ccYCrFj/h0zzALBHVdUfZYPYRVXVeQD+komxYu1vmPTDnNAHBdgnAABefOQ+XH251JYOQP4rgEmKorwNeh1AEhwlACRRtFIU5WFFUWqlp6dXVRSljsfjaa8oyu8A+sKCi/ng3l3CV58L8PSflZOLrv2/lG0eQogPAcTyFGZdCNFbNsi7Hw5Gdk6I6QQOZ8C9JFwuJwZ37yDbPJD/WemvKMpGt9v9sqIodQo+U1cpivIYgLusaISQaKMEgCSKGwBMBLBV07QjADYJIYYBkKq5e1a7e1uiSeMGoQ/yqwGXGPX5dByOHD8p24UdmqZ9LRvEbpqmjQOQIRPjyLET6DM4TMLkDjwh8NZG16HtXc1kmj9XbcbYcACbCj5TWwB8A8l5JITECkoACAkjLTUFfd97M/RBQgSc+b9911/4bNx30n1gjHUEELiwQGzRGWOvyQYZNnpCmAqBDkAJ/CpgQNf2SE+T2t+JkKRACQAhYbzb4QX857zqoQ/S8wKu++/cZxg0Xfq+PVNV1bmyQUqKqqoLAMyWiaFpOt54P8ycTYc74IZS51WrjLdfelSmeUKSAiUAJGaULydVnM8Wl1x4Pjq8EKZukKED/qIT/6bPX4YFy9bIdsFX8PQfVxhjbwAIXAwhQj8vX40ZP/4c+iBXSsAk4M3nHsIlF5wn07wtUlNpp7roo9veWfSTIDGjXh1LXtdbxul0YsSgXvAoRSec/UuAoX+vT8XbfcMUtonMx6qq7rIiUEkq6PNA2Tide3wEry9MHuFKyS8VfE45aY/ixvA+b4GVYInpSJxXjE+NIZAAAB3bSURBVL3tiU1i6yMRVZQAkJhx/XXXhF9jX4K6dngBN11fL/RBfjV/BKCQj76cgL8OHpHtwn7OeT/ZINHCOe8DyWWBfx04hI+Hjwl/oFMBPGUA1z/JWtNG9fDSY/JbBlvF4XCg6U3XR7sbhPyNEgASM5xOJx5sI13S1RIPtmmFdzs8H/ogIQCt6NPp3gOHMWjEZCu60RES5XVjgBdAZ9kgA4ePxd79ByM4kgGutIJEIAVwOND37ZfQoM6Vsl2wxF0tmqBalUrR7gYhf6MEgMSUDi88Hn7I3Wbt7m2JMUP6wukMs+Zf9yHQziKd+wyD1ydXrVcI8RPnfJpUkBjAOf9WCBHmRX5oXp8PnXt8FPkJzJGfAChlkFa+Kn4Y9ykuPL+GTBeklUpPQ9+ub0S1D4QURgkAiSkX1KyBt9o/HZW2GWN465WnMXbo/8IX/DH8gJ8X+fLCX9Zi5sLlsl3RGGNhNhyIHwX/l6KzJIth5vzFWLRspZnWUaVyFfw4ZQQuveg/Ml0wzaMo+HpYP1xxqXSVQkIsRQkAiTldO7wYvuiOxSpVKI8fxn6KPl3fCH/zBwDdi8JP/1zT0LH3EOm+CCGGcc63SgeKEZzzLUII6RmRHbv3B+fm8oiL/lMTS6aPC7+Lo8Uqli+HORO/wN2331qi7RISCUoASMxxuZyYNuoTNG5Qt0TaeunJ/8MfS2fgzttuiewkPw848W/Y2O+QsXu/bJeOaJrWUzZIrNE0rYcQ4qhMjB0792DY6Ammz69csQJ+/m4M3nzxSTgc9l/6rr/uGiyb+Q1uaVTf9rYIMYMSABKTypYpjQVTR+L15x+zZSmX2+3C/913J1b/OAVD+nRFhfJlIzwzcMW/w8dOou9n46T7JYToAuCMdKDYcwZAF9kgfT/5CoePHjd9vqK40a9bRyyYOtK2Zafpaan48N0OWDJ9XNReOxASCUoASMxSFDc++qAz5k3+yrKnqAtq1sDbrz6LHSvm4uth/VD7ysuKF0D3AaLolr7v9v8c2Tl5st1bGQ/1/s0q2CdglUyM7JxcvNtnsHRfbmlUH7/OnoCxQ/talgikp6WiwwuPY8fKuejc/pnwk0gJibKiG2sTEmOa3XQ9mt10PVau24jJP8zFgiUrsPuvyIba09NSUf/aq9G4QV20adUc9a+92nxHDH/+uv9Cfl33OybPXGQ+bkF0IcRrCLSsIHEIIcRrjLHVkHj4mPzDXDz/WNvwNRrCcDgcePj+u/Hw/Xdj9YbfMWX6PMxdtAx79h2IOIZHUdC4YV08/N+78MA9d6B0qXSpPhFSkigBIHGjcYO6f88L2Lv/IDJ27cWefQdw8PAx+P35u/C5XC5Uq1IJ59eohgv/cx6uvPTiyCb1RUL3Fbk9+/0G3uw1BCLAPgDFwRgbyTlfLxUkDmiats7j8YwSQoQpshCcEAJvduuHlXMnWfaUfUO9OrihXh0M6vUOdv+1Hxs3b8fvWzNw6MgxnMw8jby8/G2ey5cri+pVK+PiC2rimlqX4/p61yDF47GkD4SUNEoASFy68PzzcOH5JVjr3dDy/xUyYtIMbNq6UzZ6pqqq78kGiReqqnZRFOV+ABXNxti0ZQdGjJ+Gl578Pwt7lu/iC87HxRecj/vvvt3y2ITEEpoDQEhYAtC8Rb566nQWeg2JoExtuOhCvA/ghHSg+HGKMdZDNkiPj4bhxKlMC7pDSHKiBICQcHQ14MS/bh+PwMlM6Qn7mzVN+0o2SLxRVfVzAJtkYmSezkKPjyzZcImQpEQJACGhCCPgsr/ftmRgzLdSW97nRzeMVwEULSqQ+PyGYbSH5KTHURO+w9rf/rCoS4Qkl3hLAExfLCTnaJFkFWDoXwiBN3p+Ar+/6KhAMU3UdX2pbJB4pev6rwAmycQwDANv9fhIehImIWdJfpbi6oMYVwkAY8z0DisqL1q3nZCQDD3gxL9vvv8RqzZskY2e7XK53pYNEu/cbncnAFkyMVat34Tx02ZZ1COS+ELfo32q+XsFY6zocGEMi6sEAIDpH65Pcnc2kmQEAj79Z+fkodvHI6TDM8Z65+XlHZIOFOdyc3OPAOgrG6drn8E4k5VtQY9IwgvzjC65k2fRi0YMi6sEQCa78vriKjEj0eZXAeEv8uWen4zCkeMnZaPvUFVVftegBME5Hwxgh0yMYydOofegzy3qEUlmNAIQoxhjprOrPG9c/V5INAkB+It+Xlb/tgXDv/leOjxjrAMAeif1D17wM5EyfMxkrN7wuxX9IYmMhR4CkLlXUAJgI7/fb7rY+lH5pzaSLHRvkVmjPpXjhS79rZj4N11V1fmyQRJNwc9khkwMv9+PFzp9QPN9SGhhJvkdPXHKdGi/359r+uQoiKsEwOl0HjF77pFjyVRnhZhm6Pnb/RbSa8hobN/1l2x0r8Ph6CgbJFE5nc7XAUjtqLT9z93oPZBeBZAQAtT0ONfhY+YfFl0u12HTJ0dBXCUAPp/vMEwusziTlY3cvLian0GiIcDEvzUbt+KTUVOsiD7A5/PtsSJQIvJ6vfsAfCwbZ/CX47Bu42YLekQSUogRgJxcr8yunsLr9R41e3I0xFUCAEAFYLr256EjxyzsCkk4ASb+nc7KwdNv9bFi6H8v57y/bJBExznvB0BqqEXX/Xi6w3u0KoAEFmIE4NBR8yPFjLGTiLO5PfGWAACA6SGWHTvp4YsEIYwiT/+GYeCpjh9i597It4cNoSPibIlQlHgBdJINkrFrLx59+e2/d4kk5B/BEwCZ13xCiLhb1huPCUBkG8EHsO3P3Vb2gySSAEP/3QeOxLwlK6VDCyEWcs5/kA6UJDjn3wkhFsrGWbh0BXp+PNyKLpFEYgRPALbt3CsT2ZInhZIUdwmAEGK72XO3UwJAAvGrRSr+fTvnZ3z81UQroquMsdetCJRMCn5m0tW7Bgwbhe9mL7CgRyQhCAOhppHJJABCiG2mT46SuEsAAGw1e+If2zKs7AdJBMIAtH8v3V25YTNefHeAVfXl+3HOTSetyargZzZANo4QAs937E71AUi+MCsA/ti+Sya66XtTtMRdAiCTZW3evpMmBpF/0/Jw7hPB79t24r/Pd7FqxUhGwaQ2YgLnvA8A6eQpN8+L1o+9gg2/x931mVgtQHXPs7JycrH1z70y0ePuAxZ3CYCu66Z/yH6/H2tpeRA5S/fmr/svsCVjD+58shMyz1iSJPoNw3gGEvtXEKiGYbyIULO2InQmKxv3Pt4e2zLoNWBSM4LvvL1qwxYYIeYHhCE0TaNXACXgFCQmAq5Y+5uFXSFxy88B/Z9XzDv3HsCdT3TEiVOnrWphQMF2t0SCruvLAAy0Itbxk6fQ6qHnsWuv6csHiXdG8BGAlRukHg73AjgjEyAa4jEBAADTF9alK9Za2Q8Sj4S/YOg/35aMPbj90Q5SJUAL+Y1z3sOqYMmOc94NgCUv8Y8cO4Hb2z2LrRlS73pJPBJGyDkAS1dJPRyukDk5WuIyAWCMmU4AVq7bhBOnTNcSIvFOGAD/p1z3mo1bccdjb0gVACkkkzHWDnFWECTGqQ6How0ASzb0OHj4KJrf/xR+XbPBinAkXojgw/8nM89g1W/mRwCEEMtNnxxFcZkAGIZhOgHw+/1YsIRGZpOTALTcv58C5i5eiZaPv2nlsL/BGHtUVVV6vLSYz+fbyxh7GIAllX0yT2fhnkdfxryffrEiHIkHIYpCzV28UqraJ2OMRgBKiqZpvwMwPVNr7qJlFvaGxAUBgOf9/Q5w3LS5aPfye1ZvE/2eqqrzrAxI/qGq6kIAH1gVL8/rQ9tnO+DrqVKbEJJ4YQQflJv7s1TBryzO+RaZANESlwkA8p8CFps9ee6iZcjOiatdG4kUAei5gKHB7zfw3oAv8UKX/tB1S8vETqda//bjnPcF8K1V8XTdj+c7dkf7Lr2t/jyQWCL0oJsA5eR6seCX1TLRf4ZFI1MlLV4TAAghZps9NzfPi+nzfrKyOyRmCYB7Ab+GU6ez0PqZzlZV+DvXZs754zC5UyUpFsE5fxYWr7keOX4a2jzRHpmns6wMS2KFP/j7/2lzFyMn13zdD5l7UbTFbQLgdrtnQ+KC+823My3sDYlZWh5gcGTs3o+mD7bHT7+us7qFfU6n824AOVYHJkFlO53OOwBYurvXomUrcdM9j9AKgUQUYvh//A8/SkVWFGWOTIBoitsEIC8v7zAA01fzZSvXYe/+gxb2iMQUgfwJf34Nk2YsROP/Po8du/dZ3cohh8PRrGAfe1KCvF7vQcbYHZDYHTSQXXv3o8m9j2PKdJrKkTAMPegGQHv2H8LytVIrTNfl5uYekQkQTXGbABSYZfZEIQQ+G235UDCJCQLQcuDNzcHL732Epzp9KDXEFwhj7ASAO3w+H5WWixJVVXcCaIn84mCWyc7JxROvdkH7Lr3h9VEhx7jnD/70/9m472T3/IjroWQW7Q7I8Hg8lwohMmDy/1G6VDp2rZmPsmVKW9wzEjUi/+afsXMvHu3QA79v22lHK1lCiBaaplFVqRjgdruvZ4wtAmD5H3Ktyy/GxC8+xlWXX2J1aFISBAD1DAK9Lc7KycUlN7dDlvkJ4YIxdlk8L/uN6xEAVVV3yhQFys7JxZhJtE17wjD8AM/G2Cmz0Pi/z9t18z9jGMbddPOPHZqmrTEM4x4Als/g25axG03ufZyWCsYrgyPYVLFRk2fJ3PzBGPslnm/+QJyPAACA2+1+jjE2wuz551Wviq3LZyHF47GyW6Sk+TmOHzmMV94fgJkL7SnKJYQ4CuBOTdNoQ4kY5Ha76zscjnlCiMp2xL/vztvwWf9uqFShvB3hiR3UnIAVAH0qR63mD0tVABVCPKtp2miZ7kVbXI8AAICmaVMB5IU9MIiDh4/ii7FTLOwRKVkC0PKwaPFSNGz9tG03fwB/ORyOJnTzj12apq1njDUCYMu8jOnzfkLdZvdjzsKldoQnVjP0oOV/vxj/g2z5b6+mad/JBIgFcT8CAACKoowF8KTZ8ytVKI9tv85GmdKlrOsUsZ/hR17WKbzT91OMmDRTdjJPKFudTucdXq+Xlo3EgdTU1PP9fv98ALXsiM8YwwuPP4h+3ToiLTXFjiaIFXh+8a/CsnJyUav5I7IlwMdyzp+WCRALnNHugBUcDsdexthLZs/P8/qgKG7cemNDK7tF7KRzrF23Dvc83QkLf1ljZ0srOOd36Lp+1M5GiHV0Xc/y+/1TnE5nEwA17Whj/aYt+GHuIlx/3TWoUa2KHU0QGcIA9MArOAZ8MQE/LlklFR3AU36/P+6vCQkxAgAAbrd7EWPsNrPnl0pPw7Zf56BKpQpWdotYTQjovmx8MmI8eg4eDa4VzfAtNJFz/hwAa9cQkpLiURTlCwBP2dWAy+XEGy88gR6dX4Xb7bKrGVJcWl7A5X/HT55GrdseRnaO6bfGEEIs1DTtDpnuxYqEGAEAALfbfRzAo2bP55oGTdPRstlNFvaKWMrPsTNjB+5/4R18/d08+IMU97CiJcZYZ855ZwDBa4iSWOf3+/0zXC5XHoDmsGHOk2EIrFi7ET/9sgq3NGqACuXLWt0EKS7hB7TAOXv3gSOwfO0mqfAOh+NVv99vyxKjkpYwIwAAmKIomwFcZTaAR1Gw+ZeZ+M951S3sFpEmBISehxHfTEOXfp8jN8/WB/LTjLGHVVWVqg9KYovH47lbCDERQBm72khPS0X/bp3w3GNtwVgiXVrjTEEF0ML2HTqK2i0ehcqlRg03c87rIEH2/UiYEQAAcDqdJwC0M3u+3+9HVnYOWrdsZmGviBRDx5lTR/HYa93xyagp0DRbH8i3MMbuUFVVamswEnv8fv+fTqdzJoDbAFSyow1N0zH3p2X4fesOtGp+MzwexY5mSChCB7TA7/479f4UGzZnyLbwqt/vj8utfwNJtDSVKYqyDkA9swGcTie2/DITF/3HlrlDpDh0L7bvyEDbl97Dn3v2293a15zzVwDQPtGJrVTBvADTrwsjcfklF2LaqE9wxaUX2dkMKYzn5C//K2T3vkOoffuj8PulXhuu55w3RII8/QMJUAegEMEY6yoTwO/3Y9go2iMgqoQOqFlYvXYDbnv4dbtv/j7G2Buc8ydBN/9kkMM5f0wI8SQk6oeEk7FrL2697wksX73BriZIYYYe8OYPAEPHTJW9+YMx9i4S6OYPJN4IAADA7XYvZow1NXt+qfQ07FqzAOXK0h4BJUvkL93ROeYuXoGHX+0Onxp8Iw8L7ADQjnP+h52NkNjkdrvrMsamArjMrjZSU1Iw+auBaNX8ZruaIGfx7Pxy4IVknsnGpU3aSW0IJoRYomlawr0bTrQRgLPelTk5JzcPoybGfZGn+CL8+WU7dRXzl67CQ+272XrzZ4yN4pw3oJt/8tI0bSPnvD6AsXa14fX58OBzb2LBEtNblpBI+HnAmz8AjJw804rdQKXuKbEqIUcAAEBRlOkA2pg9/7zqVZGxch5croSaJxmbdB/g9wECWLZ6I1o/09m2mz9j7LgQ4nnOOe3uQv6mKMr9jLEvhRC2TBBM8Xgwe8LnuKVRfTvCEzU7/yGiEF3347JbH5Qt+zuDc36fTIBYlagjAADwHoDAKWEEDh4+ikXLVlrYHVKUyC/Xqeff/Lfv+gsPvvK+nU/+C5xOZ126+ZPCOOffu1yu2gBm2xHfp6p48Pk3kbFrrx3hk5vhD3jzB4D5y1bL3vz9yL+XJKSETQA451sASM3moy1AbWT487P2glrdmWey0ebZd5B5JtuO1vKEEC9zzlvl5eUdsqMBEv9yc3OPcs7vZYy9ChsmCJ7KPIP7nnwVp+35jCevICV/AeCb76XLeYwvuJckpIRNAAr0h8SszVkLFuNkptSGESQQv5a/XEfkz8oVQuCFLv2w98BhO1pbyxirp2naF0iwGbzEFkJV1c8A1Aewzurgu/bux9Mdutq5cVVyEUbADX8A4NTpLMz9eYVUdAADZALEuoROAAoyt/nmz9cwbZbp00kghpZfp/uce/GQ0VPt2MZXB9Cbc36Tqqo7rA5OEhvnfDvn/EYAfSDxKjGQuYuW0VJjqwSo93/WlFk/yVb9+5FzvlUmQKxL6AQAABhjg2TOnzKdKsJaxtAA/u+b//Zdf+GDQSOtbmmnYRhNOOfdAdi6WxBJaBrn/H3DMJoA2G1l4G79htJ8ACuETAAWSYV2OBxS9454kPAJgKqqiwCYzuJWrd+EE6cyLexRkhL+Ijd/wzDw/Dv9rJ70N5lzXk/XdZrBSSyh6/oKznldAJOsiun1+fBCpw/oVYAMQ//7NWJhx0+exuqNUg/vW3w+n1wGEQcSPgFA/h3na7Mn+/1+zF9Ma3iliILZ/oVewY+bNg9r5P5Iz6UWVPR7GADNsiJWy+acP2JlBcGV6zZiwne2LDpIDiGe/ucuXgFDYrdQxthY0yfHkWRIAOB0OsdD4j3enIVLLexNEtLyimTqWTm56D5whFUtZBmGcbuqqkOsCkhIIJqmfW0YRgsAlgwLdu0zGNk5VIG6+ETAHf/OmrdklUxwv9PpnCATIF4kRQLg9XoPAjA9nDN/8XKo3NaStIlL9wWcpTt09Lc4dtKSa2imEKKlruu/WBGMkHAKXi/dAkB62crR4ycxfIxlbxaSh2Eg2KIermlYtHytTPT5eXl5tixJijVJkQAAgBBiitlzc3LzsH5Twi4FtY8wAq7RzTyTjaFjvrWihSwATTVNk0r3CSmughVGt8GCkYDBX47DmSx6a1UsIYb/127ahuwc829phBCWXJziQdIkAB6PZw4A0y+FVq7bZGFvkoQWuP72VxNn4Ex2jmx0P2PsUc7577KBCDGDc77NMIz7AEgND2aezsLoSd9b1KskEWTtPwD8uk5qew9DUZR5MgHiSdIkADk5OccArDF7/oq1v1nYmyRgaAH/SDVdx5cTpkuHZ4x1UlWVZlCRqNJ1fZkQooNsnOGjJ8Hvt7TcQOISIujsfwBYuV4qAVidm5t7VCZAPEmaBKDALLMnrlq3iZbsFIemBvzynJ9W4OCR47LRZ9OEPxIrCqpM/iATY9/Bw5j3E01jiYjQg39LCKz6Tep1bVI9VCRVAmAYxmKz5544lYk/d/9lZXcSl6EH/SMd/4N0ZcUzTqfzJdkghFjJ5XK1h+R8gPHTTD+fJBcjeAKwfddfOHU6y3xoiXtEPEqqBEDX9Q0Agu8cEcbvW6mibET0wE//JzPPYP7S1VKhhRBvF6zqICRm5OXlHRZCdJaJMXfRMtooKBJG8Fclf2zfJRPZV3CPSBpJlQAgv1iM6Q0+tv1paTXQxCRE0Az9x6WrwDWpyrw7NU0bLROAELtomjYWgOmnBJVzzF9s+Z4YiUUg5CuAbTvNj9IyxtYACPz0kqCSLQGAEML09lDbMigBCMvPEWx97o9LpJ/+eyN/kx9CYpFfCNFXJsC8n2keQEjCCLmn57ade82Hlrg3xKukSwAAmF42ti1DangpOQRZniOEwM8r1stE3qNpGm2hRmJawWd0j9nzFy1dSZONQxGhV0pslxgBACC1fCAeJV0CIITYZvbcnXv3QddpqU5QIYb/M/bsx4lTp2Wijwc9/ZPYpwMwXUb2+MlT2LV3v4XdSTAhEgBd92Pn3gPmQwuR0Fv/BpJ0CYCmadthsiAQ5xqOnzxlcY8SSIjZuas2bJaNTvVSSbyYLHPyqvVUdCyoEOv/j53MhKabfkYwNE1LulneSZcAIH8nr31mTz58VHoNe+IKkZ1v3iE1f+J3zrnpkRtCSlJBmWDTGe/mbX9a2JsEE+Iac/jYCZnIewEELl2awJIxAQBjzPQ40RG5D1liCzECIDk5h7ZjJHFF5jO7fSdNNg4qxPyIw8dOmg4rc0+IZ0mZAAghTO/0dOjIMSu7klhCDM/t3ndIJrLppZuERInpz+zOPaYHKBNfiGuMTAIghDhi+uQ4RglAMR07QXMAggrxx3nkuPmfm0ztBkKigTFmeskLjTIGEWZ1xLET5gsxytwT4llSJgCMMdObPeTmmd9mMqGFuPln5eQiN8/86zXOOa2/JHGFc77T7LnZObnIyaXrTFGhE4A8r+kir1L3hHiWrAmA6b8unyq182cCC/7HmZMrNbcmD0lWnYskBC8kyo5TAlB8MtdmxliuhV2JG0mZABiGYfqOpHJKAAIKMTwnmTTROxcSr0x/dn0q5bxFhR4BkLnOGIZhfvggjiVlAgCJ5R5eiWGmxBb8j1Oy/j/tjkLi1RmzJ/p8lAAUl2TSlJQX9qRMABhjpj8pNAJQfJKlTakuKolXpj+7VA04gDA/E66ZLxTKGEvKC3tSJgCgP0xCCIkzoS++9KBRfMmaABBCCCFJjRIAQgghJAlRAkAIIYQkIUoACCGEkCRECQAhhBCShFzR7kCUBN9TMozc3LyTgIP26yzM4UqB01Ml0LeEQ3EBCPi9CJj+XRESZcHrY4fBNX0T4Ei67WlDYk4PnJ6qwb6tGygPINVk9KS8ziRlAmAYxjGHw9zgx9yfln3DqlzxpsVdSnTlFUUxVRVNCJGUNbpJ/BNCHGOMmTq3brM2TQGctrRDCc7tdn/CGOtg5lzDMJLyOpOUrwBSUlJ2wHx2vt3KviSJTABmd9vaZmVHCClBW02edxh08zfD7M/bKLgnJJ2kTABycnKOCSGWmThVc7vdMy3vUBIQQnxn5jyn0/m91X0hpCQ4nU5Tn3mzfyvJTlGUmQCKXXecMfZLTk7OMRu6FPOSMgEAACHE+yhm9SchxKd5eXlJuW+0LJfL1Q9ATjFPW+Dz+ZbY0B1CbOfz+ZYIIRYW87Rst9v9P1s6lOByc3OPCCE+LeZpwu/3v2dLh+JA0iYAuq7/yhh7I9LjhRCLNU1L2g+KLK/Xe5Ax9gCASGtu73S5XE/Z2CVCbOfxeB4DEOnwssYYeyQvL++QnX1KZJqmvQtgfqTHM8be0XX9Vxu7RGKZoijt3G73EUVRRJB/3O12DwKQEu2+JgKXy3WjoijbQ/y8DUVRpgKoFO2+EmKRSoqiTC34bAf73G9zuVyNo93RBJHidrsHKYrCg/28C6757aLd0WgzN0U18aQoivIAgBaMsYuFEG4ARxhjKxwOx2Sv13sg2h1MMA6Px3M3gFaGYVzFGEsHcBzAWgDTOOebo9s9QqynKEptAG0BNARQWQiRC2CLw+GYr6rqHEgsGyRFpaam1jQM4yEhxI0AqjHGNCHEbgCLOOffIUm3AD7X/wPn4xN4Lz0KqgAAAABJRU5ErkJggg==;" parent="1" vertex="1"><mxGeometry x="71.77" y="2410" width="60" height="60" as="geometry"/></mxCell><mxCell id="ew9f5I8vs3_mxuw4Yqn4-46" value="" style="shape=image;verticalLabelPosition=bottom;labelBackgroundColor=#ffffff;verticalAlign=top;aspect=fixed;imageAspect=0;image=data:image/png,iVBORw0KGgoAAAANSUhEUgAAAgAAAAIACAYAAAD0eNT6AAAABHNCSVQICAgIfAhkiAAAAAlwSFlzAAAOxAAADsQBlSsOGwAAABl0RVh0U29mdHdhcmUAd3d3Lmlua3NjYXBlLm9yZ5vuPBoAACAASURBVHic7N13nFx1vf/x13e2J9n0StomJCShhNAJCAFNEBSkiYIQioAiiuD1h4IKWBG9ehEQFUSKeK8ICBLpRXpvgQQSIGVTSe/ZbJ3v74+TQELKzsz5nDkzc97Px+M8wk32fM7nurvz/ZxvBZH8OAq4DZgBNAArgbeAXwO7xZiXiIiIRGBn4DnA7+BqBW4EamLKUURERAztCyxjx43/5terQJdYMhURERET/YAFZN74b7oeAFwM+YqIiIiBm8m+8d90fSmGfEVERCSkfgTj+rkWAG/kP2UREREJ61xyb/w3XYPznrWISIKk4k5AStLuBjG0NFBEJEIqACQKvQ1i9DWIISIi26ECQKJQZhCj3CCGiIhshwoAERGRBFIBICIikkAqAERERBJIBYCIiEgCqQAQERFJIBUAIiIiCaQCQEREJIFUAIiIiCSQNluJX2dgArAnUAvMB94DngA2xJiXiIiIRKATcC1BI7+tw3CWAb8kKBCKzZ2EPwzoa3nPWkREJGK7Au+SWUM4CxgVT5o5UwEgIlLgNAcg//oAj5F5oz4EeBoYHVlGIiKSOCoA8ssBdwA7ZXlfL+BxYA/zjEREJJFUAOTX0cBhOd7bi2BioIoAEREJTQVAfk0Meb+KABERMaECIL8+ZRBDRYCIiISmAiB/KoB+RrE2FQGaGCgiIjlRAZA/aaDJMJ4mBoqISM5UAORPGzDbOKZ6AkREJCcqAPLrxQhiqidARESypgIgv66LKK56AkREJCsqAPLrTeDBiGKrJ0BERDKmAiD/zgHqI4qtJYIiIpIRFQD59yHB8b8LIoqvIkBERNpVHncCCTWDYFOgJ4G6COJvKgLGA29HEF8KVxnBfhM9CX4OegI9Nrt6AtVA7cav7whUEpxT0TXfybajBVi38b/Xbfy/08BqoAFYTnBs9tLN/ns5sHjjnyKyAyoA4lMPHE60RcDjqAgoRV0JTpMcsvGq23gNAQYRbDqVdGsIfsdmb/bnbILjtd8jKCZEEk0FQLzqUREg21cGDAZ2A/YBdt3436MI3thl+zoTrIrZ1sqYVuB94B3gXeD1jf89K2/ZiRQAFQDxq0dFgAR6AQcRDA8dBOxN0F0vtsoJiqldP/H3Swn26nh+4/Uatrt3iohsUx1BF6WP6FpC/vYJuNMg36/lKdc4DQHOBm4GphPd915Xblcj8BzwK+AYPp43ISJiro7SKAJUAGxbNUFPzFUEb5dxN3C6srtaN37ffkwwJKNhGBExVUfxFwEqAD42APgmcD+wnvgbMV121zzgz8DxQA0iIgbqKO4iIOkFQA/gdOAxgkOg4m6odEV/NQD/3vh974CISAh1FG8R8A+D/M6JKLeo9ALOA/5D0FUcd4OkK75rJXAr8Dm0JFNEclRHcRYB1xvk9oUI8rKWIhjTvxNoJv6GR1fhXSuAG4DdERHJUh3FVwR8xyCv3YxzstQP+D7BuvG4GxhdxXO9RjC0pSECEcnYMGA+0X0wLQYGGucbJp/ZhrlYccCRwCTUxa8r3LUcuBrYGRGRDERdBLyI7bKmh0PkcpFhHmFVEkzsmkL8DYeu0rraCCYOHoyISDvqiHY44IuGue5ObsvepgBVhnnkqjNwIcFSr7gbCl2lf71GUGiWISKyHXVEVwQ8bJzrSQSHrmT6/EXE3y26E3ANwelzcTcKupJ3fQCci1YPiMh2RDUcsAH7D57xBA17e89+Cdt5CNnqSbBDXwP2/7vq0pXtVU8wYVDntYjIVuqIpidgpwhy7QT8AHjrE89qJtgs52Ti21a1O8HWrqux/99Sl66w1yyCQkBDA2JOe1kXt2HAU0B/w5h1wBzDeJ/UmWB73EZg4cY/49AJ+H8ESxY7x5RDQfvBaeUcf2hqi7+bNsdz+i9awgXuvhOpi//R/te1teAb1wf/3bQeWlvAe1i7AtYtD/5cG/zp162AVYth5YfQ1houv8I0FbgM+FfciUjpUPdScZsBHIZdEdAGfGgQZ0fWEJzBHpcUwWSrKwnW88s2XH5mOT8+a1sfD+nwwSuqYOheGX1ppm8oH31dWyusWIBfOheW1MPSubB4Nn7B+zB/GjRvyCHhgrA7cC/BseHfIehNEwlFBUDxm0FwfvyTBG/vYbxI0C1fqg4CfgfsF3ci2ercCfbaFfbeDe56COYviu5Z22/8i0BZOfQajOs1GHY95KO/dgDpNvhwJn7uVJgzBea+g5/1ZtBrUDwOB14HbiLoEVgabzpSzIr0t1w+oR6YQPiegL9bJFOABhKc6R7nXIOsjNwZDtkXDtkP9h8Nw+uCvz/7UjX+OUuVQf9dcP13gbEnABt/GJbOwU9/Ed55DqY9j188IxhqKFxlwNeBLwM/A64jWG0jkpWi+DCUjIWZEzAbGAU0WSYUs3Lgv4ArKPDtV4cMgCPHwafHBg1/n55b/ns6HTT+t/4zuhwyafxffy/Nfl8L2UnUZwipa6eEixGlVUvh1Yfxkx/Fz3wFVi6IO6P2TCeYKPhs3IlIcVEBUHrqyH44oBEYB7wSQT5x2Yugm3TvuBPZlqpKOPxAOPJQOGoc7DJk+19bKI0/JKQA2KStDbfkQ5j2Kn7my/hZr+DnvgWtBVkje4JDhy4hWNEi0q4S7etLtHrgMwSzhffI4OtXEnQllkrjX03wIXgpwTa+BaO6CsYfDCcdBceOhy617d+TTsNXL4Hb7okuryvOKueKM/VRsJWyMny/AdCrL27UfkEx0NSAr38DP/0Z/PvPQktci1i24giOoz4WuACIsFyUUqHf+tI0CxgL/JDgw6DTNr4mDfyDYH1+fd4yi9ZhwJ8JhkIKQkV58JZ/2nHw+cOhY03m925684+y8b/8TDX+7Sov/7gQWLwQV9kBN2wsNF+A/+AF/PSn8bNfg7aCGIbvB9wN3AV8m2ATLpFt0hBA6etMMEFwb4Ld7tYA04CHiH7JX75UAT8BLiZY5he7XYfB6cfDmSduPZ6fiUJ980/UEMD2tDTjFs6H5UsJet6BpnX4aU/j35yEXzIz1vQ2swr4BnBH3IlIYVIBIMVud+B/gdFxJ9KpA5x6LHzjK7DnqNzjFNKY/yepAPiY27AeP38Obu2aLf7ez5+Kf/sh/PSnoKUg5gv8mWDvgPVxJyKFRQWAFCtHMLzxK4Jx/9jsOgy+cWrwxt95W4MtWSjkxh9UAGzT6pW4+fXQ9InGvmk9fsojpF+7B1bH3hP/HnAawamDIoDmAEhx6g38BTg6ziQO3ge+/3U4+nBwBqV0oXb7Szu6dMPXdoHFC3GLFoLfuFtiVUfcvidQts/x+Jkv4V/6O35BbJtgjiDY6OsXBHsHtMWViBQOfRJIsTmUYPJi3zgeXlYGXzwSLj4X9tndLq4m/BW5VAr6DcB374WbOwvWbrYSzzncsLG4YWPx897Gv3IXfsZLfDR/IH/KCfbEOBA4FVie7wSksOjTQIrJ14DfE8NZ6akUnPhZ+Nl3YMRQ29h68y8hVVX44aNg1YqgEGjd8mAiN3A0buBo/NJ6/Au346c/QwyFwGeBN4EvUjrLfyUHBTFjWqQd1cAtBBud5LXxT6Xg6E/DG/fBndep8ZcMde2OH7UndOuxzX92vepIHXsZqdOvw+18YJ6TA4LtsZ8Gzonj4VIYVABIodsZeBk4M98P/uwh8OYk+PeN4Wb1b4+6/UtcRQV+yHD80F2gfNvfA9dvJKkv/pzUqb/DDchk3y5T1QQrBP5AgW2aJfmhAkAK2XiCWct5XeK35yh49FZ4+BYYPTKaZxT6bH8x1LU7ftQeUNt5u1/iBuxO6tSrSR17GXTJ+/SWbxBsH94r3w+WeKkAkEJ1FvAg0DVfD+zTE275VdDdP+FT0T1HjX8CVVThh+2KHzQkOJVwO9zIcZSd8xdSh54FFXld3XoQwSqBXfL5UImXCgApNI5gmdLN5Gm8v6wMLjgdpj8a7NyXivC3Qo1/gjmgZx/YZVeoqtr+15VX4caeStm5t+J2G08et2vZmaAIOCRfD5R4qQCQQlIF3A78KF8PPGhveO1fcO3l0HX7PbQm1PgLgO/QET9qNHTrvuMvrO1J6uhLSH35V9C1X36Sg+7AY8Ap+XqgxEcFgBSKbsAjBOuTI9epA1x3BTx7B4yJYILfJ6nxly2kyvB1u+AH1LW7i5Sr25uyr96E2/+kHQ4fGKoi2F77B/l4mMRHBYAUgt4Ek5DG5eNhh+4Hb0yCb02Mtrt/k01L/aJs/K84S41/0XFA774wfFeoaGcSfkUVqcO/TuqMP+D65mWY3hHsGng92jK+ZKkAkLgNAJ4B9oz6QbUd4c9XwlP/B8Pron5aQEv9pD2+Uy1+5O74Dh3b/VrXe2dSE6/FHXQquLx8fJ9PsP+G2ooSpG+qxGkw8BTBPuWR2m80vH4fnPMlm337M6E3f8lYRSWM2G27GwdtIVVO6pCzSJ12DXTdKfrc4FyCIYG878Ap0VIBIHEZATxHMPM4MmVlwYE9z9+Zv7d+0A5/kgOXwtcNh34DMvvynUZRduafcLtNiDavwMnAPcR88qbY0qdHOB2A/kDE88cz1gh8CKyIO5F27AE8TjD2H5n+feDvv4ND9ovyKVtTt7/kzIHvNwAqq3BzZ398suD2VHUgdfT38UP3Jf3INdDcEGV2RwP3AscTfNZIkdMnSPbKCbalPQMYC+RlWm6W3gPuBK4GVsacyycNBx4l4sb/sAOCxr9vnvc205u/mOjRC19ZhZs1HdraKQIAt+tnKOs7gvS9P8Yvq48ysyOB+4AvAE1RPkiipyGA7IwA3iLYP/tTFGbjD0GelwEzgeNizmVzgwjWGEe216lzQZf/439V4y9FrrZzsEJgO+cIbKX7AFITr8ONjHwxzRHA39ELZNFTAZC5PYGXgF3jTiQL3YB/AmfHnQjBUMmTBBP/ItG5E0y6Aa66OBj7zyd1+0sUfIdO+F12g8oMz+qprCF17I9IjTsn6lUCxwM3oTakqOmbl5kuBN1eeduX3lCK4LSvA2LMoTfBmL/xYbofGzoQXrgrOLo337TJj0SqugY/fDeoynT+ncMdeDKpL10FVZ2izOwM4Dq0T0DRUgGQme8T4ZtrHlQC1xLPL2o3gm7/iM7Vg3H7w8v3wG7Do3rC9iWt8W9pizuDhKqqwo/YDaprMr7F1e1N2WnXRH264PnAVVE+QKKjAqB9FcB5cSdhYH8gz/PhqSRYOhTZcb5nnACP3gY9u0X1hO1LWuO/bLXnvN+0xJ1GcpVX4IfvCtVZrMTrOZiyidfh+kW61cb3gG9F+QCJhgqA9o0leIstBZ/P47McwWTJw6J6wLfPCI7vrYxhe5KkbfKzdJVn/HeaeXumjzuVZKuoCOYEZNETQMdupL5yNW7UYZGlBVxDYU04lgyoAGhfDB3LkRmWx2ddAZweReCyMvj9j+Gay/K3q9/mkjbhb9lqz4T/UuNfMMor8MNG7fhI4a3uqSR1zA9xe0fWRqeAvwH7RPUAsacCoH2RzqLJsy55es4ZwOVRBK6sgH9cA988LYro7Utit7/e/AtQZSV+l12zmBgIOEdqwrdwB0Z20m9H4N8Ey32lCKgAaN+SuBMw9GEenvFp4EYimHBYXQX3/hFOPNI6cmbU+EtBqagKegLKsxsDS407m9ShX40oKfoBD5K/lw0JQQVA+96IOwFDb0YcfzDwD4LJf6Y61ARr/D93mHXkzGjMXwpSVRUMGwGp7Da+cGO/QuqIC6MaQ9uNYCfSQt0oTTZSAdC+94CpcSdhoJVgL4Oo1AD/AnpaB67tCA/fDBM+ZR05Mxrzl0LmO3TC77xL1hv/uL2OIXXkf0VVBBwB/CiKwGJHBUBmfhZ3AgZuAhZEGP8PwBjroB1qYNKN+T/QZxO9+UtRqO2CHzw064E3N/ooUkd+l4i2CLmc/K48kiypAMjMXQTr2YvVTKKtxi8gOCDJVGUF3P374GCfOCRtb/+lq/TmX9S698T3HZj1bW70kaQ+840IEiIF3E7ER35L7lQAZMYTLGl7PO5EcjAHOAZYHlH8scBvrINWVsDd18NRkZ9rsm1q/KUo9e0P3bMfhXP7noA7OJJVu90IXp46RhFcwtEkjcy1EJyA5Ql21DOf6GbME0zIO5GgCIhCb4IDfkzPSEil4O/XwPETLKNmLl9j/oXS7Z/3Mf9O3XBHnZ+fZyWNAzp3hTWrcC3Z7droBu0JLY2w4B3rrPoQHAb2L+vAEo4OcchNX+Ak4DMEM987x5vORxoJxvlfJBi2iHLyoiOYVHiMdeBrL4cLInkZaZ+W+uVBnyGkrp2Sv+clUUszbvpUaGnO8kZP+sHf4qc8HEVWXyF4iZICoQJAcnU+cL110EvPgyv/n3XUzKjbP09UAOSFW78WPpgW/GBnI91K+q4f4utft05pNcFE4XrrwJIbzQGQXIwC/ts66MTj4BfftY6aGS31k1LjO9biB+RwiGmqnNRxl+N61Vmn1AX4Kxp6LhgqACRbFcBtQAfLoAfvA3++Mr69/bXUT0pSzz45TQqkqiOpk66C2l7WGR0CXGIdVHKjAkCydSXGxwrXDQi2+K2KYVql3vyl1PmBQ7M7QniT2p6kTvwpVORw745dQXA8ucRMBYBk41PAf1kGrO0YbPHbq7tl1Mxowp8kQlkKhuwSLK/JkusznNRR5pNyKgiGAswrC8mOCgDJVBXwZwx/ZpyD238Le4ywipg5Nf6SJL6mA75/DvMBADfqMNx+XzTOiBHAZdZBJTsqACRTPwJGWga85Otw7HjLiJnRmL8kUq8+0DW3rrbUYecG+wTY+h6wl3VQyZwKAMnEHgS/rGYOOwB++h3LiJnRUj9JMj9oaNbHBwOQKiN17GXWkwLLgRvQqoDYqACQ9pQRdP2bTdHr1xv+/jsoz/OvvSb8SeKVl+MHDsnt3g5dSR13OaRMf773A75tGVAypwJA2vNtwOw4nlQK/u9q6Gu+umjHNOYvslG37tCtR063up1GkTrkDOOE+BmQY1UiYagAkB3pA/zYMuD3v5b/0/005i+yJT9wCFTkMBQAuANOxg02HbrvCPzOMqBkRgWA7MhVGJ5zsO8e8JOLrKJlRt3+tuLYqEkiUF6OH5TjS7dzpD73PaiutczoC0BMx38llwoA2Z69CY5ANtGxBv72W6jIYzupN39bNdXwy5jOaZAIdOme86oAOvcidaTpliAA1xDsESB5ogJAtsUB12H48/Hfl8CIoVbR2qc3f1s11XDfn2D8wZGEl5j4gYNz2iAIwI04BLf7EZbpjAK+ZhlQdkwFgGzLKcBBVsHG7Q/nfcUqWvv05m+rpjrYrXHCpyIJL3GqqML37Z/z7anx34TaHM4a2L6fAbnNUJSsqQCQT6oh2O/fRIcauOmX+Rs71jp/W5saf735l7A+/aC6Jrd7qzqS+vQ3LLPpRnBWgOSBCgD5pAuB3PYM3YaffQeGmUXbMXX721K3f0K4FAwaGgz85XL7yHG44aY/JOcBO1sGlG1TASCb6wJcbBVs3z3gQvMlw9umdf62NjX+6vZPBt+pNvcJgUBqwgVQ1dEqnQrUC5AXKgBkcxcBJufypVJw/Y+hLA+7/anxt6XGP5n8ToOC3oBc1PYkNe4cy3S+gvHZI7I1FQCySVeCAsDEuV+G/c3PDtmaJvzZ0oS/BKuqhp69c77djTka18/saM8y1AsQORUAssn3CIqA0Lp3hZ+bLxHemib82dKEP/H9+kMqx24753Cf+SY5TybY2peBPLxGJJcKAAHoDVxgFewX/wU9u1lF2zZN+LOlCX8CQHkFvu9OOd/u+u+KG3WYVTYO9QJESgWAAHwX6GQRaNdhcM6XLSJtn8b8bWnMX7bQuy9U5H74Z+qwc6G8yiqb41AvQGRUAEgthrtv/fr70R7zqzF/Wxrzl62kyvB9cu8FoHNv3AFfssrGEbygSARUAMg5GI39H3YAfP5wi0jbpm5/W+r2l+3q1TtcL8ABX4aOZuOAJwMDrILJx1QAJFs5wcY/oTkX7PcfFXX721K3v+yQS+F79839/opqUgeeYpVNBUafU7IlFQDJdhJGu/4dOz7Y+CcK6va3pW5/yUivPlCe++F8bszRUNvLKpuvEWxUJoZUACSbybp/5+CKb1tE2pqW+tnSUj/JWKoM3ytEL0B5JamxZqeAdQbOtQomARUAyTUO2N8i0PFHwJhRFpG2pDF/Wxrzl6z17gtluTcTbvRR0CVEEbGlbxMMW4oRFQDJZXKEVyoFP47g7V9j/rY05i85KSuD7rnvDkhZOamDTrPKZiBwtFUwUQGQVD0I1teGdsynYQ+z3T8DGvO3pTF/CcP37keY3f3c7uOhs9lcANMDB5JOBUAynQWY7NRxsfGonMb8bWnMX0KrqoLOIebfpcpJ7XWsVTZHAYOsgiWdCoBk+qpFkP33hIP3sYgUUONvS42/WPF9+oW63+31BavjglPAmRaBRAVAEh0KmEzZu+TrFlECavxtqfEXU526QHVN7vdXdcCNPtIqm3MITguUkFQAJI9Jp/3QgcHafwua7W9Ls/3FnAPfs0+oEKl9T8j9pMEtDQSOsAiUdKqikqUzcDPBzlqhXHIefGrf8Alptr+tqGb7L1wCd9wP19wGs+aFDNbcCMsXBMfH9ugPZaF/HCUfqqpxSxeBz/Fnt6oTLKuHZXMssqkE7rIIlGRmBzdLUZgI/DVskOoqmPdc+CN/1fjbsm78m5rh3kfhxjvgqZdz/9zfoeqOuINOwo0/C3Y2nFAikXCz3odVK3K+3895k/QdF1uk0gD0AdZZBEsqDQEki8kRXScdpcY/W8XU+K9rgF/fCIMOgVMugidfiqjxB2hcj//PraR/MI70Dw/Hv/lIRA8SC757uOV8bvAY6BripMGPdQCOsQiUZBoCSI5uwB8x+J7/6WcwMMSk4KQ1/vmY8GfR+Le1we9vhxPOh0lPwPoNNvllbMVCeO5O/ORHcQNHQg8dAFdwqqpxy5YEv8Q5cbjWJvycNyyyKQP+YREoqdQDkBzHEYybhTJyZxi7V+73q/G3ZdX4vzQZ9j0OLvwZLFtpk1vOZrxG+vIJ+D+dD2tz726WCDgH3XuGC7HHEZAy+f08kmBek+RIBUBynGwR5PTjc783iTv85WOpX5jGv60NfnUDHHoyTJ5ml1to3uOf/Cvp7+6Ln/xY3NnI5nqEKwDo2B238wEWmVQDZjsMJZGGAJKhJ3A9IQu+VAr+8kvoUpv9vfla6pekxj/sm//iZfC5c+Dmu0P06EataT08fxf4NG7XQ4I3UIlXRSVuxdKgesw5RhV+2pMW2VQC/2cRKInUA5AMR2NwitZhB8CgHObvqNvflkXj/+4MOPCL8NxrdnlFxqfxd/8Sf+2Z0NIYdzYC0LV7qNvdkP2CZYHhjQdMAiWRCoBkMNmC67QcOtvU+NuyaPxffgsO/hLUz7fLKx/8C/8k/fMvQOP6uFORkAUAZRW44QdZZFIFfNoiUBKpACh9ZcCEsEEqyrPf+U9j/rYsxvzfeAc+dzasWmOXV15Nf4H0lcfCBi3/jpPvUAuV4eYUu1GH2SRj9IKTRCoASt+BQMhyHQ4/ELp3zfzrk7a9b77e/MNs7zt9Jow/HVassssrFu+9hP/tKdDWEncmyeWALiGHAer2huocJhRt7SiLIEmkAqD0mfxyfDGLKHrzt2Xx5r9iFXzh67BytV1ecfJTnsTfdFHcaSSa7xpyN7BUOW7EIRap1AEjLQIljQqA0he6e6ysDI7LcBBBb/62LN7802k46QL4oN4srYLg/3Mb/tGb4k4juTrWhj7cxw03O7FKvQA5UAFQ2voAIbbtCYzdC3pl0NunCX+2rDb5+dWN8J8XbXIqNP72S2FeIW1gkCCpFHQK14XvBo2B8tD7k4EKgJyoACht4zD4Hh95aPtfo8bfllXj//pUuOJ3NjkVpOYNpK/7quYDxMTXdgkXoKIKN3C0RSoHY3DKadKoAChtJufCHTVux/+uMX9bFmP+EHxfvnkFtLTa5FWw5kzBP/THuLNIJNc5ZAEAuKH7GWRCB2Bvi0BJUhifqBKV0Att+/SEMaO2/+8a87dlMea/yV/uCtb8RyWVSjF6zF7sP/YgRowcxeAhQ+jUqZaaDjWsWb2GlStWMHvWDKZMnsyLzz/LgvnRbTzg774Sd/BJ0C3EKVWSNV/dAVdRCS3NOcdwQ/eHJ0wKuIOBly0CJYX21SxdnYCVhCzyJh4Hf/3Ntv9N3f62LI/03dAIO38aPlwSPtYnde/enfPOO4/TTjuN1vJq2jLYR9h7z+Q3XueOv/2Vxx95mHQEew+7I87BnV3K4x2Fyc2ZAcuXhYrRdsNEWPVh2FTuAU4MGyRJNARQug7AoIfn8AO3/fdq/G1ZNv4Af/6HfeNfUVHBRRddxLRp0/jhD3/I4MGD6ds9sy5g5xx77bMvv7r6Wu6c9AD77Le/bXKAf/J2WL7APK7smO8Yfi2/qzPpvTdbUpAUOgyodE0EDg8b5Lc/gE9+xqvxt2Xd+Le2wUnfgrWGO+bW1dXxr3/9i9NOO43KzXaAq6wop7m1jeYsJhp0796DY44/gY6dann15RftegPSweE0bs8st6yUUBwOloWsNpvW4d9/PmwqnQgOBtIZ0hlSD0DpCt2c9OsNOw/a8u804c+W1YS/zd3/H1iw2C7eXnvtxdNPP80+++yzzX/v3bUzqSxP6XPOMfGsr3L9TbfQsZPdWS7+qduhqcEsnrTP13QIlgSG4PrvbpSNegGyoQKgdIXuUxv3iV5aTfizZTnhb3N/ucsu1pgxY3jooYfo2XP7Z8CXlaXo1jm3Rnz/A8dy7Z/+TFV1da4pbmn9avyr/7aJJZlxDjqGLOK69oNOoXcsB9jXIkhSqAAoTf2BHmGDHLLZ6hx1+9uy7vbfZMUqePhpm1j9+vXj3nvvpba2/THebp064rLsBdhk733346e//HVO927T84YVkGTGYh6ATS/AHhZBkkIFIl15sgAAIABJREFUQGky2Vljv42/Smr8bUXV+AM8+HQwByAs5xw333wzvXv3zujrUylH104dcn7eEUd9ji+e/JWc79+cn/IUNOnI4HzyYXsAADdgN4NMbD77kkIFQGkK/UtQWQGjR6rxtxZl4w/w7yds4kycOJFDD81gC8jN1HaoCfXMC797MT169goVA4CWxqAIkPzpkHvx95Gddg0fA7oCg9r9KgFUAJSqPcMG2GMEVJQnb8Lf+O8U14S/T3rutfAxqqqquOyyy7K+r7qygsqK3L+XnWprOecb5+d8/xbeK9HDDwpVeRWUhzwYqNfQYD5BeOoFyJAKgNIUehxszKhkTvibMqu4Jvxtbv4iWGiw9v/kk09mp512yuneDtVVoZ59/Ikn0bVbyGNmAf/+K6FjSBYc+KpwPUBUVEHX3H7uPkHzADKkAqD0VAEjwgaZ9IS6/a1E3e2/yWtTbOJMnDgx53trKsOd7FZVXc2Rnz8mVAwAZk8GH833U7bN1XQMH6P3UINM1AOQKRUApWcYBqdiLY1wKw01/tGYOTd8jN69e3PggdvZ/jEDNVXhD2Q7fPyE0DFoaoBVi8LHkYz56pA9AIDrNcQgE0ZaBEkCFQClpy7uBHZEjX90Zs8LH+OQQw7JeTkfQHlZGamQm8KM2WvvLXYbzNmSOeFjSOZqDCYC9jLpATCpIpJABUDpKdgffjX+0bLY/W+33cIvxaooC/exUllVxcBBg0Pn4VcsDB1DsmCwmZNRD0AXwGRXoVKnAqD01MWdwLao8Y/e+g3hYwwZEv4DuKws/BEjAwYODB2DDWvDx5DMlVeCC9mkdOkLKZMjagr2RaiQqAAoPQX3g6+lfvmxzmDvm86dO4eOYbGSq5NBHjRqM6C8cgQbiISRKoNag70gCvRFqNCoACg9dXEnsDkt9cuf5pbwMaqqwi3jA0iFfQsEqqsMzgZobQofQ7JTaTAM0KWvQSKF9yJUiFQAlB6TWTQW9OYvsdIywPwzKCCxKQDqLIKUOhUApaWWYCvM2OnNXyR5fEX41Ruuaz+DTAg/izQBCuMTWqyYDJ6FdcVZhdX4j/9OtI3/pBvU+IsAJkMAdOkTPgZs//xq+Yh6AEpL6COAw9Kbv0iChZ0ECFaTAFUAZEAFQGmJtQDQUr/4vPgmvDcr7iwk6ZzBElBquoSPoQIgIyoASktsQwCa8BefF9+EI8+CdQ1xZyJJ58vCfwa4GoMloMFmQAbdEaVNBUBpiaXq1Zh/fDY1/mvWxZ2JCFBh0OZ26EywqUAoDu0G2C4VAKUl70MAavzjo8ZfCk6qLPxOUKlyCHu0cEDDAO1QAVBa8lrxasJffNT4S8EqN/hMsJkHEPuk6EKnAqC0GBzHlRlN+IuPGn8paIUzDyBvn4fFqjA+wcWKwTZc7VO3f3zU+Euh886FH8EvMzgOGkyClDL1AJSWyAsANf7xUeMvRcHgLAjKTSbw5+WFqJipACgtkf7Aq/GPjxp/KRopg+Mgy1QA5IMKgNISWZeXGv/4qPGXYuIsegBUAOSFCoDSEskPvBr/+Kjxl6ITdhkgQLnJu4wKgHaoACgt5j0Aavzjo8ZfilJKPQDFQgVAaTFtqbXOPz5q/CXRUgZnCmgr4HYVxqe7FBy9+cdHjb8knsUwgsF+wqVOPQCyFTX+8VHjLyL5ogJAtvD9rxRW469ufxGRaBTGJ70UjM/sWxg1od78RUSiVRif9iKbUeMvIhI9FQBSUNT4i4jkhwoAKRhq/EVE8kcFgBQENf4iIvmlAkBip8ZfRCT/VABIrNT4i4jEQwWAxEaNv4hIfFQASCy0yY+tYf0ddX2186mIZE4FgOTdpjf/t2dG++Y/4VORhM9a1I3/8AGOJ6+tpEcXFQAikjkVAJJX6va3NXyA4z/XVNK/pxp/EcmOCgDJGzX+ttT4i0gYKgAkL9T421LjLyJhqQCQyKnxt6XGX0QsqACQSKnxt6XGX0SsqACQyKjxt6XGX0QsqQCQSKjxt6XGX0SsqQAQc2r8banxF5EoqAAQU2r8banxF5GoqAAQM2r8banxF5EoqQAQE2r8banxF5GoqQCQ0NT421LjLyL5oAJAQlHjb0uNv4jkiwoAyZkaf1tq/EUkn1QASE7U+NtS4y8i+aYCQLKmxt+WGn8RiYMKAMmKGn9bavxFJC4qACRjavxtqfEXkTipAJCMqPG3pcZfROKmAkDapcbflhp/ESkEKgBkh5LW+L8+FT5/jhp/ESl9KgBku5LY+E84A1aujia+Gn8RKSQqAGSb1PjbUuMvIoVGBYBsRY2/LTX+IlKIyuNOQArLslWe8d9pUeNvRI2/iBQqFQCyhfN+28Ka9dHErqmG+/5UOI3/S5Phs2dGN+FvWH81/iJSuDQEIFuIsvGfdANM+FQ08bP1+lT43NnRzvZ/8lo1/iJSuFQASOTU7S8iUng0BCCRSqXg6h/C0EEwa17c2cCMOXDSt6J78+/V1XHT9ytoaoZZC6OZR7E9Tc35fV7BW7cSFs+OO4vkWbEA1qwKF6OpwSYX2SEVABKpdBrOuyzuLPJn6SrPuAua405DAD/pavykq+NOQ6RgaQhAREQkgVQAiIiIJJAKABERkQRSASAiIpJAKgBEREQSSAWAiIhIAqkAEBERSSAVACLykXQ6HTqG9+E3JGpLt4WOISI7pgJARD6yfn34wyDaDIqIBoM8RGTHVACIyEeWLFkSOoZFL8LyZctCxxCRHVMBICIf+eCDD0LHaEuHHwKYU18fOoaI7JgKABH5yCuvvBLq/rT3tLaFG7//cOECli0N3xMhIjumAkBEPvLGG2+wcuXKnO9vam4JncMLzz0bOoaItE8FgIh8pLW1lX/+8585399oUAA89O9JoWOISPtUAIjIFm688cacl/I1NDaFevYH77/HG6+9GiqGiGSmPO4EpMBUd4SyirizSKZ0GsKuoW9phLZwb+HvvPMOkyZN4thjj83qvrZ0moam5lDPvvH660z2EaCmE6T08RaLAvk5lvbpN0S24P7fHbg9Do87jURyGzbAtLdCxfBv3Ef6setC53LppZcyYcIEOnTokPE9axsaQzXer7z0Io8/8nDO93/EpUhd8zZ06R0+lmTNzXofVq0IFSP9yNX4yQ8YZSTboyEAkQLha2rwHTqFiuGGjTXJZc6cOVxyySVZ3bNmfUPOz1u7Zg0//dGlOd+/heH7qfEXyYAKAJFC0nencPd37o3rNdQklb/85S/ceuutGX3t+samnCcAtra2csl3L2LB/Pk53f9Jbp+jTOKIlDoVACKFpEt3fE3m3e7b4vY4wigZuPDCC7nnnnva/boVa9blFL+trY3LL/keLzz7TE73byVVhjvkZJtYIiVOBYBIIXHgBg4BFyLE7hPMJnK2trZy5pln8oc//GG7X7OmYQMbcpj8t27tWi46/+s8dL/dsj83ZgL0GGAWT6SUqQAQKTC+Uy1075V7gJouuJHjzPJpa2vj4osvZuLEiSxdunTLf0unWbpyTdYx33z9NU454Qs89/RTRlludMS5tvFESpgKAJEC5AcMgerqnO9PjT0VnO2v9z333MOYMWO49tprPzo1cPGK1Vmd/jenfjY/+t53Ofu0U5g/b55pfgzdGzfGbvhDpNSpABApRGUpqBsOqbLc7u8x0LQXYJNVq1Zx6aWXMmLECM7/1gU8/cwztLTsePLfyhUreOj+SXz7vHM54fNH8sCk+2zW+n+CO+lScCHGTkQSRvsAiBQo36EjDBkWrKvOocFMjTubtg9egNZwu/Nty8qVK7ntlpu57Zabqa6uYeiwYdQNGUqn2k506NCRtWvWsGzZUupnzWLunPpIGvzNud0Pw+2t2f8i2VABIFLIunTDD94ZN2dm9kVAl76kxp5C+tlbI0ltk8bGDbw7dQrvTp0S6XO2q7wS99XfxvNskSKmIQCRQte9J37oLpDK/tfVHfBlXK86+5wKiDvuu9B/RNxpiBQdFQAixaBLNxi+K1RWZXdfWQXuCz+C8izvKxbD9sWd8L24sxApSioARIqE79gJP2o0dOuR1X2uZx2pz5wfUVYxqu1B6qK/6vAqkRypABApJmVl+CHD8cNGZrVM0I35PG7fEyJMLM/KK3HfuR16DYo7E5GipQJApBh17orfdc9gbkB1TUa3pD59Hm74wREnlgcuhfvGH3G7HRp3JiJFTQWASNFy0LU7ftfR+F12hR69oGwH+wa4FKljL8MNPyh/KVpzDnf2/+A+9eW4MxEpeloGKFL0HHTqjO/UGQYNxW1owK9dg2vcgG9swLW2QGsrtKWhoorUST8nfe9P8dOeijvx7JRV4L7+e9y4U+PORKQkqAAQKSXOBRsIdejIpl0DtrV7gBv9b7j7l/i7r8xndrmr6YS78DbcXp+NOxORkqEhAJEkcg530g9w598A1R3jzmbHBu1G6hdPq/EXMaYCQCTB3LhTSf3mFRhxYNypbM053Pivkvr5k9roRyQCKgBEkq7XYFJXPIw791qo7R53NoHBe5D68aNBTlUd4s5GpCSpABARKCsP3rZ/+xruiHOhIqadA3sOxJ17DamrnoORY+PJQSQhVACIyMe69MadfTWpa6fgPvdN6NglP88dMBJ37rWkrnkLN/7s3I9BFpGMaRWAiGyt+064M36FO+XH+JfuhWf+jn/3OWhrsXtGbQ/cPkfhDj9Db/siMVABICLbV1mDO/QrcOhXcA1r8JMfg2nP4We8DnOmZFcQdOyCG7ZfcIDP6M/ALvvrTV8kRioARCQzHTrjDjoRDjoRB9DSBMvm4ZfUw/IF0LAamhuhqQE6dA4m73XogutdB70HQ7d+4Fy8/z+IyEdUAIhIbiqqoN8wXL9hcWciIjnQJEAREZEEUgEgIiKSQCoAREREEkgFgIiISAKpABAREUkgFQAiIiIJpAJAREQkgVQAiIiIJJAKABERkQRSASAiIpJAKgBEREQSSAWAiIhIAqkAEBERSSAVACIiIgmkAkBERCSBVACIiIgkkAoAERGRBFIBICIikkAqAERERBJIBYCIiEgCqQAQERFJIBUAIiIiCaQCQEREJIFUAIiIiCSQCgAREZEEUgEgIiKSQCoAREREEkgFgIiISAKpABAREUkgFQAiIiIJpAJAREQkgVQAiIiIJJAKABERkQRSASAiIpJAKgBEREQSSAWAiIhIAqkAEBERSSAVACIiIgmkAkBERCSBVACIiIgkkAoAERGRBFIBICIikkAqAERERBJIBYCIiEgCqQAQERFJIBUAIiIiCaQCQEREJIFUAIiIiCSQCgAREZEEUgEgIiKSQCoAREREEkgFgIiISAKpABAREUkgFQAiIiIJpAJAREQkgVQAiIiIJJAKABERkQRSASAiIpJAKgBEREQSSAWAiIhIAqkAEBERSSAVACIiIgmkAkBERCSBVACIiIgkkAoAERGRBFIBICIikkAqAERERBJIBYCIiEgCqQAQERFJIBUAIiIiCaQCQEREJIFUAIiIiCSQCgAREZEEUgEgIiKSQCoAREREEkgFgIiISAKpABAREUkgFQAiIiIJpAJAREQkgVQAiIiIJJAKABERkQRSASAiIpJAKgBEREQSSAWAiIhIAqkAEBERSSAVACIiIgmkAkBERCSBVACIiIgkkAoAERGRBFIBICIikkAqAERERBJIBYCIiEgCqQAQERFJIBUAIiIiCaQCQEREJIFUAIiIiCSQCgAREZEEUgEgIiKSQCoAREREEkgFgIiISAKpABAREUkgFQClpS10hHT4ECIiobSZfA61WAQpZSoASktT6AitzQZpiEhipdPhY7SZfA6F/zwscSoASkv435oWFQAiEoL34WO0mby8qwBohwqA0mLQA6DfGRHJnfcGPQCtKgDyQQVAaQn/+q4hABEJQz0ARUMFQGkJ/wPfot8ZEQnBZA6ACoB8UAFQWlQAiEisnEUPgE1PpLoz26ECoLRsCB1h3UqDNEQksQyW8PnGtQaJGHweljgVAKVleegIa8OHEJEEa20NH6NhdfgYsMwiSClTAVBaVACISHzSaQi7CiDdCk3rLbJRAdAOFQClRQWAiMTHYvnehrWAwTwCWGERpJSpACgtoStev1a/MyKSG2fQ/e83mHT/r0aTANulAqC0hO/yUg+AiOTIm/QArAkfw6I3NAFUAJSW8D/0q5dAm8EkHhFJHotDfNaZtN0a/8+ACoDSEv6Hvq0VViwwSEVEEqfZYB+R1YvCx1APQEZUAJSWVUDoBbR+6VyDVEQkaZxBAeBXfWiQCfoQy4AKgNJTHzrCkjnhsxCR5GkqmB6A2RZBSp0KgNIT/gd/qQoAEcmBRQ/A6sUGiRi8CCWACoDSE74AUA+AiGTLA80hV955D2uWWGSjHoAMqAAoPaF/8P2imRZ5iEiStLZAOuQqgLVLrE4CrLcIUupUAJSe+tAR5r1rc6a3iCSGa24MHcMvmWWQCesBk26EUqcCoPTUh46wYa3mAYhIVnyjweF7S0167tX9nyEVAKXnfSD0bhx+7lSDVEQkKdyGhtAxvE0BMN0iSBKoACg9G4AZoaPMUQEgIpnzDRYFgMkQwBSLIEmgAqA0vR06wtx3DNIQkaRwjSELgLYWWDHfIpXwn38JoQKgNIWugP0cFdEikqGWZgh5EqBfNif8KoKAPrwypAKgNIWvgBfN1MmAIpIZg/F/Fr4bPgasA0zGEZJABUBpCl8AeI//4BWDVESk5FlMAJxvMu9oCsGWRJIBFQClqR4If6j2ey+FDiEipc+tD30GGX6+ybwjjf9nQQVAafLAG6GDTH/RIBURKWkeWLcuXIy1y2CNyRkAb1oESQoVAKXrhdARZr4OLQane4lI6WraEGwDHIKfbzZv7zmrQEmgAqB0PR86QksTzJ5skIqIlKx1Bt3/C0y6/1cC0ywCJYUKgNL1ApAOG8RPfSp8JiJSskzG/+tDj1hC8NIT+jMvSVQAlK5VQOh1Nf7NRw1SEZGSFbYHYM1SWD7XIpPwvZ4JowKgtIX/hZjxGqxdYZCKiJSclmYIeQqgn2m22kgFQJZUAJS28L8Q6Tb8lCcNUhGRkrN6VehV9372qxaZNAOvWQRKEhUApe1pkyiTNQwgIltza1eFC9DWip9jMtH4ZYKD0CQLKgBK21ws5gG89Th4ba4lIpvxHtauDhdi/hRoNthGGB6yCJI0KgBKX/hfjFWL4YOXDVIRkVLh1q+D1nCH9/j3zYbtVQDkQAVA6TP5xfAv3mMRRkRKxZqQ3f/e499/1iKTRcBbFoGSRgVA6XsWCL1Q1794j9VRnSJSAnzIAsDPexvWmZw4+hA6ACgnKgBKXzMQfhr/ykU6HEhEAk1NuIb1oUL46U/Z5KLu/5ypAEiGhy2C+BfutggjIsVu5dJw9/s0/j2T7v824AmLQEmkAiAZJmGxLfDL92kYQERgZbjNwfycydAQcg5B4BlAO5XlSAVAMizAYlOg1UuCJYEiklyNjbgN4Zbu+alme4vcYRUoiVQAJMc/TKI8catJGBEpUiuXhbu/aZ3V7P9W4F8WgZJKBUBy3E0wXhaKf+MhWPmhQToiUozcynAz9/3Ux4OjxsN7AlhiESipVAAkx2IstgZua8U/9bfw2YhI0XEN66Ax3I67/m2zSft3WgVKKhUAyWLyC+P/cxt4HbstkjjLws3+9wun4ZfMtMikBXX/h6YCIFnuIfjFCWdJPX7KU6HDiEgRSbfBinDj//6tB42S4VE0+z80FQDJshR4wCTSg9ebhBGRIrFiebhlwA2r8O/+xyqbW60CJZkKgOT5s0UQP/lRmDfNIpSIFIPl4br/02/cB60mk/+WAf+2CJR0KgCS52FgTugo3uMf/H34bESk4LnGBtz6EEeKtDTh35hklc4tgEklkXQqAJInjVH3mX/2juCMABEpbUsWh7rdT3kYNqw2SoZbrAIlnQqAZLoJgz0BaGnCP3pj+GxEpHC1tsCKEN3/3pN+zew48acBjT0aUQGQTPOxOiDo0T/DhtCnDYtIgXJLF0M692W//r1nYOUCq3RusgokKgCS7E8mUdatxD+guQAiJSmdhqUhuv+9xz9/u1U2y4B/WgUTFQBJ9gBGXWn+getg3UqLUCJSSJYvDYYAcuSnPYlfVm+VzfVAuG0IZQtlcScgsWoBjgkfpQnKK3G7jwufkYgUCI+bMxNaW3O8PU160s9gwxqLZBqB04D1FsEkoB6AZLsNMJnG7x/8PawOt05YRArIyhWh9v33Ux+F5fOssrmV4DwTMaQegGRrAzoCh4eO1NoCzuFGfzp0KBGJmfe42R/k/vafbiV938+gcZ1FNmmCt/9wxxDKVtQDIL/HqFvNP/QnWBp+jyERidnK5eHe/l+/D1aZHRt+H/C+VTD5mAoAWQH81SRSSyP+bz8yCSUiMfEet2h+7vdvWE3abuY/wP9YBpOPqQAQgKsw2lrTv3QvvPucRSgRicOKpdDYmPPt6WdvhSaTrn+AJwB9oEREBYAAzAX+YhUsfdv3wp0aJiLx8B63aGHuty+rtzzyF+AnlsFkSyoAZJOfAw0mkerfxj9l2gUoIvmwdBE05f7275/4o2Xx/xDwrFUw2ZoKANnkQ+AGq2D+jp/A2hVW4UQkaq2tuEW5b9nrpz+Nr3/dKhsPXG4VTLZNBYBs7krAZmP/1Uvxf/uBSSgRiZ5bOC/3ZX9N60k/8QfLdCYBr1kGlK1pHwDZXAPQBfiUSbT6t2HEAbg+Q03CiUhEGjfg5s7K+fb0Y9fCvClW2XjgFIw2KZPtUw+AfNKvCA7dMOH/fCE0afdOkULm5tWD9znd6+e8iX/7Ect0/gZMtgwo26YeAPmkRmAd8HmTaOtXQUszbs/PmIQTEWOrVuAW5zjzv7WJ9N0/hEaT/f4h6IU8ATALKNunHgDZlhsBu/68B6+HD16xCiciVtrSuHm5796ZfvY2WJn7xMFt+CVgdoCA7JgKANmWNuAis2jpNtLXnQ0bzDYHEREDbuGc4DTPHPh5b+NfvdsynXlo17+80hCAbM9sYAww0iTa+lWwegluX5uRBREJxzWsg7n1ud3cuJb0nZdY7vgHcA7wlmVA2TH1AMiOfBejLYIB/JN/xb/wT6twIpIrn8bXzySYcJ+99CO/gzVLLDN6HtCHQ56pAJAdmQX82jKg/8tFsNx0zFBEsuQWLcTleNqff+tB/PSnLdNpAb5BrtWI5EwFgLTnF8B0s2jrVpL+/TnQluOGIyISitvQALnO+l8+13rDHwheMswmHUvmNAdA2tMGvA58FXAmEZfOhZZG3OhPm4QTkQz5NMyYjmtpzv7e5g203fl9WLfcMqP3ga8AeiOIgQoAycR8oC+wn1nE91+G/iNxA0eZhRSRHXPz63GrV+Vwpyd9/1Uw13SOnge+DHxgGVQypyEAydQlWK7P9R7/p2/AvGlmIUVkB9asgmWLc7rVv3yn9bg/BIeP/cc6qGROBYBkag1wnmnExvWkf3sKNGjTL5FItbbg5szMaZqdnzuZ9DM3W2f0IXCpdVDJjoYAJBsfAEMI9gewsW4FLJiOG3sCONWjIvY8btYHsKEh+1tXfRis92/ObcXAdhOCLwFTLYNK9lQASLYeB74I9DCLuPADWL0Ut89RZiFFZKMPF+CW57Bmv2k96Tu/B6tzGzbYgWuA662DSvZUAEi2moGXgLOw/PmZ9SZ06oYbbjfPUCTx1qzGzZud/X3pVtL/vAy/0G4F8EbvACejWf8FQQWA5GIhwZLAw02jvvUEDNoN13+EaViRRGpqws2cBul0ljd60g/8Bv/B89YZNQJHAdoJrEBo0FVy9QvgOdOIPo3//Tkw83XTsCKJ49Mw+31ozf5FO/3Mrfh3HosgKS4G3o4isORGBYDkqg2YCOSyqHj7mhpIX3UiLHjPNKxIkrg5s3EN67O+z79+L/7F/40gIx5A4/4FRwWAhFFPUARk28e4Y2uWkf7JUcHkQBHJzqIFsGJp1rf5qY9Gsc0vwBzgTLTXf8HRHAAJ632Cn6NxplGb1uNfewC3/xegYxfT0CIla+Vy3Lz6rG/z7z8X7PTnbWt5gnH/I4GZ1oElPBUAYuEZgm2Ch5tG3bAG/+bDuAOOh5pOpqFFSo1btxY3632yfdH2s18j/a+fQDqSiflfAx6MIrCEpyEAsZAGTiM4PtjWhzNJX3ksrM6+S1MkMZqaYNb7Wb/B+1mvkr7ncmhriSKrPwC3RBFYbNic7iYSGA28CHQwj7zTcFI/uh969DcPLVLUWltw700NioAs+Bkvkr7vZ9Caw8mA7XuJYFgwkuBiQ0MAYmkxMINgp0Db4nLtCvyr9we7BXbqZhpapGi1tcGMabjG7Lbq9e88TvrfV0JbJN3+84AjsF4hJOZUAIi1d4AmYLx55PWr8C/egxszAbr0Mg8vUlTSbTBzOm79uqxu85PvJ/3wb6OY8AewFphA8CIgBU4FgEThOWAnYB/zyI3r8S//C7f7YdCtr3l4kaLg07hZH+DWZneSpn/5zo1L/SJZkdcCHAe8EEVwsacCQKLyELAXYL+vb1MD/tl/BNsG72S78ECk4PmNp/utyaKH3adJP359VJv8bHIB8I8oHyC2VABIVDxwP8He3/av6m0t8OI9UNsDN8y+o0GkIHmPq/8AVq3M/J6WRtL/+in+ncejyyvYGvzXUT5A7KkAkCg1E2wBeiLQ1Ty69/DmI9DcgNvjMHBa1CIlLJ3G1c+AVSsyv2fdCtJ3fh8/963o8oLbgW9H+QCJhj4xJR+GEWwW1C+qB7gDj8OdfyNU2a9AFIldui3Y5GfN6oxv8Utnk777R7BmcYSJcS/wJXS8b1FSASD5MgJ4GugT2RP670Lqu3dA/10ie4RI3m1a6pfFbH//7n9IP/w/0NIYYWI8DhxNsOpHipAKAMmnPYEngegW8tfU4s6/IThDQKTYtbZmt9Qv3Ub62VvwL90RbV7BTP8jgOyPHJSCoTleNkETAAAI0ElEQVQAkk+LCXoBTgYqI3lCazO8dA80N+J2H6d5AVK8mhpxM6bhNjRk9vUNq0nfc3nUk/0AJhM0/mujfpBES5+OEodPA5OAjlE+xI05AvfNG6FzzygfI2LONayDme9BS2Z79Pu5bwU7+61bHnFmvEmwyVcWMxGlUKkAkLjsBzwMdI/0KV164c77A27voyJ9jIiZVSuC2f7pDHbqS7eRfuF/8S/8Laqd/Tb3KsHRvmr8S4QKAInT3sAjQLSv6M7hPnMW7vSrtEpACtuSRbj5c8hop77Vi0j/+5f4Be9EnhbB0N0xqNu/pKgAkLiNIphNvFPkTxowktQFN0Pd6MgfJZKVdBo3rx6WL8noy/3Ux0g/di00Z3cIUI4eAE4C8vIwyR8VAFIIhhAUAUMjf1JZBe7oC3Bf+hGURzMPUSQrzc0w+wPc+gxertctJ/3Ydfj3n4s+r8CdwGkE+/xLiVEBIIViEPAgsFt+nrY7qa//Hobtm5fHiWyLW7cWZr0Pre20r97j37iP9DM3Q3OGqwLC+xPwLaAtXw+U/FIBIIWkluAwkfzM2HMp3GfOxE38JVRHuiBBZEseWLoIt2BOsKX1jqxcQPrh/4l6O9/NeeCnwI/z9UCJhwoAKTSVwA3AmXl7Yq/BuDOuwu13TN4eKQnW2oqbO6v9Pf2bN5B+6e/4V+6EtrzttNsInA7cla8HSnxUAEihuhC4mjz+jLrdDsWd8SsYvEe+HilJs3YNbs6MYNx/uzx++jOkn7wB1mQ2KdDIcuB44Nl8PlTiowJACtlpwE1AVd6emCrDjT8L96XLoLZH3h4rJc573KIF8OECdrTEzy+chn/8evyH0/OXW+A94PPAzHw/WOKjAkAK3QHA3cCAvD61Y1fc8RfjPvs1qKzJ66OlxDRugPoZuIYdbJu/aiHpZ2/Fv/skGe0BYGsSQbd/5kcNSklQASDFoCfwd4ItSPOrc0/c0d/Gfe58qKjO++OliHkfTPRbOB/S25lIv2Yp6VfuxE++H9ryvtLOA78GfgBEvo2gFB4VAFIsyoBfAN8jjp/bHv1xR1+Im3A2VORvREKKk9vQgJ87a/un+DWsIv3q3fjX7gkOsMq/5cCpBDtxSkKpAJBicxJwM9Aplqf3rsMdcyFu3KnaVli25tO4RQth0cJt782/aiHpV/+Jf/uhuBp+gDeAE4H6uBKQwqACQIrRSOB/Cc4SiEdtD9wR5+I++3Xo0iu2NKSArF2NmzcbGhu3+ie/cBr+lbuCHfyiP7RnezxwPXAxwXI/STgVAFKsKoGfA98FUrFlUVGNO/QU3Oe/Bf1HxJaGxKilCbdwHixftuXf+zR+xktBwz9/Sjy5fWwJcBbBbpsigAoAKX6HA38l36sEtmXoXsGpg4d8Gaq0s2DJS7fhFn+4dXf/uuXBYT2T74fVi+LL72OPEWystTDmPKTAqACQUtAF+CNwStyJANChM+6gL+ImnKOTB0uRB1YuxS2YCy0bZ+77NH7OZPxbDwTd/Nub9Z9fjQTb+f43muUv26ACQErJRILdAwtnB5+he+MOOhF34PHQa1Dc2UhYa1fD/Lm4DeuDA3oWTMVPexr/3tOwfmXc2W3uReAc4N24E5HCpQJASk034Crga3EnspUBI3EHnoA79BToMyTubCQba1fDgnm4hnX4ZfX46c/g33kMVn0Yd2af1EBwkM9v0Cl+0g4VAFKqPkcwLFB4r90uBcP2xe11BG7MBBi6V/B3UnDcurX4+vfgnWfws1/Fz3w53/vzZ+N+4HxgXtyJSHFQASClrBNwJfBN4lwp0J7OPXF7jocxR+D2OFzLCuPm0zDtZfyLk+C954IZ/Pk7jS8XSwgOz7oj7kSkuKgAkCTYC/gdcGjciWSkW1/ciLEwYixu5FgYMgacflUj09YKc6bgpz0PU5/BT38eGopiW/wW4Bbgh8Cydr5WZCv6VJEk+RLB3ueD404kK5174obvHxxTPHh33KDdoe9QSJXFnVnxaVwP89/Fz5kKc6fiZ78FM9+E1qa4M8vWg8B/EZziJ5ITFQCSNDUEmwddAhTvYv3KmmBS4aZioHcdrvdg6F0HXXrHnV282lpg2Xz8knpYOgeWzIEF7+HnTAn+O76d+CxMB74DPBx3IlL8VABIUvUnmC19OlAecy62Kmug92BcjwFQ2wNqu2/8c+PVqRuuQ+dg4mFF1cfHHXfsWlhDDa3NwRs7BF3y3kNLE75hNaxdAetWBH+uXQ5rluLXLINl82D5gkJZh29pMcFhWH8i6PoXEZGQ6oAbgFaCLV506SqkaxnBZj61iIhIJEYRbCmsQkBXIVxrCPaz6IKIiOTFnsA9BJuoxN0I6EretQL4CdAVERGJxVDgGmA98TcKukr/mg18H73xi4gUjJ4EH8wLiL+R0FV61xuU4kRUEZESUgN8HXiL+BsNXcV9NRMMM41D5P+3dzcvNsVhHMA/Bk1kYfKyUEJRXmJhSvKykYUFG6XkP0SWitgoslIWKOUtk0gmr2VSI4vnTGYxJePO+Z2r76eezunWre/idp/nnH7n/CJirEyrJwe+aN9MUuNTr9XCvu0iImKsrcMF3NK+uaSGWXO4gtPy3pUYmPwgI0bjIC6q1w3vbpwl2prHHVzGNcy2jROxtAwAEaN3QN0ZuIQ9jbNEP37iPq6qK/63beNE/FkGgIiVswpHcB5ncKhtnBixOXWlf10t6nvTNk7E38kAENGfrWrl9zmcxVTbOLEML3C7qxv42jZOxPJlAIhoYw2O4RSO4yg2NE0US5nBXdzDTTxrGydidDIARAzDauxVw8AJnFQbFUV/5vHU74b/AI+bJopYQRkAIoZrSi0onMb+7vywevww/s1nPFIN/olq9g/xrWWoiD5lAIgYL2vVnYJ92LWodmIHJpslG55P6h37L/GqOz5XjX+mXayIYcgAEPH/mMA2NQxs6mqL2s9g86LPJtWmMxPd+fru+xsN6z/hh9qMiWrmCy/W+a4W383ifXdcqA94pxr+x37jRoyXX7dD4TQ8EpupAAAAAElFTkSuQmCC;" parent="1" vertex="1"><mxGeometry x="148.66000000000003" y="2420" width="40" height="40" as="geometry"/></mxCell><mxCell id="ew9f5I8vs3_mxuw4Yqn4-47" value="" style="fontColor=#0066CC;verticalAlign=top;verticalLabelPosition=bottom;labelPosition=center;align=center;html=1;outlineConnect=0;fillColor=#CCCCCC;strokeColor=#6881B3;gradientColor=none;gradientDirection=north;strokeWidth=2;shape=mxgraph.networks.hub;" parent="1" vertex="1"><mxGeometry x="617.8999999999999" y="2430" width="100" height="30" as="geometry"/></mxCell><mxCell id="ew9f5I8vs3_mxuw4Yqn4-48" value="&lt;font style=&quot;font-size: 24px&quot;&gt;ארכיטקטורה&lt;/font&gt;" style="text;html=1;align=center;verticalAlign=middle;resizable=0;points=[];autosize=1;strokeColor=none;" parent="1" vertex="1"><mxGeometry x="670.46" y="1230" width="130" height="20" as="geometry"/></mxCell><mxCell id="ew9f5I8vs3_mxuw4Yqn4-50" value="&lt;font style=&quot;font-size: 24px&quot;&gt;תהליכים&lt;/font&gt;" style="text;html=1;align=center;verticalAlign=middle;resizable=0;points=[];autosize=1;strokeColor=none;" parent="1" vertex="1"><mxGeometry x="664" y="2380" width="90" height="20" as="geometry"/></mxCell><mxCell id="Xlb7uxuFtpM8GHsKnaJM-1" value="" style="ellipse;whiteSpace=wrap;html=1;shadow=0;fillColor=#FFFFFF;" parent="1" vertex="1"><mxGeometry x="200.65" y="3614.7" width="184" height="120" as="geometry"/></mxCell><mxCell id="Xlb7uxuFtpM8GHsKnaJM-2" value="Logical Process" style="text;html=1;strokeColor=none;fillColor=none;align=center;verticalAlign=middle;whiteSpace=wrap;rounded=0;shadow=0;" parent="1" vertex="1"><mxGeometry x="272.65" y="3740" width="40" height="20" as="geometry"/></mxCell><mxCell id="Xlb7uxuFtpM8GHsKnaJM-3" value="main thread" style="rounded=1;whiteSpace=wrap;html=1;shadow=0;fillColor=#FFFFFF;" parent="1" vertex="1"><mxGeometry x="250.16" y="3654.7" width="84" height="25.3" as="geometry"/></mxCell><mxCell id="Xlb7uxuFtpM8GHsKnaJM-5" value="" style="ellipse;whiteSpace=wrap;html=1;shadow=0;fillColor=#FFFFFF;" parent="1" vertex="1"><mxGeometry x="436.78" y="3620" width="164.38" height="130" as="geometry"/></mxCell><mxCell id="Xlb7uxuFtpM8GHsKnaJM-6" value="" style="shape=image;verticalLabelPosition=bottom;labelBackgroundColor=#ffffff;verticalAlign=top;aspect=fixed;imageAspect=0;image=data:image/png,iVBORw0KGgoAAAANSUhEUgAAAKIAAABTCAYAAAAcPNynAAAFS0lEQVR4Ae2Zz2tdRRTH73/kqqv+Ad25KEJAs7GbFkRpQFpEXaRQLdlEKbaiEQvRhmh/pGK1loaIpoRibQm8FhrQCJF2FQqti1IXR85gaOfHy53HvHu4ZT4DIcw08+6Zz/meuef72sj/48+/t+Xdj6/IK1Pz8tL+2aKfl984I299cEl+G2ztfPxIv9fv3Xf79x2cK4pD92scq7c2R3p+3/64Lzy6jKNR6EvLA9l/eF4+O39Lrq79JRtbj4t+Vm5uydc/DGTynUX5/NsbI+V1/rvfZeLts27/9fUHRXHofo3jwPvn5NjpayPFoX/cJfjcYPrCo+s4Gr0JVYSDzYdFSR8mXhVB7o2kN6iKd9hnlaxPzVyWpeU7ufmXrsHnBNIXHhZxNPrq0lujJMm77dUbVl/3OePQ9AVZvHq3k1hGicMC/IvEwyIvjfZRpa/A3YSoN+2eiZM53GXv5Cm5vbHdiRA1Ru19c4YF+Jw4+sLDIo5Gk7ObkMbxb7kC6DqW3DgswOcIsS88LOJAiAlFWIBPPDZaqikOhBilX9wrfBxvgmGfoQLLGQix8OubMAGA978Og0fMgxsxcTXVdBMljh8tWfBAiBF2Xs0hEoRIi9DpNxp9ahG4EcPyF27EEAk3IjciN2LofEvmfXoFhNWemlvcAKnnhms1xcGrOcw+r+aIiEVBIMQIOz1iiAQh0iPSI5b0hOFeraicYVF5xPHsfzX6lBdezQllUhA+FAseCNFn7mYW4BOPjZZqigMhRunHrIRILAoCIYbU+fomIoIQcc245tD5lsy1onKGReURB665VQMI0UdUEw96RD/3blaTABLHj5YseCDECDuuOUSCEDErmJUScxLu1YrKGRaVRxyYlVYNIEQfUU086BH93LtZTQJIHD9asuCBECPsmJUQCULErGBWQsNRMteKyhkWlUccmJVWDSBEH1FNPOgR/dy7WU0CSBw/WrLggRAj7JiVEAlCxKxgVkrMSbhXKypnWFQecWBWWjWAEH1ENfGgR/Rz72Y1CSBx/GjJggdCjLBjVkIkCBGzglkJDUfJXCsqZ1hUHnFgVlo1gBB9RDXxoEf0c+9mNQkgcfxoyYIHQoywY1ZCJAgRs4JZKTEn4V6tqJxhUXnEgVlp1QBC9BHVxIMe0c+9m9UkgMTxoyULHggxwo5ZCZEgRMwKZiU0HCVzraicYVF5xIFZadUAQvQR1cSDHtHPvZvVJIDE8aMlCx4IMcKOWQmRIETMCmalxJyEe7WicoZF5REHZqVVAwjRR1QTD3pEP/duVpMAEsePlix4IMQIO2YlRIIQMSuYldBwlMy1onKGReURB2alVQMI0UdUEw96RD/3blaTABLHj5YseCDECDtmJUSCEDErmJUScxLu1YrKGRaVRxyYlVYNIEQfUU086BH93LtZTQJIHD9asuCBECPsmJUQCULErGBWQsNRMteKyhkWlUccmJVWDSBEH1FNPOgR/dy7WU0CSBw/WrLggRAj7JiVEImJEPdOnpLbG9u9aIr3TJyUwebDzmJRoDmDOHxKFjya19/7Ri6ubHSW/OvrD2TfwTn/ZENmrx1ZkO9//aOTWIjjmUlR49k3Hs3S8h2ZmrncSfL1wB/O/SKfLKwNkZ6/vPjjuhyd/amTWD76ak1OfPGz/8AhM+LwwVjwaPSRx05fc2LUKin5mub5vfq6n/lyVd48fkmePP3XP9kus0PTF2T605WxtQsah4rw1SMLxLH12HHtIw8nRNWF3oz6CtU+ahw/2nvOzq+OlPwdfc6duyG6f1xx6E346J8nOx+f/Zs4fFRd8vgPcvO/ZC826o0AAAAASUVORK5CYII=;" parent="1" vertex="1"><mxGeometry x="391.7800000000001" y="3570" width="59.69" height="30.58" as="geometry"/></mxCell><mxCell id="Xlb7uxuFtpM8GHsKnaJM-7" value="Communication Process" style="text;html=1;strokeColor=none;fillColor=none;align=center;verticalAlign=middle;whiteSpace=wrap;rounded=0;shadow=0;" parent="1" vertex="1"><mxGeometry x="477.78" y="3760" width="92.38" height="20" as="geometry"/></mxCell><mxCell id="Xlb7uxuFtpM8GHsKnaJM-8" value="&lt;font style=&quot;font-size: 14px&quot;&gt;enqueue&lt;/font&gt;" style="endArrow=classic;html=1;exitX=0.68;exitY=-0.078;exitDx=0;exitDy=0;entryX=0;entryY=0.5;entryDx=0;entryDy=0;exitPerimeter=0;" parent="1" source="Xlb7uxuFtpM8GHsKnaJM-3" target="Xlb7uxuFtpM8GHsKnaJM-6" edge="1"><mxGeometry x="0.0255" width="50" height="50" relative="1" as="geometry"><mxPoint x="312.65" y="3654.7" as="sourcePoint"/><mxPoint x="466.65" y="3580" as="targetPoint"/><Array as="points"><mxPoint x="335.65" y="3600"/></Array><mxPoint as="offset"/></mxGeometry></mxCell><mxCell id="Xlb7uxuFtpM8GHsKnaJM-9" value="&lt;font style=&quot;font-size: 11px&quot;&gt;dequeue/seek&lt;/font&gt;" style="endArrow=classic;html=1;exitX=1;exitY=0.5;exitDx=0;exitDy=0;" parent="1" source="Xlb7uxuFtpM8GHsKnaJM-6" edge="1"><mxGeometry x="0.1208" y="14" width="50" height="50" relative="1" as="geometry"><mxPoint x="441.78" y="3630" as="sourcePoint"/><mxPoint x="486.15999999999997" y="3630" as="targetPoint"/><Array as="points"><mxPoint x="486.78" y="3600"/></Array><mxPoint as="offset"/></mxGeometry></mxCell><mxCell id="Xlb7uxuFtpM8GHsKnaJM-10" value="" style="endArrow=classic;startArrow=classic;html=1;entryX=0;entryY=0.5;entryDx=0;entryDy=0;" parent="1" source="Xlb7uxuFtpM8GHsKnaJM-3" target="Xlb7uxuFtpM8GHsKnaJM-16" edge="1"><mxGeometry width="50" height="50" relative="1" as="geometry"><mxPoint x="271.15999999999997" y="3650" as="sourcePoint"/><mxPoint x="451.4699999999999" y="3674.7000000000003" as="targetPoint"/></mxGeometry></mxCell><mxCell id="Xlb7uxuFtpM8GHsKnaJM-11" value="Bidirectional Channel" style="edgeLabel;html=1;align=center;verticalAlign=middle;resizable=0;points=[];" parent="Xlb7uxuFtpM8GHsKnaJM-10" vertex="1" connectable="0"><mxGeometry x="0.1811" y="1" relative="1" as="geometry"><mxPoint x="-26" y="1" as="offset"/></mxGeometry></mxCell><mxCell id="Xlb7uxuFtpM8GHsKnaJM-12" value="MP.QUEUE" style="text;html=1;strokeColor=none;fillColor=none;align=center;verticalAlign=middle;whiteSpace=wrap;rounded=0;shadow=0;" parent="1" vertex="1"><mxGeometry x="401.62" y="3550" width="40" height="20" as="geometry"/></mxCell><mxCell id="Xlb7uxuFtpM8GHsKnaJM-13" value="client x&lt;br&gt;handler" style="rounded=1;whiteSpace=wrap;html=1;shadow=0;fillColor=#FFFFFF;" parent="1" vertex="1"><mxGeometry x="455.15999999999997" y="3694.7" width="52" height="30" as="geometry"/></mxCell><mxCell id="Xlb7uxuFtpM8GHsKnaJM-14" value="&lt;font style=&quot;font-size: 10px&quot;&gt;addresses&lt;br&gt;dictionary&lt;/font&gt;" style="html=1;dashed=0;whitespace=wrap;shadow=0;fillColor=#DFFF94;" parent="1" vertex="1"><mxGeometry x="507.78" y="3629.4" width="49" height="25.3" as="geometry"/></mxCell><mxCell id="Xlb7uxuFtpM8GHsKnaJM-15" value="client y&lt;br&gt;handler" style="rounded=1;whiteSpace=wrap;html=1;shadow=0;fillColor=#FFFFFF;" parent="1" vertex="1"><mxGeometry x="523.16" y="3694.7" width="52" height="30" as="geometry"/></mxCell><mxCell id="Xlb7uxuFtpM8GHsKnaJM-16" value="Server Thread" style="rounded=1;whiteSpace=wrap;html=1;shadow=0;fillColor=#FFFFFF;" parent="1" vertex="1"><mxGeometry x="489.15999999999997" y="3659.7" width="52" height="30" as="geometry"/></mxCell><mxCell id="Xlb7uxuFtpM8GHsKnaJM-17" value="&lt;font style=&quot;font-size: 10px&quot;&gt;address&lt;br&gt;configuration&lt;br&gt;dictionary&lt;/font&gt;" style="html=1;dashed=0;whitespace=wrap;shadow=0;fillColor=#DFFF94;" parent="1" vertex="1"><mxGeometry x="265.15999999999997" y="3689.7" width="60" height="40" as="geometry"/></mxCell><mxCell id="Xlb7uxuFtpM8GHsKnaJM-18" value="" style="ellipse;whiteSpace=wrap;html=1;" parent="1" vertex="1"><mxGeometry x="341.18" y="3840" width="218.23" height="100" as="geometry"/></mxCell><mxCell id="Xlb7uxuFtpM8GHsKnaJM-19" value="Server Thread" style="rounded=1;whiteSpace=wrap;html=1;" parent="1" vertex="1"><mxGeometry x="385.64000000000004" y="3870" width="120" height="40" as="geometry"/></mxCell><mxCell id="Xlb7uxuFtpM8GHsKnaJM-20" value="" style="endArrow=classic;html=1;entryX=1;entryY=0.5;entryDx=0;entryDy=0;exitX=0.16;exitY=0.55;exitDx=0;exitDy=0;exitPerimeter=0;" parent="1" source="Xlb7uxuFtpM8GHsKnaJM-21" target="Xlb7uxuFtpM8GHsKnaJM-19" edge="1"><mxGeometry width="50" height="50" relative="1" as="geometry"><mxPoint x="638.1800000000001" y="3890" as="sourcePoint"/><mxPoint x="838.1800000000001" y="3740" as="targetPoint"/></mxGeometry></mxCell><mxCell id="Xlb7uxuFtpM8GHsKnaJM-21" value="" style="ellipse;shape=cloud;whiteSpace=wrap;html=1;" parent="1" vertex="1"><mxGeometry x="563.8299999999999" y="3840" width="141.86" height="100" as="geometry"/></mxCell><mxCell id="Xlb7uxuFtpM8GHsKnaJM-22" value="Asking for Connection&lt;br&gt;&quot;C0De&quot;" style="text;html=1;strokeColor=none;fillColor=none;align=center;verticalAlign=middle;whiteSpace=wrap;rounded=0;" parent="1" vertex="1"><mxGeometry x="619.69" y="3884" width="40" height="20" as="geometry"/></mxCell><mxCell id="Xlb7uxuFtpM8GHsKnaJM-27" value="" style="endArrow=classic;html=1;exitX=0;exitY=0.5;exitDx=0;exitDy=0;entryX=1;entryY=0.5;entryDx=0;entryDy=0;" parent="1" source="Xlb7uxuFtpM8GHsKnaJM-19" target="Xlb7uxuFtpM8GHsKnaJM-31" edge="1"><mxGeometry width="50" height="50" relative="1" as="geometry"><mxPoint x="487.31" y="3750" as="sourcePoint"/><mxPoint x="287.31" y="3890" as="targetPoint"/></mxGeometry></mxCell><mxCell id="Xlb7uxuFtpM8GHsKnaJM-28" value="Communication Process" style="text;html=1;strokeColor=none;fillColor=none;align=center;verticalAlign=middle;whiteSpace=wrap;rounded=0;shadow=0;" parent="1" vertex="1"><mxGeometry x="403.58" y="3950" width="92.38" height="20" as="geometry"/></mxCell><mxCell id="Xlb7uxuFtpM8GHsKnaJM-30" value="Logical Process" style="text;html=1;strokeColor=none;fillColor=none;align=center;verticalAlign=middle;whiteSpace=wrap;rounded=0;shadow=0;" parent="1" vertex="1"><mxGeometry x="198.31" y="3930" width="40" height="20" as="geometry"/></mxCell><mxCell id="Xlb7uxuFtpM8GHsKnaJM-31" value="main thread" style="rounded=1;whiteSpace=wrap;html=1;shadow=0;fillColor=#FFFFFF;" parent="1" vertex="1"><mxGeometry x="176.31" y="3870" width="84" height="25.3" as="geometry"/></mxCell><mxCell id="Xlb7uxuFtpM8GHsKnaJM-35" value="&lt;font style=&quot;font-size: 12px&quot;&gt;&quot;C0De&quot;&lt;/font&gt;" style="html=1;dashed=0;whitespace=wrap;shadow=0;fillColor=#DFFF94;" parent="1" vertex="1"><mxGeometry x="190.81" y="3898.35" width="55" height="20" as="geometry"/></mxCell><mxCell id="Xlb7uxuFtpM8GHsKnaJM-36" value="" style="ellipse;whiteSpace=wrap;html=1;shadow=0;fillColor=#FFFFFF;" parent="1" vertex="1"><mxGeometry x="120.75" y="4012.35" width="184" height="70" as="geometry"/></mxCell><mxCell id="Xlb7uxuFtpM8GHsKnaJM-37" value="" style="ellipse;whiteSpace=wrap;html=1;" parent="1" vertex="1"><mxGeometry x="335.62" y="4000" width="218.23" height="100" as="geometry"/></mxCell><mxCell id="Xlb7uxuFtpM8GHsKnaJM-38" value="Server Thread" style="rounded=1;whiteSpace=wrap;html=1;" parent="1" vertex="1"><mxGeometry x="380.08000000000004" y="4030" width="120" height="40" as="geometry"/></mxCell><mxCell id="Xlb7uxuFtpM8GHsKnaJM-39" value="" style="endArrow=classic;html=1;entryX=0.063;entryY=0.497;entryDx=0;entryDy=0;exitX=1;exitY=0.5;exitDx=0;exitDy=0;entryPerimeter=0;" parent="1" source="Xlb7uxuFtpM8GHsKnaJM-38" target="Xlb7uxuFtpM8GHsKnaJM-40" edge="1"><mxGeometry width="50" height="50" relative="1" as="geometry"><mxPoint x="832.6200000000001" y="3900" as="sourcePoint"/><mxPoint x="632.6200000000001" y="4050" as="targetPoint"/></mxGeometry></mxCell><mxCell id="Xlb7uxuFtpM8GHsKnaJM-40" value="" style="ellipse;shape=cloud;whiteSpace=wrap;html=1;" parent="1" vertex="1"><mxGeometry x="578.1399999999999" y="3995.35" width="141.86" height="100" as="geometry"/></mxCell><mxCell id="Xlb7uxuFtpM8GHsKnaJM-42" value="" style="endArrow=classic;html=1;exitX=1;exitY=0.5;exitDx=0;exitDy=0;entryX=0;entryY=0.5;entryDx=0;entryDy=0;" parent="1" source="Xlb7uxuFtpM8GHsKnaJM-45" target="Xlb7uxuFtpM8GHsKnaJM-38" edge="1"><mxGeometry width="50" height="50" relative="1" as="geometry"><mxPoint x="281.75" y="4050" as="sourcePoint"/><mxPoint x="481.75" y="3910" as="targetPoint"/></mxGeometry></mxCell><mxCell id="Xlb7uxuFtpM8GHsKnaJM-43" value="Communication Process" style="text;html=1;strokeColor=none;fillColor=none;align=center;verticalAlign=middle;whiteSpace=wrap;rounded=0;shadow=0;" parent="1" vertex="1"><mxGeometry x="398.02" y="4110" width="92.38" height="20" as="geometry"/></mxCell><mxCell id="Xlb7uxuFtpM8GHsKnaJM-44" value="Logical Process" style="text;html=1;strokeColor=none;fillColor=none;align=center;verticalAlign=middle;whiteSpace=wrap;rounded=0;shadow=0;" parent="1" vertex="1"><mxGeometry x="192.75" y="4090" width="40" height="20" as="geometry"/></mxCell><mxCell id="Xlb7uxuFtpM8GHsKnaJM-45" value="main thread" style="rounded=1;whiteSpace=wrap;html=1;shadow=0;fillColor=#FFFFFF;" parent="1" vertex="1"><mxGeometry x="166.16" y="4037.35" width="84" height="25.3" as="geometry"/></mxCell><mxCell id="Xlb7uxuFtpM8GHsKnaJM-47" value="ACK" style="text;html=1;strokeColor=none;fillColor=none;align=center;verticalAlign=middle;whiteSpace=wrap;rounded=0;" parent="1" vertex="1"><mxGeometry x="300" y="4030" width="40" height="20" as="geometry"/></mxCell><mxCell id="Xlb7uxuFtpM8GHsKnaJM-48" value="ACK" style="text;html=1;strokeColor=none;fillColor=none;align=center;verticalAlign=middle;whiteSpace=wrap;rounded=0;" parent="1" vertex="1"><mxGeometry x="550" y="4027" width="40" height="20" as="geometry"/></mxCell><mxCell id="Xlb7uxuFtpM8GHsKnaJM-49" value="" style="ellipse;whiteSpace=wrap;html=1;shadow=0;fillColor=#FFFFFF;" parent="1" vertex="1"><mxGeometry x="116.38" y="4177" width="184" height="70" as="geometry"/></mxCell><mxCell id="Xlb7uxuFtpM8GHsKnaJM-50" value="" style="ellipse;whiteSpace=wrap;html=1;" parent="1" vertex="1"><mxGeometry x="331.25" y="4164.65" width="218.23" height="100" as="geometry"/></mxCell><mxCell id="Xlb7uxuFtpM8GHsKnaJM-51" value="Server Thread" style="rounded=1;whiteSpace=wrap;html=1;" parent="1" vertex="1"><mxGeometry x="375.71000000000004" y="4194.65" width="120" height="40" as="geometry"/></mxCell><mxCell id="Xlb7uxuFtpM8GHsKnaJM-52" value="" style="endArrow=classic;html=1;entryX=1;entryY=0.5;entryDx=0;entryDy=0;exitX=0.063;exitY=0.497;exitDx=0;exitDy=0;exitPerimeter=0;" parent="1" source="Xlb7uxuFtpM8GHsKnaJM-53" target="Xlb7uxuFtpM8GHsKnaJM-51" edge="1"><mxGeometry width="50" height="50" relative="1" as="geometry"><mxPoint x="628.2500000000001" y="4214.65" as="sourcePoint"/><mxPoint x="828.2500000000001" y="4064.65" as="targetPoint"/></mxGeometry></mxCell><mxCell id="Xlb7uxuFtpM8GHsKnaJM-53" value="" style="ellipse;shape=cloud;whiteSpace=wrap;html=1;" parent="1" vertex="1"><mxGeometry x="573.7699999999999" y="4160" width="141.86" height="100" as="geometry"/></mxCell><mxCell id="Xlb7uxuFtpM8GHsKnaJM-54" value="" style="endArrow=classic;html=1;exitX=0;exitY=0.5;exitDx=0;exitDy=0;entryX=1;entryY=0.5;entryDx=0;entryDy=0;" parent="1" source="Xlb7uxuFtpM8GHsKnaJM-51" target="Xlb7uxuFtpM8GHsKnaJM-57" edge="1"><mxGeometry width="50" height="50" relative="1" as="geometry"><mxPoint x="477.38" y="4074.65" as="sourcePoint"/><mxPoint x="277.38" y="4214.65" as="targetPoint"/></mxGeometry></mxCell><mxCell id="Xlb7uxuFtpM8GHsKnaJM-55" value="Communication Process" style="text;html=1;strokeColor=none;fillColor=none;align=center;verticalAlign=middle;whiteSpace=wrap;rounded=0;shadow=0;" parent="1" vertex="1"><mxGeometry x="393.65" y="4274.65" width="92.38" height="20" as="geometry"/></mxCell><mxCell id="Xlb7uxuFtpM8GHsKnaJM-56" value="Logical Process" style="text;html=1;strokeColor=none;fillColor=none;align=center;verticalAlign=middle;whiteSpace=wrap;rounded=0;shadow=0;" parent="1" vertex="1"><mxGeometry x="188.38" y="4254.65" width="40" height="20" as="geometry"/></mxCell><mxCell id="Xlb7uxuFtpM8GHsKnaJM-57" value="main thread" style="rounded=1;whiteSpace=wrap;html=1;shadow=0;fillColor=#FFFFFF;" parent="1" vertex="1"><mxGeometry x="170.75" y="4211.65" width="84" height="25.3" as="geometry"/></mxCell><mxCell id="Xlb7uxuFtpM8GHsKnaJM-60" value="Mode: &quot;Right&quot;" style="text;html=1;strokeColor=none;fillColor=none;align=center;verticalAlign=middle;whiteSpace=wrap;rounded=0;" parent="1" vertex="1"><mxGeometry x="631.33" y="4191.65" width="40" height="20" as="geometry"/></mxCell><mxCell id="Xlb7uxuFtpM8GHsKnaJM-62" value="&lt;font style=&quot;font-size: 12px&quot;&gt;right monitor: Empty&lt;/font&gt;" style="html=1;dashed=0;whitespace=wrap;shadow=0;fillColor=#DFFF94;" parent="1" vertex="1"><mxGeometry x="153.07" y="4187.65" width="112.09" height="20" as="geometry"/></mxCell><mxCell id="Xlb7uxuFtpM8GHsKnaJM-63" value="" style="ellipse;whiteSpace=wrap;html=1;shadow=0;fillColor=#FFFFFF;" parent="1" vertex="1"><mxGeometry x="114" y="4347" width="184" height="70" as="geometry"/></mxCell><mxCell id="Xlb7uxuFtpM8GHsKnaJM-64" value="" style="ellipse;whiteSpace=wrap;html=1;" parent="1" vertex="1"><mxGeometry x="328.87" y="4334.65" width="218.23" height="100" as="geometry"/></mxCell><mxCell id="Xlb7uxuFtpM8GHsKnaJM-65" value="Server Thread" style="rounded=1;whiteSpace=wrap;html=1;" parent="1" vertex="1"><mxGeometry x="373.33000000000004" y="4364.65" width="120" height="40" as="geometry"/></mxCell><mxCell id="Xlb7uxuFtpM8GHsKnaJM-66" value="" style="endArrow=classic;html=1;entryX=0.063;entryY=0.497;entryDx=0;entryDy=0;exitX=1;exitY=0.5;exitDx=0;exitDy=0;entryPerimeter=0;" parent="1" source="Xlb7uxuFtpM8GHsKnaJM-65" target="Xlb7uxuFtpM8GHsKnaJM-67" edge="1"><mxGeometry width="50" height="50" relative="1" as="geometry"><mxPoint x="825.8700000000001" y="4234.65" as="sourcePoint"/><mxPoint x="625.8700000000001" y="4384.65" as="targetPoint"/></mxGeometry></mxCell><mxCell id="Xlb7uxuFtpM8GHsKnaJM-67" value="" style="ellipse;shape=cloud;whiteSpace=wrap;html=1;" parent="1" vertex="1"><mxGeometry x="571.3899999999999" y="4330" width="141.86" height="100" as="geometry"/></mxCell><mxCell id="Xlb7uxuFtpM8GHsKnaJM-68" value="" style="endArrow=classic;html=1;exitX=1;exitY=0.5;exitDx=0;exitDy=0;entryX=0;entryY=0.5;entryDx=0;entryDy=0;" parent="1" source="Xlb7uxuFtpM8GHsKnaJM-71" target="Xlb7uxuFtpM8GHsKnaJM-65" edge="1"><mxGeometry width="50" height="50" relative="1" as="geometry"><mxPoint x="275" y="4384.65" as="sourcePoint"/><mxPoint x="475" y="4244.65" as="targetPoint"/></mxGeometry></mxCell><mxCell id="Xlb7uxuFtpM8GHsKnaJM-69" value="Communication Process" style="text;html=1;strokeColor=none;fillColor=none;align=center;verticalAlign=middle;whiteSpace=wrap;rounded=0;shadow=0;" parent="1" vertex="1"><mxGeometry x="391.27" y="4444.65" width="92.38" height="20" as="geometry"/></mxCell><mxCell id="Xlb7uxuFtpM8GHsKnaJM-70" value="Logical Process" style="text;html=1;strokeColor=none;fillColor=none;align=center;verticalAlign=middle;whiteSpace=wrap;rounded=0;shadow=0;" parent="1" vertex="1"><mxGeometry x="186" y="4424.65" width="40" height="20" as="geometry"/></mxCell><mxCell id="Xlb7uxuFtpM8GHsKnaJM-71" value="main thread" style="rounded=1;whiteSpace=wrap;html=1;shadow=0;fillColor=#FFFFFF;" parent="1" vertex="1"><mxGeometry x="168.37" y="4381.65" width="84" height="25.3" as="geometry"/></mxCell><mxCell id="Xlb7uxuFtpM8GHsKnaJM-73" value="&lt;font style=&quot;font-size: 12px&quot;&gt;right monitor: Empty&lt;/font&gt;" style="html=1;dashed=0;whitespace=wrap;shadow=0;fillColor=#DFFF94;" parent="1" vertex="1"><mxGeometry x="150.69" y="4357.65" width="112.09" height="20" as="geometry"/></mxCell><mxCell id="Xlb7uxuFtpM8GHsKnaJM-74" value="ACK" style="text;html=1;strokeColor=none;fillColor=none;align=center;verticalAlign=middle;whiteSpace=wrap;rounded=0;" parent="1" vertex="1"><mxGeometry x="294.16" y="4372" width="40" height="20" as="geometry"/></mxCell><mxCell id="Xlb7uxuFtpM8GHsKnaJM-75" value="ACK" style="text;html=1;strokeColor=none;fillColor=none;align=center;verticalAlign=middle;whiteSpace=wrap;rounded=0;" parent="1" vertex="1"><mxGeometry x="543.33" y="4361.65" width="40" height="20" as="geometry"/></mxCell><mxCell id="hQnSltmCeuLVOE9HSqg4-16" value="" style="shape=image;verticalLabelPosition=bottom;labelBackgroundColor=#ffffff;verticalAlign=top;aspect=fixed;imageAspect=0;image=data:image/png,iVBORw0KGgoAAAANSUhEUgAAAKIAAABTCAYAAAAcPNynAAAFS0lEQVR4Ae2Zz2tdRRTH73/kqqv+Ad25KEJAs7GbFkRpQFpEXaRQLdlEKbaiEQvRhmh/pGK1loaIpoRibQm8FhrQCJF2FQqti1IXR85gaOfHy53HvHu4ZT4DIcw08+6Zz/meuef72sj/48+/t+Xdj6/IK1Pz8tL+2aKfl984I299cEl+G2ztfPxIv9fv3Xf79x2cK4pD92scq7c2R3p+3/64Lzy6jKNR6EvLA9l/eF4+O39Lrq79JRtbj4t+Vm5uydc/DGTynUX5/NsbI+V1/rvfZeLts27/9fUHRXHofo3jwPvn5NjpayPFoX/cJfjcYPrCo+s4Gr0JVYSDzYdFSR8mXhVB7o2kN6iKd9hnlaxPzVyWpeU7ufmXrsHnBNIXHhZxNPrq0lujJMm77dUbVl/3OePQ9AVZvHq3k1hGicMC/IvEwyIvjfZRpa/A3YSoN+2eiZM53GXv5Cm5vbHdiRA1Ru19c4YF+Jw4+sLDIo5Gk7ObkMbxb7kC6DqW3DgswOcIsS88LOJAiAlFWIBPPDZaqikOhBilX9wrfBxvgmGfoQLLGQix8OubMAGA978Og0fMgxsxcTXVdBMljh8tWfBAiBF2Xs0hEoRIi9DpNxp9ahG4EcPyF27EEAk3IjciN2LofEvmfXoFhNWemlvcAKnnhms1xcGrOcw+r+aIiEVBIMQIOz1iiAQh0iPSI5b0hOFeraicYVF5xPHsfzX6lBdezQllUhA+FAseCNFn7mYW4BOPjZZqigMhRunHrIRILAoCIYbU+fomIoIQcc245tD5lsy1onKGReURB665VQMI0UdUEw96RD/3blaTABLHj5YseCDECDuuOUSCEDErmJUScxLu1YrKGRaVRxyYlVYNIEQfUU086BH93LtZTQJIHD9asuCBECPsmJUQCULErGBWQsNRMteKyhkWlUccmJVWDSBEH1FNPOgR/dy7WU0CSBw/WrLggRAj7JiVEAlCxKxgVkrMSbhXKypnWFQecWBWWjWAEH1ENfGgR/Rz72Y1CSBx/GjJggdCjLBjVkIkCBGzglkJDUfJXCsqZ1hUHnFgVlo1gBB9RDXxoEf0c+9mNQkgcfxoyYIHQoywY1ZCJAgRs4JZKTEn4V6tqJxhUXnEgVlp1QBC9BHVxIMe0c+9m9UkgMTxoyULHggxwo5ZCZEgRMwKZiU0HCVzraicYVF5xIFZadUAQvQR1cSDHtHPvZvVJIDE8aMlCx4IMcKOWQmRIETMCmalxJyEe7WicoZF5REHZqVVAwjRR1QTD3pEP/duVpMAEsePlix4IMQIO2YlRIIQMSuYldBwlMy1onKGReURB2alVQMI0UdUEw96RD/3blaTABLHj5YseCDECDtmJUSCEDErmJUScxLu1YrKGRaVRxyYlVYNIEQfUU086BH93LtZTQJIHD9asuCBECPsmJUQCULErGBWQsNRMteKyhkWlUccmJVWDSBEH1FNPOgR/dy7WU0CSBw/WrLggRAj7JiVEImJEPdOnpLbG9u9aIr3TJyUwebDzmJRoDmDOHxKFjya19/7Ri6ubHSW/OvrD2TfwTn/ZENmrx1ZkO9//aOTWIjjmUlR49k3Hs3S8h2ZmrncSfL1wB/O/SKfLKwNkZ6/vPjjuhyd/amTWD76ak1OfPGz/8AhM+LwwVjwaPSRx05fc2LUKin5mub5vfq6n/lyVd48fkmePP3XP9kus0PTF2T605WxtQsah4rw1SMLxLH12HHtIw8nRNWF3oz6CtU+ahw/2nvOzq+OlPwdfc6duyG6f1xx6E346J8nOx+f/Zs4fFRd8vgPcvO/ZC826o0AAAAASUVORK5CYII=;" parent="1" vertex="1"><mxGeometry x="523.6399999999999" y="4770" width="59.69" height="30.58" as="geometry"/></mxCell><mxCell id="hQnSltmCeuLVOE9HSqg4-17" value="" style="endArrow=classic;html=1;entryX=0;entryY=0.5;entryDx=0;entryDy=0;" parent="1" target="hQnSltmCeuLVOE9HSqg4-16" edge="1"><mxGeometry width="50" height="50" relative="1" as="geometry"><mxPoint x="467.93" y="4785" as="sourcePoint"/><mxPoint x="567.9300000000001" y="4850" as="targetPoint"/></mxGeometry></mxCell><mxCell id="hQnSltmCeuLVOE9HSqg4-18" value="&lt;h1&gt;One Way Channel&lt;/h1&gt;&lt;p&gt;&lt;font style=&quot;font-size: 14px&quot;&gt;based on one queue, one end shall only send and the other shall only receive.&lt;/font&gt;&lt;/p&gt;&lt;p&gt;&lt;span style=&quot;font-size: 14px&quot;&gt;Utilizing the Queue data structure you can receive in some later time after message has been placed on buffer&lt;/span&gt;&lt;/p&gt;" style="text;html=1;strokeColor=none;fillColor=none;spacing=5;spacingTop=-20;whiteSpace=wrap;overflow=hidden;rounded=0;" parent="1" vertex="1"><mxGeometry x="80" y="4760" width="220" height="180" as="geometry"/></mxCell><mxCell id="hQnSltmCeuLVOE9HSqg4-19" value="" style="endArrow=classic;html=1;exitX=1;exitY=0.5;exitDx=0;exitDy=0;" parent="1" source="hQnSltmCeuLVOE9HSqg4-16" edge="1"><mxGeometry width="50" height="50" relative="1" as="geometry"><mxPoint x="477.93000000000006" y="4795" as="sourcePoint"/><mxPoint x="630" y="4785" as="targetPoint"/></mxGeometry></mxCell><mxCell id="hQnSltmCeuLVOE9HSqg4-20" value="&lt;font style=&quot;font-size: 18px&quot;&gt;Party A&lt;/font&gt;" style="text;html=1;strokeColor=none;fillColor=none;align=center;verticalAlign=middle;whiteSpace=wrap;rounded=0;" parent="1" vertex="1"><mxGeometry x="400" y="4775.29" width="64.04" height="20" as="geometry"/></mxCell><mxCell id="hQnSltmCeuLVOE9HSqg4-21" value="&lt;font style=&quot;font-size: 18px&quot;&gt;Party B&lt;/font&gt;" style="text;html=1;strokeColor=none;fillColor=none;align=center;verticalAlign=middle;whiteSpace=wrap;rounded=0;" parent="1" vertex="1"><mxGeometry x="636.96" y="4775.29" width="63.04" height="20" as="geometry"/></mxCell><mxCell id="hQnSltmCeuLVOE9HSqg4-24" value="&lt;font style=&quot;font-size: 18px&quot;&gt;&lt;b&gt;readable()&lt;/b&gt; - if there is any data in the queue&lt;/font&gt;" style="text;html=1;strokeColor=none;fillColor=none;align=left;verticalAlign=middle;whiteSpace=wrap;rounded=0;" parent="1" vertex="1"><mxGeometry x="372.33" y="4840" width="327.67" height="40" as="geometry"/></mxCell><mxCell id="hQnSltmCeuLVOE9HSqg4-26" value="&lt;font style=&quot;font-size: 18px&quot;&gt;&lt;b&gt;&lt;u&gt;writeable()&lt;/u&gt;&lt;/b&gt; - if queue is not full and unready for any information&lt;/font&gt;" style="text;html=1;strokeColor=none;fillColor=none;align=left;verticalAlign=middle;whiteSpace=wrap;rounded=0;" parent="1" vertex="1"><mxGeometry x="372.33" y="4900" width="327.67" height="40" as="geometry"/></mxCell><mxCell id="hQnSltmCeuLVOE9HSqg4-27" value="&lt;font style=&quot;font-size: 18px&quot;&gt;&lt;b&gt;recv()&lt;/b&gt; - dequeues, returns one element&lt;/font&gt;" style="text;html=1;strokeColor=none;fillColor=none;align=left;verticalAlign=middle;whiteSpace=wrap;rounded=0;" parent="1" vertex="1"><mxGeometry x="373.33" y="4960" width="327.67" height="40" as="geometry"/></mxCell><mxCell id="hQnSltmCeuLVOE9HSqg4-28" value="&lt;font style=&quot;font-size: 18px&quot;&gt;&lt;b&gt;&lt;u&gt;send()&lt;/u&gt;&lt;/b&gt; - enqueue one element&lt;/font&gt;" style="text;html=1;strokeColor=none;fillColor=none;align=left;verticalAlign=middle;whiteSpace=wrap;rounded=0;" parent="1" vertex="1"><mxGeometry x="373.33" y="5010" width="327.67" height="40" as="geometry"/></mxCell><mxCell id="hQnSltmCeuLVOE9HSqg4-32" value="&lt;h1&gt;Two Way Channel&lt;/h1&gt;&lt;p&gt;&lt;span style=&quot;font-size: 14px&quot;&gt;Based on two queues, which are encapsulated to One-Way-Channel (OWC). The same OWC is the output channel of Party A and input channel of Party B, and the other OWC is the input channel of Party A and the output channel of Party B.&lt;/span&gt;&lt;/p&gt;" style="text;html=1;strokeColor=none;fillColor=none;spacing=5;spacingTop=-20;whiteSpace=wrap;overflow=hidden;rounded=0;" parent="1" vertex="1"><mxGeometry x="81.08000000000001" y="5172" width="234.63" height="180" as="geometry"/></mxCell><mxCell id="hQnSltmCeuLVOE9HSqg4-49" value="" style="shape=image;verticalLabelPosition=bottom;labelBackgroundColor=#ffffff;verticalAlign=top;aspect=fixed;imageAspect=0;image=data:image/png,iVBORw0KGgoAAAANSUhEUgAAAKIAAABTCAYAAAAcPNynAAAFS0lEQVR4Ae2Zz2tdRRTH73/kqqv+Ad25KEJAs7GbFkRpQFpEXaRQLdlEKbaiEQvRhmh/pGK1loaIpoRibQm8FhrQCJF2FQqti1IXR85gaOfHy53HvHu4ZT4DIcw08+6Zz/meuef72sj/48+/t+Xdj6/IK1Pz8tL+2aKfl984I299cEl+G2ztfPxIv9fv3Xf79x2cK4pD92scq7c2R3p+3/64Lzy6jKNR6EvLA9l/eF4+O39Lrq79JRtbj4t+Vm5uydc/DGTynUX5/NsbI+V1/rvfZeLts27/9fUHRXHofo3jwPvn5NjpayPFoX/cJfjcYPrCo+s4Gr0JVYSDzYdFSR8mXhVB7o2kN6iKd9hnlaxPzVyWpeU7ufmXrsHnBNIXHhZxNPrq0lujJMm77dUbVl/3OePQ9AVZvHq3k1hGicMC/IvEwyIvjfZRpa/A3YSoN+2eiZM53GXv5Cm5vbHdiRA1Ru19c4YF+Jw4+sLDIo5Gk7ObkMbxb7kC6DqW3DgswOcIsS88LOJAiAlFWIBPPDZaqikOhBilX9wrfBxvgmGfoQLLGQix8OubMAGA978Og0fMgxsxcTXVdBMljh8tWfBAiBF2Xs0hEoRIi9DpNxp9ahG4EcPyF27EEAk3IjciN2LofEvmfXoFhNWemlvcAKnnhms1xcGrOcw+r+aIiEVBIMQIOz1iiAQh0iPSI5b0hOFeraicYVF5xPHsfzX6lBdezQllUhA+FAseCNFn7mYW4BOPjZZqigMhRunHrIRILAoCIYbU+fomIoIQcc245tD5lsy1onKGReURB665VQMI0UdUEw96RD/3blaTABLHj5YseCDECDuuOUSCEDErmJUScxLu1YrKGRaVRxyYlVYNIEQfUU086BH93LtZTQJIHD9asuCBECPsmJUQCULErGBWQsNRMteKyhkWlUccmJVWDSBEH1FNPOgR/dy7WU0CSBw/WrLggRAj7JiVEAlCxKxgVkrMSbhXKypnWFQecWBWWjWAEH1ENfGgR/Rz72Y1CSBx/GjJggdCjLBjVkIkCBGzglkJDUfJXCsqZ1hUHnFgVlo1gBB9RDXxoEf0c+9mNQkgcfxoyYIHQoywY1ZCJAgRs4JZKTEn4V6tqJxhUXnEgVlp1QBC9BHVxIMe0c+9m9UkgMTxoyULHggxwo5ZCZEgRMwKZiU0HCVzraicYVF5xIFZadUAQvQR1cSDHtHPvZvVJIDE8aMlCx4IMcKOWQmRIETMCmalxJyEe7WicoZF5REHZqVVAwjRR1QTD3pEP/duVpMAEsePlix4IMQIO2YlRIIQMSuYldBwlMy1onKGReURB2alVQMI0UdUEw96RD/3blaTABLHj5YseCDECDtmJUSCEDErmJUScxLu1YrKGRaVRxyYlVYNIEQfUU086BH93LtZTQJIHD9asuCBECPsmJUQCULErGBWQsNRMteKyhkWlUccmJVWDSBEH1FNPOgR/dy7WU0CSBw/WrLggRAj7JiVEImJEPdOnpLbG9u9aIr3TJyUwebDzmJRoDmDOHxKFjya19/7Ri6ubHSW/OvrD2TfwTn/ZENmrx1ZkO9//aOTWIjjmUlR49k3Hs3S8h2ZmrncSfL1wB/O/SKfLKwNkZ6/vPjjuhyd/amTWD76ak1OfPGz/8AhM+LwwVjwaPSRx05fc2LUKin5mub5vfq6n/lyVd48fkmePP3XP9kus0PTF2T605WxtQsah4rw1SMLxLH12HHtIw8nRNWF3oz6CtU+ahw/2nvOzq+OlPwdfc6duyG6f1xx6E346J8nOx+f/Zs4fFRd8vgPcvO/ZC826o0AAAAASUVORK5CYII=;" parent="1" vertex="1"><mxGeometry x="524.2099999999998" y="5166.71" width="59.69" height="30.58" as="geometry"/></mxCell><mxCell id="hQnSltmCeuLVOE9HSqg4-50" value="" style="endArrow=classic;html=1;entryX=0;entryY=0.5;entryDx=0;entryDy=0;" parent="1" target="hQnSltmCeuLVOE9HSqg4-49" edge="1"><mxGeometry width="50" height="50" relative="1" as="geometry"><mxPoint x="468.50000000000006" y="5181.71" as="sourcePoint"/><mxPoint x="568.5000000000001" y="5246.71" as="targetPoint"/></mxGeometry></mxCell><mxCell id="hQnSltmCeuLVOE9HSqg4-51" value="" style="endArrow=classic;html=1;exitX=1;exitY=0.5;exitDx=0;exitDy=0;" parent="1" source="hQnSltmCeuLVOE9HSqg4-49" edge="1"><mxGeometry width="50" height="50" relative="1" as="geometry"><mxPoint x="478.50000000000006" y="5191.71" as="sourcePoint"/><mxPoint x="630.57" y="5181.71" as="targetPoint"/></mxGeometry></mxCell><mxCell id="hQnSltmCeuLVOE9HSqg4-52" value="&lt;font style=&quot;font-size: 14px&quot;&gt;Party A&lt;/font&gt;" style="text;html=1;strokeColor=none;fillColor=none;align=center;verticalAlign=middle;whiteSpace=wrap;rounded=0;" parent="1" vertex="1"><mxGeometry x="411.57" y="5172" width="64.04" height="20" as="geometry"/></mxCell><mxCell id="hQnSltmCeuLVOE9HSqg4-53" value="&lt;font style=&quot;font-size: 14px&quot;&gt;Party B&lt;/font&gt;" style="text;html=1;strokeColor=none;fillColor=none;align=center;verticalAlign=middle;whiteSpace=wrap;rounded=0;" parent="1" vertex="1"><mxGeometry x="622.5300000000001" y="5172" width="63.04" height="20" as="geometry"/></mxCell><mxCell id="hQnSltmCeuLVOE9HSqg4-55" value="" style="shape=image;verticalLabelPosition=bottom;labelBackgroundColor=#ffffff;verticalAlign=top;aspect=fixed;imageAspect=0;image=data:image/png,iVBORw0KGgoAAAANSUhEUgAAAKIAAABTCAYAAAAcPNynAAAFS0lEQVR4Ae2Zz2tdRRTH73/kqqv+Ad25KEJAs7GbFkRpQFpEXaRQLdlEKbaiEQvRhmh/pGK1loaIpoRibQm8FhrQCJF2FQqti1IXR85gaOfHy53HvHu4ZT4DIcw08+6Zz/meuef72sj/48+/t+Xdj6/IK1Pz8tL+2aKfl984I299cEl+G2ztfPxIv9fv3Xf79x2cK4pD92scq7c2R3p+3/64Lzy6jKNR6EvLA9l/eF4+O39Lrq79JRtbj4t+Vm5uydc/DGTynUX5/NsbI+V1/rvfZeLts27/9fUHRXHofo3jwPvn5NjpayPFoX/cJfjcYPrCo+s4Gr0JVYSDzYdFSR8mXhVB7o2kN6iKd9hnlaxPzVyWpeU7ufmXrsHnBNIXHhZxNPrq0lujJMm77dUbVl/3OePQ9AVZvHq3k1hGicMC/IvEwyIvjfZRpa/A3YSoN+2eiZM53GXv5Cm5vbHdiRA1Ru19c4YF+Jw4+sLDIo5Gk7ObkMbxb7kC6DqW3DgswOcIsS88LOJAiAlFWIBPPDZaqikOhBilX9wrfBxvgmGfoQLLGQix8OubMAGA978Og0fMgxsxcTXVdBMljh8tWfBAiBF2Xs0hEoRIi9DpNxp9ahG4EcPyF27EEAk3IjciN2LofEvmfXoFhNWemlvcAKnnhms1xcGrOcw+r+aIiEVBIMQIOz1iiAQh0iPSI5b0hOFeraicYVF5xPHsfzX6lBdezQllUhA+FAseCNFn7mYW4BOPjZZqigMhRunHrIRILAoCIYbU+fomIoIQcc245tD5lsy1onKGReURB665VQMI0UdUEw96RD/3blaTABLHj5YseCDECDuuOUSCEDErmJUScxLu1YrKGRaVRxyYlVYNIEQfUU086BH93LtZTQJIHD9asuCBECPsmJUQCULErGBWQsNRMteKyhkWlUccmJVWDSBEH1FNPOgR/dy7WU0CSBw/WrLggRAj7JiVEAlCxKxgVkrMSbhXKypnWFQecWBWWjWAEH1ENfGgR/Rz72Y1CSBx/GjJggdCjLBjVkIkCBGzglkJDUfJXCsqZ1hUHnFgVlo1gBB9RDXxoEf0c+9mNQkgcfxoyYIHQoywY1ZCJAgRs4JZKTEn4V6tqJxhUXnEgVlp1QBC9BHVxIMe0c+9m9UkgMTxoyULHggxwo5ZCZEgRMwKZiU0HCVzraicYVF5xIFZadUAQvQR1cSDHtHPvZvVJIDE8aMlCx4IMcKOWQmRIETMCmalxJyEe7WicoZF5REHZqVVAwjRR1QTD3pEP/duVpMAEsePlix4IMQIO2YlRIIQMSuYldBwlMy1onKGReURB2alVQMI0UdUEw96RD/3blaTABLHj5YseCDECDtmJUSCEDErmJUScxLu1YrKGRaVRxyYlVYNIEQfUU086BH93LtZTQJIHD9asuCBECPsmJUQCULErGBWQsNRMteKyhkWlUccmJVWDSBEH1FNPOgR/dy7WU0CSBw/WrLggRAj7JiVEImJEPdOnpLbG9u9aIr3TJyUwebDzmJRoDmDOHxKFjya19/7Ri6ubHSW/OvrD2TfwTn/ZENmrx1ZkO9//aOTWIjjmUlR49k3Hs3S8h2ZmrncSfL1wB/O/SKfLKwNkZ6/vPjjuhyd/amTWD76ak1OfPGz/8AhM+LwwVjwaPSRx05fc2LUKin5mub5vfq6n/lyVd48fkmePP3XP9kus0PTF2T605WxtQsah4rw1SMLxLH12HHtIw8nRNWF3oz6CtU+ahw/2nvOzq+OlPwdfc6duyG6f1xx6E346J8nOx+f/Zs4fFRd8vgPcvO/ZC826o0AAAAASUVORK5CYII=;" parent="1" vertex="1"><mxGeometry x="524.3099999999998" y="5214" width="59.69" height="30.58" as="geometry"/></mxCell><mxCell id="hQnSltmCeuLVOE9HSqg4-56" value="" style="endArrow=classic;html=1;entryX=0;entryY=0.5;entryDx=0;entryDy=0;exitX=0;exitY=0.5;exitDx=0;exitDy=0;" parent="1" source="hQnSltmCeuLVOE9HSqg4-55" edge="1"><mxGeometry width="50" height="50" relative="1" as="geometry"><mxPoint x="571.35" y="5294" as="sourcePoint"/><mxPoint x="471.3500000000001" y="5229" as="targetPoint"/></mxGeometry></mxCell><mxCell id="hQnSltmCeuLVOE9HSqg4-57" value="" style="endArrow=classic;html=1;exitX=1;exitY=0.5;exitDx=0;exitDy=0;entryX=1;entryY=0.5;entryDx=0;entryDy=0;" parent="1" target="hQnSltmCeuLVOE9HSqg4-55" edge="1"><mxGeometry width="50" height="50" relative="1" as="geometry"><mxPoint x="633.42" y="5229" as="sourcePoint"/><mxPoint x="481.3500000000001" y="5239" as="targetPoint"/></mxGeometry></mxCell><mxCell id="hQnSltmCeuLVOE9HSqg4-58" value="&lt;font style=&quot;font-size: 14px&quot;&gt;Party A&lt;/font&gt;" style="text;html=1;strokeColor=none;fillColor=none;align=center;verticalAlign=middle;whiteSpace=wrap;rounded=0;" parent="1" vertex="1"><mxGeometry x="415.42" y="5219.29" width="64.04" height="20" as="geometry"/></mxCell><mxCell id="hQnSltmCeuLVOE9HSqg4-59" value="&lt;font style=&quot;font-size: 14px&quot;&gt;Party B&lt;/font&gt;" style="text;html=1;strokeColor=none;fillColor=none;align=center;verticalAlign=middle;whiteSpace=wrap;rounded=0;" parent="1" vertex="1"><mxGeometry x="626" y="5219.29" width="63.04" height="20" as="geometry"/></mxCell><mxCell id="hQnSltmCeuLVOE9HSqg4-88" value="RECV" style="endArrow=classic;html=1;" parent="1" edge="1"><mxGeometry x="-0.1621" width="50" height="50" relative="1" as="geometry"><mxPoint x="415.15999999999997" y="5228.87" as="sourcePoint"/><mxPoint x="363.52999999999986" y="5228.87" as="targetPoint"/><mxPoint as="offset"/></mxGeometry></mxCell><mxCell id="hQnSltmCeuLVOE9HSqg4-89" value="SEND" style="endArrow=classic;html=1;" parent="1" edge="1"><mxGeometry x="-0.1621" width="50" height="50" relative="1" as="geometry"><mxPoint x="737.9599999999999" y="5229.87" as="sourcePoint"/><mxPoint x="686.3299999999998" y="5229.87" as="targetPoint"/><mxPoint as="offset"/></mxGeometry></mxCell><mxCell id="hQnSltmCeuLVOE9HSqg4-90" value="RECV" style="endArrow=classic;html=1;" parent="1" edge="1"><mxGeometry x="-0.1621" width="50" height="50" relative="1" as="geometry"><mxPoint x="684.1899999999998" y="5181.29" as="sourcePoint"/><mxPoint x="735.8199999999999" y="5181.29" as="targetPoint"/><mxPoint as="offset"/></mxGeometry></mxCell><mxCell id="hQnSltmCeuLVOE9HSqg4-96" value="SEND" style="endArrow=classic;html=1;" parent="1" edge="1"><mxGeometry x="-0.1621" width="50" height="50" relative="1" as="geometry"><mxPoint x="364.3700000000001" y="5181.29" as="sourcePoint"/><mxPoint x="416.0000000000002" y="5181.29" as="targetPoint"/><mxPoint as="offset"/></mxGeometry></mxCell><mxCell id="hQnSltmCeuLVOE9HSqg4-97" value="Party A&amp;nbsp;" style="text;html=1;strokeColor=none;fillColor=none;align=center;verticalAlign=middle;whiteSpace=wrap;rounded=0;" parent="1" vertex="1"><mxGeometry x="343.87" y="5196.29" width="60" height="20" as="geometry"/></mxCell><mxCell id="hQnSltmCeuLVOE9HSqg4-98" value="Party B" style="text;html=1;strokeColor=none;fillColor=none;align=center;verticalAlign=middle;whiteSpace=wrap;rounded=0;" parent="1" vertex="1"><mxGeometry x="694" y="5197.29" width="60" height="20" as="geometry"/></mxCell><mxCell id="hQnSltmCeuLVOE9HSqg4-99" value="Channel&lt;br&gt;side Party A" style="text;html=1;strokeColor=none;fillColor=none;align=center;verticalAlign=middle;whiteSpace=wrap;rounded=0;" parent="1" vertex="1"><mxGeometry x="378.95" y="5258.29" width="76.05" height="20" as="geometry"/></mxCell><mxCell id="hQnSltmCeuLVOE9HSqg4-100" value="Channel&lt;br&gt;side Party B" style="text;html=1;strokeColor=none;fillColor=none;align=center;verticalAlign=middle;whiteSpace=wrap;rounded=0;" parent="1" vertex="1"><mxGeometry x="638.95" y="5258.29" width="76.05" height="20" as="geometry"/></mxCell><mxCell id="hQnSltmCeuLVOE9HSqg4-104" value="&lt;font style=&quot;font-size: 18px&quot;&gt;&lt;b&gt;send()&lt;/b&gt; - enqueue one element&lt;/font&gt;" style="text;html=1;strokeColor=none;fillColor=none;align=left;verticalAlign=middle;whiteSpace=wrap;rounded=0;" parent="1" vertex="1"><mxGeometry x="373.33" y="5467" width="327.67" height="40" as="geometry"/></mxCell><mxCell id="hQnSltmCeuLVOE9HSqg4-105" value="&lt;font style=&quot;font-size: 18px&quot;&gt;&lt;b&gt;recv()&lt;/b&gt; - dequeue one element&lt;/font&gt;" style="text;html=1;strokeColor=none;fillColor=none;align=left;verticalAlign=middle;whiteSpace=wrap;rounded=0;" parent="1" vertex="1"><mxGeometry x="373.73999999999995" y="5427" width="327.67" height="40" as="geometry"/></mxCell><mxCell id="hQnSltmCeuLVOE9HSqg4-106" value="&lt;font style=&quot;font-size: 18px&quot;&gt;&lt;b&gt;readable()&lt;/b&gt; - if there is any data in the queue&lt;/font&gt;" style="text;html=1;strokeColor=none;fillColor=none;align=left;verticalAlign=middle;whiteSpace=wrap;rounded=0;" parent="1" vertex="1"><mxGeometry x="373.33" y="5324" width="327.67" height="40" as="geometry"/></mxCell><mxCell id="hQnSltmCeuLVOE9HSqg4-107" value="&lt;font style=&quot;font-size: 18px&quot;&gt;&lt;b&gt;writeable()&lt;/b&gt; - if queue is not full and unready for any information&lt;/font&gt;" style="text;html=1;strokeColor=none;fillColor=none;align=left;verticalAlign=middle;whiteSpace=wrap;rounded=0;" parent="1" vertex="1"><mxGeometry x="373.33" y="5384" width="327.67" height="40" as="geometry"/></mxCell><mxCell id="hQnSltmCeuLVOE9HSqg4-109" value="&lt;b&gt;&lt;i&gt;*Note:&lt;/i&gt;&lt;/b&gt; functions &lt;b&gt;&lt;u&gt;marked&lt;/u&gt;&amp;nbsp;&lt;/b&gt;must only be used by party A&lt;br&gt;while functions &lt;b&gt;unmarked &lt;/b&gt;must only be used by party B&lt;br&gt;Although, all are useable at both sides" style="text;html=1;align=center;verticalAlign=middle;resizable=0;points=[];autosize=1;strokeColor=none;" parent="1" vertex="1"><mxGeometry x="361.33000000000004" y="5050" width="310" height="50" as="geometry"/></mxCell><mxCell id="mL6exn9bOXUMH5lreAFG-1" value="" style="ellipse;whiteSpace=wrap;html=1;shadow=0;fillColor=#FFFFFF;" parent="1" vertex="1"><mxGeometry x="278.12" y="5910" width="330.94" height="240" as="geometry"/></mxCell><mxCell id="mL6exn9bOXUMH5lreAFG-2" value="Communication Process" style="text;html=1;strokeColor=none;fillColor=none;align=center;verticalAlign=middle;whiteSpace=wrap;rounded=0;shadow=0;" parent="1" vertex="1"><mxGeometry x="397.62" y="6160" width="92.38" height="20" as="geometry"/></mxCell><mxCell id="mL6exn9bOXUMH5lreAFG-3" value="Bidirectional Channel" style="edgeLabel;html=1;align=center;verticalAlign=middle;resizable=0;points=[];" parent="1" vertex="1" connectable="0"><mxGeometry x="140.00331803600514" y="6019.99780112844" as="geometry"/></mxCell><mxCell id="mL6exn9bOXUMH5lreAFG-4" value="&lt;font style=&quot;font-size: 14px&quot;&gt;Network&lt;br&gt;Buffer&lt;/font&gt;" style="rounded=1;whiteSpace=wrap;html=1;shadow=0;fillColor=#F0FFF7;" parent="1" vertex="1"><mxGeometry x="713.2499999999999" y="6020" width="62.19" height="40" as="geometry"/></mxCell><mxCell id="mL6exn9bOXUMH5lreAFG-5" value="" style="endArrow=classic;html=1;exitX=1;exitY=0;exitDx=0;exitDy=0;entryX=0.5;entryY=0;entryDx=0;entryDy=0;" parent="1" source="mL6exn9bOXUMH5lreAFG-1" target="mL6exn9bOXUMH5lreAFG-4" edge="1"><mxGeometry width="50" height="50" relative="1" as="geometry"><mxPoint x="190.94" y="5850" as="sourcePoint"/><mxPoint x="240.94" y="5800" as="targetPoint"/><Array as="points"><mxPoint x="660" y="5980"/></Array></mxGeometry></mxCell><mxCell id="mL6exn9bOXUMH5lreAFG-7" value="&lt;font style=&quot;font-size: 10px&quot;&gt;addresses&lt;br&gt;dictionary&lt;/font&gt;" style="html=1;dashed=0;whitespace=wrap;shadow=0;fillColor=#DFFF94;" parent="1" vertex="1"><mxGeometry x="419.64" y="5919.4" width="49" height="25.3" as="geometry"/></mxCell><mxCell id="mL6exn9bOXUMH5lreAFG-9" value="Server Thread" style="rounded=1;whiteSpace=wrap;html=1;shadow=0;fillColor=#FFFFFF;" parent="1" vertex="1"><mxGeometry x="419.64" y="5952.05" width="52" height="30" as="geometry"/></mxCell><mxCell id="2" value="" style="shape=flexArrow;endArrow=classic;startArrow=classic;html=1;rounded=0;endWidth=12;endSize=6.67;startWidth=12;startSize=6.67;" parent="1" edge="1"><mxGeometry width="100" height="100" relative="1" as="geometry"><mxPoint x="20" y="6020" as="sourcePoint"/><mxPoint x="270" y="6020" as="targetPoint"/></mxGeometry></mxCell><mxCell id="3" value="LEFT: (Monitor)&lt;br&gt;RIGHT: (Monitor)&lt;br&gt;TOP: (Monitor)&lt;br&gt;BOTTOM: (Monitor)" style="rounded=0;whiteSpace=wrap;html=1;" parent="1" vertex="1"><mxGeometry x="60" y="6140" width="120" height="60" as="geometry"/></mxCell><mxCell id="4" value="LEFT: (Address)&lt;br&gt;RIGHT: (Address)&lt;br&gt;TOP: (Address)&lt;br&gt;BOTTOM: (Address)" style="rounded=0;whiteSpace=wrap;html=1;" parent="1" vertex="1"><mxGeometry x="304.75" y="6002.5" width="113.66" height="60" as="geometry"/></mxCell><mxCell id="7" value="" style="rounded=1;whiteSpace=wrap;html=1;shadow=0;fillColor=#FFFFFF;" parent="1" vertex="1"><mxGeometry x="492.64000000000004" y="5989.5" width="82.36" height="105" as="geometry"/></mxCell><mxCell id="8" value="&lt;div style=&quot;text-align: center&quot;&gt;&lt;font face=&quot;helvetica&quot;&gt;Client Connection Handler&lt;/font&gt;&lt;/div&gt;" style="text;whiteSpace=wrap;html=1;" parent="1" vertex="1"><mxGeometry x="498.7" y="5985.5" width="70.3" height="54.5" as="geometry"/></mxCell><mxCell id="11" value="Bi-Channel" style="whiteSpace=wrap;html=1;" parent="1" vertex="1"><mxGeometry x="499.15999999999997" y="6037" width="70" height="20" as="geometry"/></mxCell><mxCell id="12" value="Channel&lt;br&gt;Dictionary" style="rounded=0;whiteSpace=wrap;html=1;" parent="1" vertex="1"><mxGeometry x="503.82" y="6060" width="60" height="30" as="geometry"/></mxCell><mxCell id="13" value="" style="endArrow=classic;html=1;rounded=0;exitX=1;exitY=0.75;exitDx=0;exitDy=0;entryX=0.067;entryY=0.031;entryDx=0;entryDy=0;entryPerimeter=0;" parent="1" source="mL6exn9bOXUMH5lreAFG-9" target="7" edge="1"><mxGeometry width="50" height="50" relative="1" as="geometry"><mxPoint x="390" y="6260" as="sourcePoint"/><mxPoint x="440" y="6210" as="targetPoint"/></mxGeometry></mxCell><mxCell id="14" value="Client X" style="rounded=1;whiteSpace=wrap;html=1;" parent="1" vertex="1"><mxGeometry x="439.16" y="6110" width="50" height="20" as="geometry"/></mxCell><mxCell id="15" value="Client Y" style="rounded=1;whiteSpace=wrap;html=1;" parent="1" vertex="1"><mxGeometry x="373.33" y="6110" width="50" height="20" as="geometry"/></mxCell><mxCell id="16" value="" style="endArrow=classic;html=1;rounded=0;entryX=0.75;entryY=0;entryDx=0;entryDy=0;" parent="1" source="7" target="15" edge="1"><mxGeometry width="50" height="50" relative="1" as="geometry"><mxPoint x="390" y="6260" as="sourcePoint"/><mxPoint x="440" y="6210" as="targetPoint"/></mxGeometry></mxCell><mxCell id="17" value="" style="endArrow=classic;html=1;rounded=0;entryX=0.5;entryY=0;entryDx=0;entryDy=0;exitX=0;exitY=0.75;exitDx=0;exitDy=0;" parent="1" source="7" target="14" edge="1"><mxGeometry width="50" height="50" relative="1" as="geometry"><mxPoint x="502.6400000000003" y="6074.768029921131" as="sourcePoint"/><mxPoint x="420.8299999999999" y="6120" as="targetPoint"/></mxGeometry></mxCell><mxCell id="36" value="" style="rounded=1;whiteSpace=wrap;html=1;" parent="1" vertex="1"><mxGeometry x="126.29000000000002" y="6330" width="302.71" height="87" as="geometry"/></mxCell><mxCell id="37" value="" style="rounded=1;whiteSpace=wrap;html=1;" parent="1" vertex="1"><mxGeometry x="129" y="6280" width="300" height="40" as="geometry"/></mxCell><mxCell id="39" value="" style="endArrow=classic;html=1;" parent="1" edge="1"><mxGeometry width="50" height="50" relative="1" as="geometry"><mxPoint x="201.76" y="6373.21" as="sourcePoint"/><mxPoint x="201.76" y="6373.21" as="targetPoint"/><Array as="points"><mxPoint x="161.76" y="6373.21"/></Array></mxGeometry></mxCell><mxCell id="40" value="" style="endArrow=classic;html=1;entryX=0.234;entryY=0.485;entryDx=0;entryDy=0;entryPerimeter=0;" parent="1" target="42" edge="1"><mxGeometry width="50" height="50" relative="1" as="geometry"><mxPoint x="363.38" y="6373.21" as="sourcePoint"/><mxPoint x="373.38" y="6373.21" as="targetPoint"/></mxGeometry></mxCell><mxCell id="41" value="&lt;font style=&quot;font-size: 10px&quot;&gt;Party A&lt;/font&gt;" style="text;html=1;strokeColor=none;fillColor=none;align=center;verticalAlign=middle;whiteSpace=wrap;rounded=0;" parent="1" vertex="1"><mxGeometry x="116.01999999999998" y="6363.5" width="64.04" height="20" as="geometry"/></mxCell><mxCell id="42" value="&lt;font style=&quot;font-size: 10px&quot;&gt;Party B&lt;/font&gt;" style="text;html=1;strokeColor=none;fillColor=none;align=center;verticalAlign=middle;whiteSpace=wrap;rounded=0;" parent="1" vertex="1"><mxGeometry x="372.5400000000001" y="6363.5" width="63.04" height="20" as="geometry"/></mxCell><mxCell id="43" value="" style="shape=image;verticalLabelPosition=bottom;labelBackgroundColor=#ffffff;verticalAlign=top;aspect=fixed;imageAspect=0;image=data:image/png,iVBORw0KGgoAAAANSUhEUgAAAKIAAABTCAYAAAAcPNynAAAFS0lEQVR4Ae2Zz2tdRRTH73/kqqv+Ad25KEJAs7GbFkRpQFpEXaRQLdlEKbaiEQvRhmh/pGK1loaIpoRibQm8FhrQCJF2FQqti1IXR85gaOfHy53HvHu4ZT4DIcw08+6Zz/meuef72sj/48+/t+Xdj6/IK1Pz8tL+2aKfl984I299cEl+G2ztfPxIv9fv3Xf79x2cK4pD92scq7c2R3p+3/64Lzy6jKNR6EvLA9l/eF4+O39Lrq79JRtbj4t+Vm5uydc/DGTynUX5/NsbI+V1/rvfZeLts27/9fUHRXHofo3jwPvn5NjpayPFoX/cJfjcYPrCo+s4Gr0JVYSDzYdFSR8mXhVB7o2kN6iKd9hnlaxPzVyWpeU7ufmXrsHnBNIXHhZxNPrq0lujJMm77dUbVl/3OePQ9AVZvHq3k1hGicMC/IvEwyIvjfZRpa/A3YSoN+2eiZM53GXv5Cm5vbHdiRA1Ru19c4YF+Jw4+sLDIo5Gk7ObkMbxb7kC6DqW3DgswOcIsS88LOJAiAlFWIBPPDZaqikOhBilX9wrfBxvgmGfoQLLGQix8OubMAGA978Og0fMgxsxcTXVdBMljh8tWfBAiBF2Xs0hEoRIi9DpNxp9ahG4EcPyF27EEAk3IjciN2LofEvmfXoFhNWemlvcAKnnhms1xcGrOcw+r+aIiEVBIMQIOz1iiAQh0iPSI5b0hOFeraicYVF5xPHsfzX6lBdezQllUhA+FAseCNFn7mYW4BOPjZZqigMhRunHrIRILAoCIYbU+fomIoIQcc245tD5lsy1onKGReURB665VQMI0UdUEw96RD/3blaTABLHj5YseCDECDuuOUSCEDErmJUScxLu1YrKGRaVRxyYlVYNIEQfUU086BH93LtZTQJIHD9asuCBECPsmJUQCULErGBWQsNRMteKyhkWlUccmJVWDSBEH1FNPOgR/dy7WU0CSBw/WrLggRAj7JiVEAlCxKxgVkrMSbhXKypnWFQecWBWWjWAEH1ENfGgR/Rz72Y1CSBx/GjJggdCjLBjVkIkCBGzglkJDUfJXCsqZ1hUHnFgVlo1gBB9RDXxoEf0c+9mNQkgcfxoyYIHQoywY1ZCJAgRs4JZKTEn4V6tqJxhUXnEgVlp1QBC9BHVxIMe0c+9m9UkgMTxoyULHggxwo5ZCZEgRMwKZiU0HCVzraicYVF5xIFZadUAQvQR1cSDHtHPvZvVJIDE8aMlCx4IMcKOWQmRIETMCmalxJyEe7WicoZF5REHZqVVAwjRR1QTD3pEP/duVpMAEsePlix4IMQIO2YlRIIQMSuYldBwlMy1onKGReURB2alVQMI0UdUEw96RD/3blaTABLHj5YseCDECDtmJUSCEDErmJUScxLu1YrKGRaVRxyYlVYNIEQfUU086BH93LtZTQJIHD9asuCBECPsmJUQCULErGBWQsNRMteKyhkWlUccmJVWDSBEH1FNPOgR/dy7WU0CSBw/WrLggRAj7JiVEImJEPdOnpLbG9u9aIr3TJyUwebDzmJRoDmDOHxKFjya19/7Ri6ubHSW/OvrD2TfwTn/ZENmrx1ZkO9//aOTWIjjmUlR49k3Hs3S8h2ZmrncSfL1wB/O/SKfLKwNkZ6/vPjjuhyd/amTWD76ak1OfPGz/8AhM+LwwVjwaPSRx05fc2LUKin5mub5vfq6n/lyVd48fkmePP3XP9kus0PTF2T605WxtQsah4rw1SMLxLH12HHtIw8nRNWF3oz6CtU+ahw/2nvOzq+OlPwdfc6duyG6f1xx6E346J8nOx+f/Zs4fFRd8vgPcvO/ZC826o0AAAAASUVORK5CYII=;" parent="1" vertex="1"><mxGeometry x="245.95999999999987" y="6284.71" width="59.69" height="30.58" as="geometry"/></mxCell><mxCell id="44" value="" style="endArrow=classic;html=1;entryX=0;entryY=0.5;entryDx=0;entryDy=0;exitX=0;exitY=0.5;exitDx=0;exitDy=0;" parent="1" source="43" edge="1"><mxGeometry width="50" height="50" relative="1" as="geometry"><mxPoint x="293.00000000000006" y="6364.71" as="sourcePoint"/><mxPoint x="193.00000000000017" y="6299.71" as="targetPoint"/></mxGeometry></mxCell><mxCell id="45" value="" style="endArrow=classic;html=1;exitX=1;exitY=0.5;exitDx=0;exitDy=0;entryX=1;entryY=0.5;entryDx=0;entryDy=0;" parent="1" target="43" edge="1"><mxGeometry width="50" height="50" relative="1" as="geometry"><mxPoint x="355.0700000000001" y="6299.71" as="sourcePoint"/><mxPoint x="203.00000000000006" y="6309.71" as="targetPoint"/></mxGeometry></mxCell><mxCell id="46" value="&lt;font style=&quot;font-size: 14px&quot;&gt;Party A&lt;/font&gt;" style="text;html=1;strokeColor=none;fillColor=none;align=center;verticalAlign=middle;whiteSpace=wrap;rounded=0;" parent="1" vertex="1"><mxGeometry x="137.07" y="6290" width="64.04" height="20" as="geometry"/></mxCell><mxCell id="47" value="&lt;font style=&quot;font-size: 14px&quot;&gt;Party B&lt;/font&gt;" style="text;html=1;strokeColor=none;fillColor=none;align=center;verticalAlign=middle;whiteSpace=wrap;rounded=0;" parent="1" vertex="1"><mxGeometry x="347.65000000000003" y="6290" width="63.04" height="20" as="geometry"/></mxCell><mxCell id="52" value="Server Thread" style="text;html=1;strokeColor=none;fillColor=none;align=center;verticalAlign=middle;whiteSpace=wrap;rounded=0;" parent="1" vertex="1"><mxGeometry x="477.11" y="6343.5" width="47.58" height="10" as="geometry"/></mxCell><mxCell id="53" value="Logic Process" style="text;html=1;strokeColor=none;fillColor=none;align=center;verticalAlign=middle;whiteSpace=wrap;rounded=0;" parent="1" vertex="1"><mxGeometry x="56.02000000000004" y="6330" width="60" height="20" as="geometry"/></mxCell><mxCell id="57" value="MESSAGE FOR &lt;b&gt;LEFT&lt;/b&gt; MONITOR" style="rounded=1;whiteSpace=wrap;html=1;fontSize=10;fillColor=#dae8fc;strokeColor=#6c8ebf;" parent="1" vertex="1"><mxGeometry x="205.90999999999997" y="6333.5" width="71.62" height="80" as="geometry"/></mxCell><mxCell id="58" value="MESSAGE FOR &lt;b&gt;RIGHT&lt;/b&gt; MONITOR" style="rounded=1;whiteSpace=wrap;html=1;fontSize=10;fillColor=#dae8fc;strokeColor=#6c8ebf;" parent="1" vertex="1"><mxGeometry x="286.59999999999997" y="6333.5" width="71.62" height="80" as="geometry"/></mxCell><mxCell id="59" value="" style="rounded=1;whiteSpace=wrap;html=1;fontSize=10;" parent="1" vertex="1"><mxGeometry x="536.62" y="6353.5" width="120" height="120" as="geometry"/></mxCell><mxCell id="60" value="&amp;nbsp;Client Connection Handler" style="text;html=1;strokeColor=none;fillColor=none;align=center;verticalAlign=middle;whiteSpace=wrap;rounded=0;fontSize=10;" parent="1" vertex="1"><mxGeometry x="566.6200000000001" y="6358.5" width="60" height="30" as="geometry"/></mxCell><mxCell id="63" value="" style="endArrow=classic;html=1;rounded=0;fontSize=10;exitX=1;exitY=0.5;exitDx=0;exitDy=0;entryX=0.015;entryY=0.051;entryDx=0;entryDy=0;entryPerimeter=0;" parent="1" source="52" target="59" edge="1"><mxGeometry width="50" height="50" relative="1" as="geometry"><mxPoint x="360.62" y="6330" as="sourcePoint"/><mxPoint x="580.62" y="6330" as="targetPoint"/></mxGeometry></mxCell><mxCell id="66" value="" style="endArrow=classic;html=1;rounded=0;fontSize=10;" parent="1" edge="1"><mxGeometry width="50" height="50" relative="1" as="geometry"><mxPoint x="430.62" y="6376" as="sourcePoint"/><mxPoint x="470.62" y="6376" as="targetPoint"/></mxGeometry></mxCell><mxCell id="67" value="" style="endArrow=classic;html=1;rounded=0;fontSize=10;exitX=0.024;exitY=0.343;exitDx=0;exitDy=0;exitPerimeter=0;" parent="1" source="68" edge="1"><mxGeometry width="50" height="50" relative="1" as="geometry"><mxPoint x="468.62" y="6301" as="sourcePoint"/><mxPoint x="428.62" y="6301" as="targetPoint"/></mxGeometry></mxCell><mxCell id="70" value="" style="rounded=1;whiteSpace=wrap;html=1;fontSize=10;" parent="1" vertex="1"><mxGeometry x="655.78" y="6270" width="54.84" height="30" as="geometry"/></mxCell><mxCell id="71" value="Addresses Dictionary" style="rounded=0;whiteSpace=wrap;html=1;fontSize=10;" parent="1" vertex="1"><mxGeometry x="545.78" y="6398.5" width="100" height="18.5" as="geometry"/></mxCell><mxCell id="72" value="" style="rounded=1;whiteSpace=wrap;html=1;fontSize=10;" parent="1" vertex="1"><mxGeometry x="685.62" y="6310" width="54.84" height="30" as="geometry"/></mxCell><mxCell id="73" value="" style="endArrow=classic;html=1;rounded=0;fontSize=10;entryX=0;entryY=0.5;entryDx=0;entryDy=0;" parent="1" source="59" target="70" edge="1"><mxGeometry width="50" height="50" relative="1" as="geometry"><mxPoint x="360.62" y="6290" as="sourcePoint"/><mxPoint x="410.62" y="6240" as="targetPoint"/></mxGeometry></mxCell><mxCell id="74" value="" style="endArrow=classic;html=1;rounded=0;fontSize=10;exitX=1.003;exitY=0.206;exitDx=0;exitDy=0;exitPerimeter=0;" parent="1" source="59" target="72" edge="1"><mxGeometry width="50" height="50" relative="1" as="geometry"><mxPoint x="360.62" y="6290" as="sourcePoint"/><mxPoint x="410.62" y="6240" as="targetPoint"/></mxGeometry></mxCell><mxCell id="75" value="Client Right" style="text;html=1;strokeColor=none;fillColor=none;align=center;verticalAlign=middle;whiteSpace=wrap;rounded=0;fontSize=10;" parent="1" vertex="1"><mxGeometry x="683.57" y="6303.5" width="59.05" height="30" as="geometry"/></mxCell><mxCell id="77" value="Channel" style="rounded=0;whiteSpace=wrap;html=1;fontSize=10;" parent="1" vertex="1"><mxGeometry x="689.9" y="6326" width="46.28" height="11.5" as="geometry"/></mxCell><mxCell id="78" value="Channel" style="rounded=0;whiteSpace=wrap;html=1;fontSize=10;" parent="1" vertex="1"><mxGeometry x="660.0600000000001" y="6284.71" width="46.28" height="11.5" as="geometry"/></mxCell><mxCell id="79" value="Client Left" style="text;html=1;align=center;verticalAlign=middle;resizable=0;points=[];autosize=1;strokeColor=none;fillColor=none;fontSize=10;" parent="1" vertex="1"><mxGeometry x="652.78" y="6269" width="60" height="20" as="geometry"/></mxCell><mxCell id="80" value="Channels List" style="rounded=0;whiteSpace=wrap;html=1;fontSize=10;" parent="1" vertex="1"><mxGeometry x="543.86" y="6425" width="103.84" height="21" as="geometry"/></mxCell><mxCell id="82" value="" style="endArrow=none;html=1;rounded=0;strokeWidth=2;" parent="1" edge="1"><mxGeometry width="50" height="50" relative="1" as="geometry"><mxPoint x="6" y="6530" as="sourcePoint"/><mxPoint x="822" y="6530" as="targetPoint"/></mxGeometry></mxCell><mxCell id="83" value="&lt;span style=&quot;font-size: 15px&quot;&gt;( Type: Orientation, Type: Message)&lt;/span&gt;" style="rounded=1;whiteSpace=wrap;html=1;fontSize=10;fillColor=#dae8fc;strokeColor=#6c8ebf;" parent="1" vertex="1"><mxGeometry x="467.71" y="6590" width="242.29" height="50" as="geometry"/></mxCell><mxCell id="84" value="Message Contents" style="text;html=1;align=center;verticalAlign=middle;resizable=0;points=[];autosize=1;strokeColor=none;fillColor=none;fontSize=15;" parent="1" vertex="1"><mxGeometry x="517.6000000000001" y="6560" width="140" height="20" as="geometry"/></mxCell><mxCell id="99" value="" style="rounded=1;whiteSpace=wrap;html=1;" parent="1" vertex="1"><mxGeometry x="63.08000000000001" y="6570" width="270" height="40" as="geometry"/></mxCell><mxCell id="100" value="" style="shape=image;verticalLabelPosition=bottom;labelBackgroundColor=#ffffff;verticalAlign=top;aspect=fixed;imageAspect=0;image=data:image/png,iVBORw0KGgoAAAANSUhEUgAAAKIAAABTCAYAAAAcPNynAAAFS0lEQVR4Ae2Zz2tdRRTH73/kqqv+Ad25KEJAs7GbFkRpQFpEXaRQLdlEKbaiEQvRhmh/pGK1loaIpoRibQm8FhrQCJF2FQqti1IXR85gaOfHy53HvHu4ZT4DIcw08+6Zz/meuef72sj/48+/t+Xdj6/IK1Pz8tL+2aKfl984I299cEl+G2ztfPxIv9fv3Xf79x2cK4pD92scq7c2R3p+3/64Lzy6jKNR6EvLA9l/eF4+O39Lrq79JRtbj4t+Vm5uydc/DGTynUX5/NsbI+V1/rvfZeLts27/9fUHRXHofo3jwPvn5NjpayPFoX/cJfjcYPrCo+s4Gr0JVYSDzYdFSR8mXhVB7o2kN6iKd9hnlaxPzVyWpeU7ufmXrsHnBNIXHhZxNPrq0lujJMm77dUbVl/3OePQ9AVZvHq3k1hGicMC/IvEwyIvjfZRpa/A3YSoN+2eiZM53GXv5Cm5vbHdiRA1Ru19c4YF+Jw4+sLDIo5Gk7ObkMbxb7kC6DqW3DgswOcIsS88LOJAiAlFWIBPPDZaqikOhBilX9wrfBxvgmGfoQLLGQix8OubMAGA978Og0fMgxsxcTXVdBMljh8tWfBAiBF2Xs0hEoRIi9DpNxp9ahG4EcPyF27EEAk3IjciN2LofEvmfXoFhNWemlvcAKnnhms1xcGrOcw+r+aIiEVBIMQIOz1iiAQh0iPSI5b0hOFeraicYVF5xPHsfzX6lBdezQllUhA+FAseCNFn7mYW4BOPjZZqigMhRunHrIRILAoCIYbU+fomIoIQcc245tD5lsy1onKGReURB665VQMI0UdUEw96RD/3blaTABLHj5YseCDECDuuOUSCEDErmJUScxLu1YrKGRaVRxyYlVYNIEQfUU086BH93LtZTQJIHD9asuCBECPsmJUQCULErGBWQsNRMteKyhkWlUccmJVWDSBEH1FNPOgR/dy7WU0CSBw/WrLggRAj7JiVEAlCxKxgVkrMSbhXKypnWFQecWBWWjWAEH1ENfGgR/Rz72Y1CSBx/GjJggdCjLBjVkIkCBGzglkJDUfJXCsqZ1hUHnFgVlo1gBB9RDXxoEf0c+9mNQkgcfxoyYIHQoywY1ZCJAgRs4JZKTEn4V6tqJxhUXnEgVlp1QBC9BHVxIMe0c+9m9UkgMTxoyULHggxwo5ZCZEgRMwKZiU0HCVzraicYVF5xIFZadUAQvQR1cSDHtHPvZvVJIDE8aMlCx4IMcKOWQmRIETMCmalxJyEe7WicoZF5REHZqVVAwjRR1QTD3pEP/duVpMAEsePlix4IMQIO2YlRIIQMSuYldBwlMy1onKGReURB2alVQMI0UdUEw96RD/3blaTABLHj5YseCDECDtmJUSCEDErmJUScxLu1YrKGRaVRxyYlVYNIEQfUU086BH93LtZTQJIHD9asuCBECPsmJUQCULErGBWQsNRMteKyhkWlUccmJVWDSBEH1FNPOgR/dy7WU0CSBw/WrLggRAj7JiVEImJEPdOnpLbG9u9aIr3TJyUwebDzmJRoDmDOHxKFjya19/7Ri6ubHSW/OvrD2TfwTn/ZENmrx1ZkO9//aOTWIjjmUlR49k3Hs3S8h2ZmrncSfL1wB/O/SKfLKwNkZ6/vPjjuhyd/amTWD76ak1OfPGz/8AhM+LwwVjwaPSRx05fc2LUKin5mub5vfq6n/lyVd48fkmePP3XP9kus0PTF2T605WxtQsah4rw1SMLxLH12HHtIw8nRNWF3oz6CtU+ahw/2nvOzq+OlPwdfc6duyG6f1xx6E346J8nOx+f/Zs4fFRd8vgPcvO/ZC826o0AAAAASUVORK5CYII=;" parent="1" vertex="1"><mxGeometry x="172.1299999999998" y="6575" width="59.69" height="30.58" as="geometry"/></mxCell><mxCell id="101" value="" style="endArrow=classic;html=1;entryX=0;entryY=0.5;entryDx=0;entryDy=0;" parent="1" target="100" edge="1"><mxGeometry width="50" height="50" relative="1" as="geometry"><mxPoint x="116.42000000000021" y="6590" as="sourcePoint"/><mxPoint x="216.4200000000001" y="6655" as="targetPoint"/></mxGeometry></mxCell><mxCell id="102" value="" style="endArrow=classic;html=1;exitX=1;exitY=0.5;exitDx=0;exitDy=0;" parent="1" source="100" edge="1"><mxGeometry width="50" height="50" relative="1" as="geometry"><mxPoint x="126.42000000000004" y="6600" as="sourcePoint"/><mxPoint x="278.4900000000001" y="6590" as="targetPoint"/></mxGeometry></mxCell><mxCell id="103" value="&lt;font style=&quot;font-size: 14px&quot;&gt;Party A&lt;/font&gt;" style="text;html=1;strokeColor=none;fillColor=none;align=center;verticalAlign=middle;whiteSpace=wrap;rounded=0;" parent="1" vertex="1"><mxGeometry x="59.48999999999998" y="6580.29" width="64.04" height="20" as="geometry"/></mxCell><mxCell id="104" value="&lt;font style=&quot;font-size: 14px&quot;&gt;Party B&lt;/font&gt;" style="text;html=1;strokeColor=none;fillColor=none;align=center;verticalAlign=middle;whiteSpace=wrap;rounded=0;" parent="1" vertex="1"><mxGeometry x="270.45000000000005" y="6580.29" width="63.04" height="20" as="geometry"/></mxCell><mxCell id="105" value="Message Content Go Through Serialization Using &lt;b&gt;&lt;i&gt;Pickle&lt;/i&gt;&lt;/b&gt;" style="text;html=1;strokeColor=none;fillColor=none;align=center;verticalAlign=middle;whiteSpace=wrap;rounded=0;fontSize=15;" parent="1" vertex="1"><mxGeometry x="472.85999999999996" y="6650" width="234.29" height="30" as="geometry"/></mxCell><mxCell id="106" value="" style="endArrow=classic;html=1;rounded=0;fontSize=15;strokeWidth=1;exitX=0.5;exitY=1;exitDx=0;exitDy=0;entryX=0;entryY=0.5;entryDx=0;entryDy=0;" parent="1" source="100" target="83" edge="1"><mxGeometry width="50" height="50" relative="1" as="geometry"><mxPoint x="310" y="6760" as="sourcePoint"/><mxPoint x="360" y="6710" as="targetPoint"/><Array as="points"><mxPoint x="210" y="6620"/></Array></mxGeometry></mxCell><mxCell id="108" value="&lt;h1&gt;Client&lt;/h1&gt;&lt;p&gt;&lt;br&gt;&lt;/p&gt;" style="text;html=1;strokeColor=none;fillColor=none;spacing=5;spacingTop=-20;whiteSpace=wrap;overflow=hidden;rounded=0;" vertex="1" parent="1"><mxGeometry x="300" y="7090" width="190" height="60" as="geometry"/></mxCell></root></mxGraphModel></diagram></mxfile>